SplineFontDB: 3.0
FontName: PfennigBold
FullName: Pfennig Bold
FamilyName: Pfennig
Weight: Bold
Copyright: Copyright 2009-2012 by Daniel Johnson.  Released under the terms of the SIL Open Font License.
UComments: "2009-7-16: Created." 
Version: 20120410
ItalicAngle: 0
UnderlinePosition: -204
UnderlineWidth: 102
Ascent: 1638
Descent: 410
LayerCount: 2
Layer: 0 0 "Back"  1
Layer: 1 1 "Fore"  0
NeedsXUIDChange: 1
XUID: [1021 1003 1579404955 6722392]
FSType: 0
OS2Version: 0
OS2_WeightWidthSlopeOnly: 0
OS2_UseTypoMetrics: 1
CreationTime: 1247766582
ModificationTime: 1334085790
PfmFamily: 33
TTFWeight: 700
TTFWidth: 5
LineGap: 0
VLineGap: 0
OS2TypoAscent: 2174
OS2TypoAOffset: 0
OS2TypoDescent: -531
OS2TypoDOffset: 0
OS2TypoLinegap: 0
OS2WinAscent: 2174
OS2WinAOffset: 0
OS2WinDescent: 531
OS2WinDOffset: 0
HheadAscent: 2174
HheadAOffset: 0
HheadDescent: -531
HheadDOffset: 0
OS2FamilyClass: 2050
OS2Vendor: 'PfEd'
Lookup: 1 0 0 "'ss01' Style Set 1 in Latin"  {"'ss01' Style Set 1 in Latin-1"  } ['ss01' ('latn' <'dflt' > ) ]
Lookup: 1 0 0 "'locl' Localized Forms in Sami"  {"'locl' Localized Forms in Sami-1"  } ['locl' ('latn' <'ISM ' > 'latn' <'LSM ' > 'latn' <'NSM ' > 'latn' <'SKS ' > ) ]
Lookup: 4 0 1 "'liga' Standard Ligatures in Latin lookup 0"  {"'liga' Standard Ligatures in Latin lookup 0-1"  } ['liga' ('DFLT' <'dflt' > 'latn' <'dflt' > ) ]
Lookup: 262 0 0 "'mkmk' Mark to Mark lookup 2"  {"'mkmk' Mark to Mark lookup 2-1"  } ['mkmk' ('DFLT' <'dflt' > 'cyrl' <'dflt' > 'latn' <'dflt' > ) ]
Lookup: 258 0 0 "'kern' Horizontal Kerning lookup 1"  {"'kern' Horizontal Kerning lookup 1-1"  } ['kern' ('DFLT' <'dflt' > 'cyrl' <'dflt' > 'latn' <'dflt' > ) ]
Lookup: 260 0 0 "'mark' Mark Positioning in Latin lookup 0"  {"'mark' Mark Positioning in Latin lookup 0-1"  } ['mark' ('DFLT' <'dflt' > 'latn' <'dflt' > ) ]
MarkAttachClasses: 1
DEI: 91125
KernClass2: 9 9 "'kern' Horizontal Kerning lookup 1-1" 

StartChar: d
Encoding: 100 100 0
Width: 1089
VWidth: 0
Flags: W
HStem: -20 102<423 640> 0 43G<688 944> 819 102<423 621> 1311 41G<688 944>
VStem: 90 256<228 673> 688 256<0 4 132 737 883 1352>
AnchorPoint: "horn" 885 1085 basechar 0
AnchorPoint: "ogonek" 864 0 basechar 0
AnchorPoint: "cedilla" 512 0 basechar 0
AnchorPoint: "bottom" 514 0 basechar 0
AnchorPoint: "top" 532 1004 basechar 0
LayerCount: 2
Fore
SplineSet
688 883 m 1,0,-1
 688 1352 l 1,1,-1
 944 1352 l 1,2,-1
 944 0 l 1,3,-1
 688 0 l 1,4,-1
 688 4 l 1,5,6
 606 -20 606 -20 504 -20 c 0,7,8
 410 -20 410 -20 331.5 17.5 c 128,-1,9
 253 55 253 55 200.5 119.5 c 128,-1,10
 148 184 148 184 119 269.5 c 128,-1,11
 90 355 90 355 90 451 c 0,12,13
 90 580 90 580 139.5 686.5 c 128,-1,14
 189 793 189 793 285 857.5 c 128,-1,15
 381 922 381 922 504 922 c 0,16,17
 602 922 602 922 688 883 c 1,0,-1
688 401 m 0,18,19
 688 468 688 468 686 518 c 128,-1,20
 684 568 684 568 675 628.5 c 128,-1,21
 666 689 666 689 650 727.5 c 128,-1,22
 634 766 634 766 605 792.5 c 128,-1,23
 576 819 576 819 535 819 c 0,24,25
 493 819 493 819 461 804.5 c 128,-1,26
 429 790 429 790 408.5 761.5 c 128,-1,27
 388 733 388 733 375 701 c 128,-1,28
 362 669 362 669 356 623 c 128,-1,29
 350 577 350 577 348 539 c 128,-1,30
 346 501 346 501 346 451 c 128,-1,31
 346 401 346 401 348 363 c 128,-1,32
 350 325 350 325 356 279 c 128,-1,33
 362 233 362 233 375.5 200.5 c 128,-1,34
 389 168 389 168 409 139.5 c 128,-1,35
 429 111 429 111 461 96.5 c 128,-1,36
 493 82 493 82 535 82 c 0,37,38
 570 82 570 82 595.5 91.5 c 128,-1,39
 621 101 621 101 637.5 122.5 c 128,-1,40
 654 144 654 144 664.5 168.5 c 128,-1,41
 675 193 675 193 680 233 c 128,-1,42
 685 273 685 273 686.5 309.5 c 128,-1,43
 688 346 688 346 688 401 c 0,18,19
EndSplineSet
Validated: 1
EndChar

StartChar: a
Encoding: 97 97 1
Width: 974
VWidth: 0
Flags: W
HStem: -20 102<401 601> 520 102<400 596> 819 102<338 551>
VStem: 94 256<132 467> 602 256<87 518 616 771>
AnchorPoint: "horn" 811 717 basechar 0
AnchorPoint: "cedilla" 483 0 basechar 0
AnchorPoint: "bottom" 473 0 basechar 0
AnchorPoint: "ogonek" 846 0 basechar 0
AnchorPoint: "top" 489 1004 basechar 0
LayerCount: 2
Fore
SplineSet
115 829 m 1,0,1
 293 922 293 922 438 922 c 0,2,3
 531 922 531 922 595 913.5 c 128,-1,4
 659 905 659 905 707.5 881 c 128,-1,5
 756 857 756 857 784 822.5 c 128,-1,6
 812 788 812 788 829.5 727 c 128,-1,7
 847 666 847 666 852.5 594.5 c 128,-1,8
 858 523 858 523 858 414 c 2,9,-1
 858 0 l 1,10,-1
 606 0 l 1,11,12
 553 -20 553 -20 471 -20 c 0,13,14
 297 -20 297 -20 195.5 58.5 c 128,-1,15
 94 137 94 137 94 311 c 0,16,17
 94 382 94 382 118 437.5 c 128,-1,18
 142 493 142 493 179.5 527 c 128,-1,19
 217 561 217 561 268 583.5 c 128,-1,20
 319 606 319 606 368.5 614.5 c 128,-1,21
 418 623 418 623 471 623 c 0,22,23
 528 623 528 623 596 616 c 1,24,25
 587 728 587 728 558 773.5 c 128,-1,26
 529 819 529 819 469 819 c 0,27,28
 361 819 361 819 289 723 c 1,29,-1
 115 829 l 1,0,1
602 98 m 1,30,-1
 602 459 l 1,31,-1
 602 514 l 1,32,33
 553 520 553 520 502 520 c 0,34,35
 435 520 435 520 392.5 467 c 128,-1,36
 350 414 350 414 350 311 c 0,37,38
 350 202 350 202 388.5 142 c 128,-1,39
 427 82 427 82 502 82 c 0,40,41
 556 82 556 82 602 98 c 1,30,-1
EndSplineSet
Validated: 1
EndChar

StartChar: h
Encoding: 104 104 2
Width: 1087
VWidth: 0
Flags: W
HStem: 0 43G<147 403 692 948> 819 102<405 644> 1311 41G<147 403>
VStem: 147 256<0 802 907 1352> 692 256<0 720>
AnchorPoint: "horn" 856 717 basechar 0
AnchorPoint: "ogonek" 860 0 basechar 0
AnchorPoint: "cedilla" 532 0 basechar 0
AnchorPoint: "bottom" 532 0 basechar 0
AnchorPoint: "top" 387 1434 basechar 0
LayerCount: 2
Fore
SplineSet
403 784 m 1,0,-1
 403 0 l 1,1,-1
 147 0 l 1,2,-1
 147 1352 l 1,3,-1
 403 1352 l 1,4,-1
 403 907 l 1,5,6
 472 922 472 922 520 922 c 0,7,8
 736 922 736 922 842 816 c 128,-1,9
 948 710 948 710 948 492 c 2,10,-1
 948 0 l 1,11,-1
 692 0 l 1,12,-1
 692 467 l 2,13,14
 692 608 692 608 676 686 c 128,-1,15
 660 764 660 764 631 791.5 c 128,-1,16
 602 819 602 819 551 819 c 0,17,18
 471 819 471 819 403 784 c 1,0,-1
EndSplineSet
Validated: 1
EndChar

StartChar: e
Encoding: 101 101 3
Width: 1028
VWidth: 0
Flags: W
HStem: -20 102<441 705> 451 102<350 684> 819 102<425 629>
VStem: 90 256<235 451 553 656>
AnchorPoint: "horn" 840 717 basechar 0
AnchorPoint: "cedilla" 569 0 basechar 0
AnchorPoint: "bottom" 539 0 basechar 0
AnchorPoint: "ogonek" 588 0 basechar 0
AnchorPoint: "top" 530 1004 basechar 0
LayerCount: 2
Fore
SplineSet
346 451 m 1,0,1
 346 379 346 379 352 325.5 c 128,-1,2
 358 272 358 272 373.5 224.5 c 128,-1,3
 389 177 389 177 415.5 147 c 128,-1,4
 442 117 442 117 484.5 99.5 c 128,-1,5
 527 82 527 82 584 82 c 0,6,7
 658 82 658 82 692 112.5 c 128,-1,8
 726 143 726 143 737 205 c 1,9,-1
 932 158 l 1,10,11
 867 76 867 76 770.5 28 c 128,-1,12
 674 -20 674 -20 553 -20 c 0,13,14
 351 -20 351 -20 220.5 109.5 c 128,-1,15
 90 239 90 239 90 451 c 0,16,17
 90 555 90 555 127 645 c 128,-1,18
 164 735 164 735 224 794.5 c 128,-1,19
 284 854 284 854 359.5 888 c 128,-1,20
 435 922 435 922 512 922 c 0,21,22
 615 922 615 922 699 880.5 c 128,-1,23
 783 839 783 839 834.5 770.5 c 128,-1,24
 886 702 886 702 914 619.5 c 128,-1,25
 942 537 942 537 942 451 c 1,26,-1
 346 451 l 1,0,1
350 553 m 1,27,-1
 684 553 l 1,28,29
 682 616 682 616 675 660 c 128,-1,30
 668 704 668 704 653 742.5 c 128,-1,31
 638 781 638 781 610.5 800 c 128,-1,32
 583 819 583 819 543 819 c 0,33,34
 450 819 450 819 404.5 751.5 c 128,-1,35
 359 684 359 684 350 553 c 1,27,-1
EndSplineSet
Validated: 1
EndChar

StartChar: n
Encoding: 110 110 4
Width: 1087
VWidth: 0
Flags: W
HStem: 0 43G<147 403 692 948> 819 102<405 644>
VStem: 147 256<0 802> 692 256<0 720>
AnchorPoint: "horn" 856 717 basechar 0
AnchorPoint: "ogonek" 877 0 basechar 0
AnchorPoint: "bottom" 541 0 basechar 0
AnchorPoint: "cedilla" 541 0 basechar 0
AnchorPoint: "top" 549 1004 basechar 0
LayerCount: 2
Fore
SplineSet
385 901 m 1,0,1
 454 922 454 922 520 922 c 0,2,3
 736 922 736 922 842 816 c 128,-1,4
 948 710 948 710 948 492 c 2,5,-1
 948 0 l 1,6,-1
 692 0 l 1,7,-1
 692 467 l 2,8,9
 692 608 692 608 676 686 c 128,-1,10
 660 764 660 764 631 791.5 c 128,-1,11
 602 819 602 819 551 819 c 0,12,13
 471 819 471 819 403 784 c 1,14,-1
 403 0 l 1,15,-1
 147 0 l 1,16,-1
 147 901 l 1,17,-1
 385 901 l 1,0,1
EndSplineSet
Validated: 1
EndChar

StartChar: c
Encoding: 99 99 5
Width: 1017
VWidth: 0
Flags: W
HStem: -20 102<441 694> 819 102<425 635>
VStem: 90 256<235 657>
AnchorPoint: "horn" 840 717 basechar 0
AnchorPoint: "ogonek" 571 0 basechar 0
AnchorPoint: "bottom" 569 0 basechar 0
AnchorPoint: "cedilla" 569 0 basechar 0
AnchorPoint: "top" 532 1004 basechar 0
LayerCount: 2
Fore
SplineSet
688 608 m 1,0,1
 683 628 683 628 674 665.5 c 128,-1,2
 665 703 665 703 660.5 718.5 c 128,-1,3
 656 734 656 734 645.5 758.5 c 128,-1,4
 635 783 635 783 623 793 c 128,-1,5
 611 803 611 803 591 811 c 128,-1,6
 571 819 571 819 543 819 c 0,7,8
 434 819 434 819 390 726 c 128,-1,9
 346 633 346 633 346 451 c 0,10,11
 346 379 346 379 352 325.5 c 128,-1,12
 358 272 358 272 373.5 224.5 c 128,-1,13
 389 177 389 177 415.5 147 c 128,-1,14
 442 117 442 117 484.5 99.5 c 128,-1,15
 527 82 527 82 584 82 c 0,16,17
 606 82 606 82 623 84 c 128,-1,18
 640 86 640 86 654 93.5 c 128,-1,19
 668 101 668 101 677 106 c 128,-1,20
 686 111 686 111 697 125.5 c 128,-1,21
 708 140 708 140 712.5 147 c 128,-1,22
 717 154 717 154 729.5 175 c 128,-1,23
 742 196 742 196 748 205 c 1,24,-1
 932 158 l 1,25,26
 867 76 867 76 770.5 28 c 128,-1,27
 674 -20 674 -20 553 -20 c 0,28,29
 351 -20 351 -20 220.5 109.5 c 128,-1,30
 90 239 90 239 90 451 c 0,31,32
 90 555 90 555 127 645 c 128,-1,33
 164 735 164 735 224 794.5 c 128,-1,34
 284 854 284 854 359.5 888 c 128,-1,35
 435 922 435 922 512 922 c 0,36,37
 646 922 646 922 743 854.5 c 128,-1,38
 840 787 840 787 893 676 c 1,39,-1
 688 608 l 1,0,1
EndSplineSet
Validated: 1
EndChar

StartChar: b
Encoding: 98 98 6
Width: 1079
VWidth: 0
Flags: W
HStem: -20 102<441 662> 819 102<429 664> 1311 41G<139 395>
VStem: 139 256<147 782 897 1352> 737 256<216 685>
AnchorPoint: "ogonek" 545 0 basechar 0
AnchorPoint: "horn" 901 717 basechar 0
AnchorPoint: "cedilla" 545 0 basechar 0
AnchorPoint: "bottom" 551 0 basechar 0
AnchorPoint: "top" 578 1004 basechar 0
LayerCount: 2
Fore
SplineSet
395 745 m 1,0,-1
 395 303 l 2,1,2
 395 233 395 233 405.5 189 c 128,-1,3
 416 145 416 145 441 121.5 c 128,-1,4
 466 98 466 98 497.5 90 c 128,-1,5
 529 82 529 82 580 82 c 0,6,7
 623 82 623 82 655 114.5 c 128,-1,8
 687 147 687 147 704 202 c 128,-1,9
 721 257 721 257 729 319 c 128,-1,10
 737 381 737 381 737 451 c 0,11,12
 737 819 737 819 580 819 c 0,13,14
 466 819 466 819 395 745 c 1,0,-1
395 897 m 1,15,16
 468 922 468 922 549 922 c 0,17,18
 668 922 668 922 756 885 c 128,-1,19
 844 848 844 848 894.5 782 c 128,-1,20
 945 716 945 716 969 633.5 c 128,-1,21
 993 551 993 551 993 451 c 128,-1,22
 993 351 993 351 968.5 268.5 c 128,-1,23
 944 186 944 186 893 120 c 128,-1,24
 842 54 842 54 754.5 17 c 128,-1,25
 667 -20 667 -20 549 -20 c 0,26,27
 481 -20 481 -20 427 -12 c 128,-1,28
 373 -4 373 -4 317 20.5 c 128,-1,29
 261 45 261 45 223.5 86.5 c 128,-1,30
 186 128 186 128 162.5 200 c 128,-1,31
 139 272 139 272 139 369 c 2,32,-1
 139 1352 l 1,33,-1
 395 1352 l 1,34,-1
 395 897 l 1,15,16
EndSplineSet
Validated: 1
EndChar

StartChar: s
Encoding: 115 115 7
Width: 897
VWidth: 0
Flags: W
HStem: -20 102<286 522> 817 104<397 566>
VStem: 125 256<569 808> 559 256<119 365>
AnchorPoint: "horn" 647 793 basechar 0
AnchorPoint: "ogonek" 455 0 basechar 0
AnchorPoint: "bottom" 449 0 basechar 0
AnchorPoint: "cedilla" 449 0 basechar 0
AnchorPoint: "top" 416 1004 basechar 0
LayerCount: 2
Fore
SplineSet
756 795 m 1,0,-1
 604 723 l 1,1,2
 550 817 550 817 457 817 c 0,3,4
 381 817 381 817 381 688 c 0,5,6
 381 629 381 629 408.5 588.5 c 128,-1,7
 436 548 436 548 477 539 c 0,8,9
 635 503 635 503 725 432 c 128,-1,10
 815 361 815 361 815 262 c 0,11,12
 815 121 815 121 710 50.5 c 128,-1,13
 605 -20 605 -20 434 -20 c 0,14,15
 376 -20 376 -20 333 -12.5 c 128,-1,16
 290 -5 290 -5 245 17.5 c 128,-1,17
 200 40 200 40 174.5 57 c 128,-1,18
 149 74 149 74 88 117 c 1,19,-1
 215 201 l 1,20,21
 299 82 299 82 428 82 c 0,22,23
 492 82 492 82 525.5 129.5 c 128,-1,24
 559 177 559 177 559 262 c 0,25,26
 559 299 559 299 542 330 c 128,-1,27
 525 361 525 361 497.5 381.5 c 128,-1,28
 470 402 470 402 443 414.5 c 128,-1,29
 416 427 416 427 389 434 c 0,30,31
 269 465 269 465 197 529.5 c 128,-1,32
 125 594 125 594 125 688 c 0,33,34
 125 781 125 781 203.5 851.5 c 128,-1,35
 282 922 282 922 428 922 c 0,36,37
 527 922 527 922 591.5 894.5 c 128,-1,38
 656 867 656 867 756 795 c 1,0,-1
EndSplineSet
Validated: 1
EndChar

StartChar: i
Encoding: 105 105 8
Width: 499
VWidth: 0
Flags: W
HStem: 0 43G<123 379> 860 41G<123 379> 1065 164<143 358>
VStem: 123 256<0 901> 143 215<1065 1229>
AnchorPoint: "top" 252 1167 basechar 0
AnchorPoint: "horn" 297 717 basechar 0
AnchorPoint: "cedilla" 256 0 basechar 0
AnchorPoint: "bottom" 250 0 basechar 0
AnchorPoint: "ogonek" 326 0 basechar 0
LayerCount: 2
Fore
SplineSet
143 1229 m 1,0,-1
 358 1229 l 1,1,-1
 358 1065 l 1,2,-1
 143 1065 l 1,3,-1
 143 1229 l 1,0,-1
123 901 m 1,4,-1
 379 901 l 1,5,-1
 379 0 l 1,6,-1
 123 0 l 1,7,-1
 123 901 l 1,4,-1
EndSplineSet
Validated: 1
EndChar

StartChar: o
Encoding: 111 111 9
Width: 1056
VWidth: 0
Flags: W
HStem: -20 102<425 644> 819 102<426 643>
VStem: 90 256<214 657> 715 256<223 678>
AnchorPoint: "cedilla" 506 0 basechar 0
AnchorPoint: "horn" 881 635 basechar 0
AnchorPoint: "bottom" 516 0 basechar 0
AnchorPoint: "ogonek" 537 0 basechar 0
AnchorPoint: "top" 535 1004 basechar 0
LayerCount: 2
Fore
SplineSet
715 451 m 0,0,1
 715 537 715 537 707 600.5 c 128,-1,2
 699 664 699 664 680.5 715.5 c 128,-1,3
 662 767 662 767 627.5 793 c 128,-1,4
 593 819 593 819 543 819 c 0,5,6
 435 819 435 819 390.5 725.5 c 128,-1,7
 346 632 346 632 346 451 c 0,8,9
 346 380 346 380 351 326 c 128,-1,10
 356 272 356 272 369.5 224.5 c 128,-1,11
 383 177 383 177 404.5 146.5 c 128,-1,12
 426 116 426 116 461 99 c 128,-1,13
 496 82 496 82 543 82 c 0,14,15
 595 82 595 82 630 108 c 128,-1,16
 665 134 665 134 683 186 c 128,-1,17
 701 238 701 238 708 300.5 c 128,-1,18
 715 363 715 363 715 451 c 0,0,1
971 451 m 128,-1,20
 971 222 971 222 845 101 c 128,-1,21
 719 -20 719 -20 512 -20 c 0,22,23
 314 -20 314 -20 202 107 c 128,-1,24
 90 234 90 234 90 451 c 0,25,26
 90 555 90 555 127 645 c 128,-1,27
 164 735 164 735 224 794.5 c 128,-1,28
 284 854 284 854 359.5 888 c 128,-1,29
 435 922 435 922 512 922 c 0,30,31
 719 922 719 922 845 801 c 128,-1,19
 971 680 971 680 971 451 c 128,-1,20
EndSplineSet
Validated: 1
EndChar

StartChar: t
Encoding: 116 116 10
Width: 657
VWidth: 0
Flags: W
HStem: 0 43G<188 444> 799 102<84 188 444 604>
VStem: 188 256<0 799 901 1198>
AnchorPoint: "horn" 365 1085 basechar 0
AnchorPoint: "ogonek" 324 0 basechar 0
AnchorPoint: "bottom" 309 0 basechar 0
AnchorPoint: "cedilla" 309 0 basechar 0
AnchorPoint: "top" 317 1352 basechar 0
LayerCount: 2
Fore
SplineSet
444 799 m 1,0,-1
 444 0 l 1,1,-1
 188 0 l 1,2,-1
 188 799 l 1,3,-1
 53 799 l 1,4,-1
 84 901 l 1,5,-1
 188 901 l 1,6,-1
 188 1198 l 1,7,-1
 444 1229 l 1,8,-1
 444 901 l 1,9,-1
 604 901 l 1,10,-1
 604 799 l 1,11,-1
 444 799 l 1,0,-1
EndSplineSet
Validated: 1
EndChar

StartChar: m
Encoding: 109 109 11
Width: 1675
VWidth: 0
Flags: W
HStem: 0 43G<147 403 723 979 1280 1536> 819 102<405 663 980 1220>
VStem: 147 256<0 811> 723 256<0 757> 1280 256<0 743>
AnchorPoint: "horn" 1434 717 basechar 0
AnchorPoint: "cedilla" 860 0 basechar 0
AnchorPoint: "ogonek" 1425 0 basechar 0
AnchorPoint: "bottom" 854 0 basechar 0
AnchorPoint: "top" 854 1004 basechar 0
LayerCount: 2
Fore
SplineSet
403 795 m 1,0,-1
 403 0 l 1,1,-1
 147 0 l 1,2,-1
 147 901 l 1,3,-1
 383 901 l 1,4,5
 447 922 447 922 518 922 c 0,6,7
 722 922 722 922 825 836 c 1,8,9
 944 922 944 922 1057 922 c 0,10,11
 1146 922 1146 922 1217 910.5 c 128,-1,12
 1288 899 1288 899 1349 872 c 128,-1,13
 1410 845 1410 845 1450.5 802 c 128,-1,14
 1491 759 1491 759 1513.5 694 c 128,-1,15
 1536 629 1536 629 1536 543 c 2,16,-1
 1536 0 l 1,17,-1
 1280 0 l 1,18,-1
 1280 500 l 2,19,20
 1280 601 1280 601 1269 664.5 c 128,-1,21
 1258 728 1258 728 1232.5 762 c 128,-1,22
 1207 796 1207 796 1174 807.5 c 128,-1,23
 1141 819 1141 819 1087 819 c 0,24,25
 1023 819 1023 819 979 799 c 1,26,-1
 979 0 l 1,27,-1
 723 0 l 1,28,-1
 723 500 l 2,29,30
 723 602 723 602 712 664.5 c 128,-1,31
 701 727 701 727 674.5 761.5 c 128,-1,32
 648 796 648 796 613 807.5 c 128,-1,33
 578 819 578 819 520 819 c 0,34,35
 456 819 456 819 403 795 c 1,0,-1
EndSplineSet
Validated: 1
EndChar

StartChar: f
Encoding: 102 102 12
Width: 589
VWidth: 0
Flags: W
HStem: 0 43G<152 408> 799 102<61 152 408 553> 1270 102<427 569>
VStem: 152 256<0 799 901 1243>
AnchorPoint: "horn" 512 1315 basechar 0
AnchorPoint: "ogonek" 281 0 basechar 0
AnchorPoint: "cedilla" 281 0 basechar 0
AnchorPoint: "bottom" 276 0 basechar 0
AnchorPoint: "top" 340 1434 basechar 0
LayerCount: 2
Fore
SplineSet
555 1239 m 1,0,1
 530 1270 530 1270 483 1270 c 0,2,3
 440 1270 440 1270 424 1223 c 128,-1,4
 408 1176 408 1176 408 1042 c 2,5,-1
 408 901 l 1,6,-1
 553 901 l 1,7,-1
 553 799 l 1,8,-1
 408 799 l 1,9,-1
 408 0 l 1,10,-1
 152 0 l 1,11,-1
 152 799 l 1,12,-1
 31 799 l 1,13,-1
 61 901 l 1,14,-1
 152 901 l 1,15,-1
 152 1096 l 2,16,17
 152 1217 152 1217 239.5 1294.5 c 128,-1,18
 327 1372 327 1372 453 1372 c 0,19,20
 537 1372 537 1372 598 1350 c 1,21,-1
 555 1239 l 1,0,1
EndSplineSet
Validated: 1
EndChar

StartChar: j
Encoding: 106 106 13
Width: 598
VWidth: 0
Flags: W
HStem: -348 102<-3 200> 860 41G<221 477> 1065 164<242 457>
VStem: 221 256<-204 901> 242 215<1065 1229>
AnchorPoint: "cedilla" 139 -348 basechar 0
AnchorPoint: "ogonek" 287 -266 basechar 0
AnchorPoint: "horn" 389 717 basechar 0
AnchorPoint: "top" 354 1167 basechar 0
AnchorPoint: "bottom" 129 -348 basechar 0
LayerCount: 2
Fore
SplineSet
33 -195 m 1,0,1
 69 -246 69 -246 141 -246 c 0,2,3
 168 -246 168 -246 184.5 -232.5 c 128,-1,4
 201 -219 201 -219 209 -184.5 c 128,-1,5
 217 -150 217 -150 219 -111 c 128,-1,6
 221 -72 221 -72 221 0 c 2,7,-1
 221 901 l 1,8,-1
 477 901 l 1,9,-1
 477 -68 l 2,10,11
 477 -140 477 -140 440.5 -196.5 c 128,-1,12
 404 -253 404 -253 347 -284.5 c 128,-1,13
 290 -316 290 -316 229.5 -332 c 128,-1,14
 169 -348 169 -348 111 -348 c 0,15,16
 -19 -348 -19 -348 -96 -256 c 1,17,-1
 33 -195 l 1,0,1
242 1229 m 1,18,-1
 457 1229 l 1,19,-1
 457 1065 l 1,20,-1
 242 1065 l 1,21,-1
 242 1229 l 1,18,-1
EndSplineSet
Validated: 1
EndChar

StartChar: l
Encoding: 108 108 15
Width: 548
VWidth: 0
Flags: W
HStem: 0 43G<147 403> 1311 41G<147 403>
VStem: 147 256<0 1352>
AnchorPoint: "horn" 311 1085 basechar 0
AnchorPoint: "ogonek" 279 0 basechar 0
AnchorPoint: "bottom" 272 0 basechar 0
AnchorPoint: "cedilla" 268 0 basechar 0
AnchorPoint: "top" 274 1434 basechar 0
LayerCount: 2
Fore
SplineSet
403 1352 m 25,0,-1
 403 0 l 1,1,-1
 147 0 l 1,2,-1
 147 1352 l 1,3,-1
 403 1352 l 25,0,-1
EndSplineSet
Validated: 1
EndChar

StartChar: p
Encoding: 112 112 16
Width: 1087
VWidth: 0
Flags: W
HStem: -16 102<478 663> 823 102<468 674>
VStem: 147 256<-410 8 181 757> 745 256<253 665>
AnchorPoint: "horn" 885 717 basechar 0
AnchorPoint: "ogonek" 561 0 basechar 0
AnchorPoint: "cedilla" 561 0 basechar 0
AnchorPoint: "bottom" 598 0 basechar 0
AnchorPoint: "top" 582 1004 basechar 0
LayerCount: 2
Fore
SplineSet
403 8 m 1,0,-1
 403 -410 l 1,1,-1
 147 -410 l 1,2,-1
 147 905 l 1,3,-1
 401 905 l 1,4,5
 474 926 474 926 567 926 c 0,6,7
 692 926 692 926 792 861.5 c 128,-1,8
 892 797 892 797 946.5 690 c 128,-1,9
 1001 583 1001 583 1001 455 c 0,10,11
 1001 262 1001 262 868.5 123 c 128,-1,12
 736 -16 736 -16 547 -16 c 0,13,14
 467 -16 467 -16 403 8 c 1,0,-1
403 504 m 0,15,16
 403 458 403 458 404 421 c 128,-1,17
 405 384 405 384 409.5 339 c 128,-1,18
 414 294 414 294 421.5 260 c 128,-1,19
 429 226 429 226 442 192 c 128,-1,20
 455 158 455 158 473 135.5 c 128,-1,21
 491 113 491 113 518 99.5 c 128,-1,22
 545 86 545 86 578 86 c 0,23,24
 624 86 624 86 657.5 118.5 c 128,-1,25
 691 151 691 151 709.5 206 c 128,-1,26
 728 261 728 261 736.5 323 c 128,-1,27
 745 385 745 385 745 455 c 0,28,29
 745 527 745 527 738.5 587 c 128,-1,30
 732 647 732 647 716.5 703 c 128,-1,31
 701 759 701 759 671 791 c 128,-1,32
 641 823 641 823 598 823 c 0,33,34
 548 823 548 823 512.5 808 c 128,-1,35
 477 793 477 793 456 768 c 128,-1,36
 435 743 435 743 423 700.5 c 128,-1,37
 411 658 411 658 407 613.5 c 128,-1,38
 403 569 403 569 403 504 c 0,15,16
EndSplineSet
Validated: 1
EndChar

StartChar: q
Encoding: 113 113 17
Width: 1089
VWidth: 0
Flags: W
HStem: -20 102<419 623> 819 102<418 650>
VStem: 90 256<216 685> 688 256<-410 4 152 754>
AnchorPoint: "horn" 877 717 basechar 0
AnchorPoint: "ogonek" 487 0 basechar 0
AnchorPoint: "cedilla" 487 0 basechar 0
AnchorPoint: "bottom" 487 0 basechar 0
AnchorPoint: "top" 522 1004 basechar 0
LayerCount: 2
Fore
SplineSet
688 4 m 1,0,1
 618 -20 618 -20 535 -20 c 0,2,3
 416 -20 416 -20 328 17 c 128,-1,4
 240 54 240 54 189 120 c 128,-1,5
 138 186 138 186 114 268.5 c 128,-1,6
 90 351 90 351 90 451 c 128,-1,7
 90 551 90 551 114.5 633.5 c 128,-1,8
 139 716 139 716 190.5 782 c 128,-1,9
 242 848 242 848 329.5 885 c 128,-1,10
 417 922 417 922 535 922 c 0,11,12
 603 922 603 922 657 914 c 128,-1,13
 711 906 711 906 767 881 c 128,-1,14
 823 856 823 856 860 814.5 c 128,-1,15
 897 773 897 773 920.5 701 c 128,-1,16
 944 629 944 629 944 532 c 2,17,-1
 944 -410 l 1,18,-1
 688 -410 l 1,19,-1
 688 4 l 1,0,1
688 430 m 2,20,-1
 688 598 l 2,21,22
 688 692 688 692 670 739.5 c 128,-1,23
 652 787 652 787 615 803 c 128,-1,24
 578 819 578 819 504 819 c 0,25,26
 455 819 455 819 422 787.5 c 128,-1,27
 389 756 389 756 373.5 698.5 c 128,-1,28
 358 641 358 641 352 583.5 c 128,-1,29
 346 526 346 526 346 451 c 0,30,31
 346 82 346 82 504 82 c 0,32,33
 545 82 545 82 576.5 94 c 128,-1,34
 608 106 608 106 627.5 131 c 128,-1,35
 647 156 647 156 659.5 184.5 c 128,-1,36
 672 213 672 213 678 256.5 c 128,-1,37
 684 300 684 300 686 338 c 128,-1,38
 688 376 688 376 688 430 c 2,20,-1
EndSplineSet
Validated: 1
EndChar

StartChar: r
Encoding: 114 114 18
Width: 770
VWidth: 0
Flags: W
HStem: 0 43G<147 403> 819 102<448 739> 860 41G<147 403>
VStem: 147 256<0 774 874 901>
AnchorPoint: "horn" 647 856 basechar 0
AnchorPoint: "ogonek" 291 0 basechar 0
AnchorPoint: "bottom" 285 0 basechar 0
AnchorPoint: "cedilla" 270 0 basechar 0
AnchorPoint: "top" 397 1004 basechar 0
LayerCount: 2
Fore
SplineSet
764 741 m 1,0,1
 723 819 723 819 590 819 c 0,2,3
 529 819 529 819 486 798 c 128,-1,4
 443 777 443 777 403 735 c 1,5,-1
 403 0 l 1,6,-1
 147 0 l 1,7,-1
 147 901 l 1,8,-1
 403 901 l 1,9,-1
 403 874 l 1,10,11
 482 922 482 922 575 922 c 0,12,13
 682 922 682 922 764 893 c 1,14,-1
 764 741 l 1,0,1
EndSplineSet
Validated: 1
EndChar

StartChar: u
Encoding: 117 117 19
Width: 1067
VWidth: 0
Flags: W
HStem: -20 102<450 687> 860 41G<143 399 688 944>
VStem: 143 256<163 901> 688 256<91 901>
AnchorPoint: "cedilla" 522 0 basechar 0
AnchorPoint: "horn" 944 635 basechar 0
AnchorPoint: "bottom" 532 0 basechar 0
AnchorPoint: "ogonek" 936 0 basechar 0
AnchorPoint: "top" 549 1004 basechar 0
LayerCount: 2
Fore
SplineSet
688 106 m 1,0,-1
 688 901 l 1,1,-1
 944 901 l 1,2,-1
 944 0 l 1,3,-1
 690 0 l 1,4,5
 617 -20 617 -20 541 -20 c 0,6,7
 329 -20 329 -20 236 84 c 128,-1,8
 143 188 143 188 143 410 c 2,9,-1
 143 901 l 1,10,-1
 399 901 l 1,11,-1
 399 434 l 2,12,13
 399 285 399 285 412.5 213 c 128,-1,14
 426 141 426 141 461.5 111.5 c 128,-1,15
 497 82 497 82 571 82 c 0,16,17
 636 82 636 82 688 106 c 1,0,-1
EndSplineSet
Validated: 1
EndChar

StartChar: g
Encoding: 103 103 20
Width: 1038
VWidth: 0
Flags: W
HStem: -348 102<362 595> -20 102<436 635> 819 102<423 633> 860 41G<637 893>
VStem: 90 256<223 675> 637 256<-196 -8 84 801 893 901>
AnchorPoint: "horn" 844 717 basechar 0
AnchorPoint: "cedilla" 496 -319 basechar 0
AnchorPoint: "ogonek" 639 -299 basechar 0
AnchorPoint: "bottom" 492 -330 basechar 0
AnchorPoint: "top" 506 1004 basechar 0
LayerCount: 2
Fore
SplineSet
893 901 m 1,0,-1
 893 160 l 2,1,2
 893 51 893 51 887.5 -20.5 c 128,-1,3
 882 -92 882 -92 864.5 -153 c 128,-1,4
 847 -214 847 -214 819 -248.5 c 128,-1,5
 791 -283 791 -283 742.5 -307 c 128,-1,6
 694 -331 694 -331 630 -339.5 c 128,-1,7
 566 -348 566 -348 473 -348 c 0,8,9
 326 -348 326 -348 150 -256 c 1,10,-1
 303 -150 l 1,11,12
 391 -246 391 -246 504 -246 c 0,13,14
 571 -246 571 -246 600 -193 c 128,-1,15
 629 -140 629 -140 635 -8 c 1,16,17
 582 -20 582 -20 522 -20 c 0,18,19
 323 -20 323 -20 206.5 107.5 c 128,-1,20
 90 235 90 235 90 451 c 0,21,22
 90 659 90 659 205.5 790.5 c 128,-1,23
 321 922 321 922 481 922 c 0,24,25
 561 922 561 922 637 893 c 1,26,-1
 637 901 l 1,27,-1
 893 901 l 1,0,-1
637 772 m 1,28,29
 584 819 584 819 512 819 c 0,30,31
 430 819 430 819 388 721.5 c 128,-1,32
 346 624 346 624 346 451 c 0,33,34
 346 82 346 82 553 82 c 0,35,36
 599 82 599 82 637 94 c 1,37,-1
 637 115 l 1,38,-1
 637 772 l 1,28,29
EndSplineSet
Validated: 1
EndChar

StartChar: v
Encoding: 118 118 21
Width: 849
VWidth: 0
Flags: W
HStem: 0 43G<331 525> 860 41G<18 254 659 838>
AnchorPoint: "horn" 729 717 basechar 0
AnchorPoint: "ogonek" 418 0 basechar 0
AnchorPoint: "cedilla" 418 0 basechar 0
AnchorPoint: "bottom" 424 0 basechar 0
AnchorPoint: "top" 432 1004 basechar 0
LayerCount: 2
Fore
SplineSet
457 303 m 1,0,-1
 674 901 l 1,1,-1
 838 901 l 1,2,-1
 510 0 l 1,3,-1
 346 0 l 1,4,-1
 18 901 l 1,5,-1
 240 901 l 1,6,-1
 457 303 l 1,0,-1
EndSplineSet
Validated: 1
EndChar

StartChar: w
Encoding: 119 119 22
Width: 1472
VWidth: 0
Flags: W
HStem: 0 43G<341 535 939 1133> 860 41G<29 265 669 863 1267 1446>
AnchorPoint: "horn" 1329 717 basechar 0
AnchorPoint: "ogonek" 1110 0 basechar 0
AnchorPoint: "cedilla" 766 0 basechar 0
AnchorPoint: "bottom" 766 0 basechar 0
AnchorPoint: "top" 760 1004 basechar 0
LayerCount: 2
Fore
SplineSet
467 303 m 1,0,-1
 684 901 l 1,1,-1
 848 901 l 1,2,-1
 1065 305 l 1,3,-1
 1282 901 l 1,4,-1
 1446 901 l 1,5,-1
 1118 0 l 1,6,-1
 954 0 l 1,7,-1
 737 596 l 1,8,-1
 520 0 l 1,9,-1
 356 0 l 1,10,-1
 29 901 l 1,11,-1
 250 901 l 1,12,-1
 467 303 l 1,0,-1
EndSplineSet
Validated: 1
EndChar

StartChar: x
Encoding: 120 120 23
Width: 854
VWidth: 0
Flags: W
HStem: 0 43G<8 213 573 850> 860 41G<14 289 569 772>
AnchorPoint: "horn" 614 717 basechar 0
AnchorPoint: "ogonek" 750 0 basechar 0
AnchorPoint: "cedilla" 418 0 basechar 0
AnchorPoint: "bottom" 416 0 basechar 0
AnchorPoint: "top" 422 1004 basechar 0
LayerCount: 2
Fore
SplineSet
305 455 m 1,0,-1
 14 901 l 1,1,-1
 262 901 l 1,2,-1
 430 645 l 1,3,-1
 596 901 l 1,4,-1
 772 901 l 1,5,-1
 518 510 l 1,6,-1
 850 0 l 1,7,-1
 600 0 l 1,8,-1
 393 317 l 1,9,-1
 186 0 l 1,10,-1
 8 0 l 1,11,-1
 305 455 l 1,0,-1
EndSplineSet
Validated: 1
EndChar

StartChar: y
Encoding: 121 121 24
Width: 923
VWidth: 0
Flags: W
HStem: -348 102<211 326> 860 41G<88 324 729 907>
AnchorPoint: "horn" 762 717 basechar 0
AnchorPoint: "cedilla" 242 -328 basechar 0
AnchorPoint: "bottom" 365 -315 basechar 0
AnchorPoint: "ogonek" 614 0 basechar 0
AnchorPoint: "top" 514 1004 basechar 0
LayerCount: 2
Fore
SplineSet
244 -348 m 0,0,1
 173 -348 173 -348 98.5 -305.5 c 128,-1,2
 24 -263 24 -263 -10 -180 c 1,3,-1
 186 -152 l 1,4,5
 202 -201 202 -201 227 -223.5 c 128,-1,6
 252 -246 252 -246 274 -246 c 0,7,8
 325 -246 325 -246 399 -45 c 1,9,-1
 416 0 l 1,10,-1
 88 901 l 1,11,-1
 309 901 l 1,12,-1
 526 305 l 1,13,-1
 743 901 l 1,14,-1
 907 901 l 1,15,-1
 561 -49 l 2,16,17
 507 -197 507 -197 432 -272.5 c 128,-1,18
 357 -348 357 -348 244 -348 c 0,0,1
EndSplineSet
Validated: 1
EndChar

StartChar: k
Encoding: 107 107 25
Width: 980
VWidth: 0
Flags: W
HStem: 0 43G<147 403 664 913> 860 41G<611 877> 1311 41G<147 403>
VStem: 147 256<0 371 627 1352>
AnchorPoint: "horn" 668 717 basechar 0
AnchorPoint: "ogonek" 819 0 basechar 0
AnchorPoint: "bottom" 508 0 basechar 0
AnchorPoint: "cedilla" 508 0 basechar 0
AnchorPoint: "top" 387 1434 basechar 0
LayerCount: 2
Fore
SplineSet
403 627 m 1,0,-1
 647 901 l 1,1,-1
 877 901 l 1,2,-1
 520 502 l 1,3,-1
 913 0 l 1,4,-1
 696 0 l 1,5,-1
 403 371 l 1,6,-1
 403 0 l 1,7,-1
 147 0 l 1,8,-1
 147 1352 l 1,9,-1
 403 1352 l 1,10,-1
 403 627 l 1,0,-1
EndSplineSet
Validated: 1
EndChar

StartChar: z
Encoding: 122 122 26
Width: 860
VWidth: 0
Flags: W
HStem: 0 102<352 823> 799 102<74 520>
AnchorPoint: "horn" 651 717 basechar 0
AnchorPoint: "ogonek" 717 0 basechar 0
AnchorPoint: "cedilla" 442 0 basechar 0
AnchorPoint: "bottom" 442 0 basechar 0
AnchorPoint: "top" 438 1004 basechar 0
LayerCount: 2
Fore
SplineSet
520 799 m 1,0,-1
 43 799 l 1,1,-1
 74 901 l 1,2,-1
 817 901 l 1,3,-1
 352 102 l 1,4,-1
 823 102 l 1,5,-1
 823 0 l 1,6,-1
 53 0 l 1,7,-1
 520 799 l 1,0,-1
EndSplineSet
Validated: 1
EndChar

StartChar: A
Encoding: 65 65 27
Width: 1298
VWidth: 0
Flags: W
HStem: 0 43G<39 289 1013 1264> 410 102<461 842> 1393 41G<546 756>
AnchorPoint: "horn" 819 1085 basechar 0
AnchorPoint: "cedilla" 631 0 basechar 0
AnchorPoint: "bottom" 653 0 basechar 0
AnchorPoint: "ogonek" 1100 0 basechar 0
AnchorPoint: "top" 651 1434 basechar 0
LayerCount: 2
Fore
SplineSet
741 1434 m 1,0,-1
 1264 0 l 1,1,-1
 1028 0 l 1,2,-1
 879 410 l 1,3,-1
 424 410 l 5,4,-1
 274 0 l 5,5,-1
 39 0 l 5,6,-1
 561 1434 l 5,7,-1
 741 1434 l 1,0,-1
651 1034 m 5,8,-1
 461 512 l 5,9,-1
 842 512 l 1,10,-1
 651 1034 l 5,8,-1
EndSplineSet
Validated: 1
EndChar

StartChar: B
Encoding: 66 66 28
Width: 1116
VWidth: 0
Flags: W
HStem: 0 102<440 656> 727 102<440 574> 1331 102<440 601>
VStem: 174 266<102 727 829 1331> 686 266<944 1243> 772 266<216 579>
AnchorPoint: "horn" 893 1085 basechar 0
AnchorPoint: "ogonek" 524 0 basechar 0
AnchorPoint: "cedilla" 524 0 basechar 0
AnchorPoint: "bottom" 563 0 basechar 0
AnchorPoint: "top" 502 1434 basechar 0
LayerCount: 2
Fore
SplineSet
440 727 m 1,0,-1
 440 102 l 1,1,-1
 522 102 l 2,2,3
 644 102 644 102 708 185.5 c 128,-1,4
 772 269 772 269 772 387 c 0,5,6
 772 464 772 464 747 539 c 128,-1,7
 722 614 722 614 663 670.5 c 128,-1,8
 604 727 604 727 522 727 c 2,9,-1
 440 727 l 1,0,-1
780 795 m 1,10,11
 908 743 908 743 973 629.5 c 128,-1,12
 1038 516 1038 516 1038 387 c 0,13,14
 1038 308 1038 308 1012 240 c 128,-1,15
 986 172 986 172 933 117 c 128,-1,16
 880 62 880 62 790.5 31 c 128,-1,17
 701 0 701 0 584 0 c 2,18,-1
 174 0 l 1,19,-1
 174 1434 l 1,20,-1
 543 1434 l 2,21,22
 638 1434 638 1434 711 1414.5 c 128,-1,23
 784 1395 784 1395 829 1362.5 c 128,-1,24
 874 1330 874 1330 902 1283 c 128,-1,25
 930 1236 930 1236 941 1186 c 128,-1,26
 952 1136 952 1136 952 1075 c 0,27,28
 952 1010 952 1010 910.5 929.5 c 128,-1,29
 869 849 869 849 780 795 c 1,10,11
440 1331 m 1,30,-1
 440 829 l 1,31,32
 501 830 501 830 550.5 857 c 128,-1,33
 600 884 600 884 628 923.5 c 128,-1,34
 656 963 656 963 671 1003 c 128,-1,35
 686 1043 686 1043 686 1075 c 0,36,37
 686 1103 686 1103 681.5 1132.5 c 128,-1,38
 677 1162 677 1162 663.5 1199 c 128,-1,39
 650 1236 650 1236 628.5 1264 c 128,-1,40
 607 1292 607 1292 569 1311.5 c 128,-1,41
 531 1331 531 1331 481 1331 c 2,42,-1
 440 1331 l 1,30,-1
EndSplineSet
Validated: 1
EndChar

StartChar: P
Encoding: 80 80 29
Width: 1089
VWidth: 0
Flags: W
HStem: 0 43G<174 440> 655 102<440 665> 1331 102<440 665>
VStem: 174 266<0 655 758 1331> 772 266<872 1217>
AnchorPoint: "horn" 987 1085 basechar 0
AnchorPoint: "ogonek" 299 0 basechar 0
AnchorPoint: "cedilla" 299 0 basechar 0
AnchorPoint: "bottom" 496 0 basechar 0
AnchorPoint: "top" 561 1434 basechar 0
LayerCount: 2
Fore
SplineSet
440 655 m 1,0,-1
 440 0 l 1,1,-1
 174 0 l 1,2,-1
 174 1434 l 1,3,-1
 594 1434 l 2,4,5
 688 1434 688 1434 765.5 1409 c 128,-1,6
 843 1384 843 1384 892.5 1344 c 128,-1,7
 942 1304 942 1304 976 1252 c 128,-1,8
 1010 1200 1010 1200 1024 1148 c 128,-1,9
 1038 1096 1038 1096 1038 1044 c 128,-1,10
 1038 992 1038 992 1023.5 940 c 128,-1,11
 1009 888 1009 888 974.5 836 c 128,-1,12
 940 784 940 784 890.5 744.5 c 128,-1,13
 841 705 841 705 764 680 c 128,-1,14
 687 655 687 655 594 655 c 2,15,-1
 440 655 l 1,0,-1
440 1331 m 1,16,-1
 440 758 l 1,17,-1
 532 758 l 2,18,19
 594 758 594 758 642.5 785 c 128,-1,20
 691 812 691 812 718 855.5 c 128,-1,21
 745 899 745 899 758.5 947 c 128,-1,22
 772 995 772 995 772 1044 c 0,23,24
 772 1083 772 1083 764 1121.5 c 128,-1,25
 756 1160 756 1160 737.5 1198 c 128,-1,26
 719 1236 719 1236 692 1265.5 c 128,-1,27
 665 1295 665 1295 623.5 1313 c 128,-1,28
 582 1331 582 1331 532 1331 c 2,29,-1
 440 1331 l 1,16,-1
EndSplineSet
Validated: 1
EndChar

StartChar: C
Encoding: 67 67 30
Width: 1331
VWidth: 0
Flags: W
HStem: -20 102<614 939> 1352 102<571 902>
VStem: 102 266<441 1012>
AnchorPoint: "horn" 1143 1282 basechar 0
AnchorPoint: "ogonek" 741 0 basechar 0
AnchorPoint: "bottom" 758 0 basechar 0
AnchorPoint: "cedilla" 758 0 basechar 0
AnchorPoint: "top" 717 1434 basechar 0
LayerCount: 2
Fore
SplineSet
1249 209 m 1,0,1
 1169 106 1169 106 1035.5 43 c 128,-1,2
 902 -20 902 -20 741 -20 c 0,3,4
 659 -20 659 -20 572.5 7 c 128,-1,5
 486 34 486 34 401 93 c 128,-1,6
 316 152 316 152 250 235.5 c 128,-1,7
 184 319 184 319 143 444.5 c 128,-1,8
 102 570 102 570 102 717 c 0,9,10
 102 865 102 865 139 989.5 c 128,-1,11
 176 1114 176 1114 236 1198 c 128,-1,12
 296 1282 296 1282 375 1341 c 128,-1,13
 454 1400 454 1400 536.5 1427 c 128,-1,14
 619 1454 619 1454 702 1454 c 0,15,16
 1075 1454 1075 1454 1243 1245 c 1,17,-1
 1018 1178 l 1,18,19
 962 1258 962 1258 937 1281 c 1,20,21
 861 1350 861 1350 733 1352 c 1,22,23
 369 1352 369 1352 369 717 c 0,24,25
 369 586 369 586 392.5 478 c 128,-1,26
 416 370 416 370 455 298 c 128,-1,27
 494 226 494 226 546 176 c 128,-1,28
 598 126 598 126 655 104 c 128,-1,29
 712 82 712 82 772 82 c 0,30,31
 830 82 830 82 871.5 92.5 c 128,-1,32
 913 103 913 103 946.5 130 c 128,-1,33
 980 157 980 157 1002 185 c 128,-1,34
 1024 213 1024 213 1057 264 c 1,35,-1
 1249 209 l 1,0,1
EndSplineSet
Validated: 1
EndChar

StartChar: D
Encoding: 68 68 31
Width: 1304
VWidth: 0
Flags: W
HStem: 0 102<440 741> 1331 102<440 755>
VStem: 174 266<102 1331> 938 266<394 1073>
AnchorPoint: "cedilla" 549 0 basechar 0
AnchorPoint: "ogonek" 549 0 basechar 0
AnchorPoint: "horn" 1102 1085 basechar 0
AnchorPoint: "bottom" 594 0 basechar 0
AnchorPoint: "top" 582 1434 basechar 0
LayerCount: 2
Fore
SplineSet
670 0 m 2,0,-1
 174 0 l 1,1,-1
 174 1434 l 1,2,-1
 670 1434 l 2,3,4
 1204 1434 1204 1434 1204 737 c 0,5,6
 1204 376 1204 376 1061.5 188 c 128,-1,7
 919 0 919 0 670 0 c 2,0,-1
440 1331 m 1,8,-1
 440 102 l 1,9,-1
 608 102 l 2,10,11
 675 102 675 102 733 138.5 c 128,-1,12
 791 175 791 175 838 249 c 128,-1,13
 885 323 885 323 911.5 448.5 c 128,-1,14
 938 574 938 574 938 737 c 0,15,16
 938 868 938 868 920 971.5 c 128,-1,17
 902 1075 902 1075 872 1141.5 c 128,-1,18
 842 1208 842 1208 799 1251.5 c 128,-1,19
 756 1295 756 1295 709 1313 c 128,-1,20
 662 1331 662 1331 608 1331 c 2,21,-1
 440 1331 l 1,8,-1
EndSplineSet
Validated: 1
EndChar

StartChar: E
Encoding: 69 69 32
Width: 1118
VWidth: 0
Flags: W
HStem: 0 102<440 1034> 799 102<440 817> 1331 102<440 1001>
VStem: 174 266<102 799 901 1331>
AnchorPoint: "horn" 942 1384 basechar 0
AnchorPoint: "cedilla" 641 0 basechar 0
AnchorPoint: "bottom" 629 0 basechar 0
AnchorPoint: "ogonek" 846 0 basechar 0
AnchorPoint: "top" 614 1434 basechar 0
LayerCount: 2
Fore
SplineSet
1034 0 m 1,0,-1
 174 0 l 1,1,-1
 174 1434 l 1,2,-1
 1001 1434 l 1,3,-1
 1001 1331 l 1,4,-1
 440 1331 l 1,5,-1
 440 901 l 1,6,-1
 817 901 l 1,7,-1
 817 799 l 1,8,-1
 440 799 l 1,9,-1
 440 102 l 1,10,-1
 1034 102 l 1,11,-1
 1034 0 l 1,0,-1
EndSplineSet
Validated: 1
EndChar

StartChar: F
Encoding: 70 70 33
Width: 1067
VWidth: 0
Flags: W
HStem: 0 43G<174 440> 799 102<440 817> 1331 102<440 1001>
VStem: 174 266<0 799 901 1331>
AnchorPoint: "horn" 954 1384 basechar 0
AnchorPoint: "ogonek" 305 0 basechar 0
AnchorPoint: "cedilla" 305 0 basechar 0
AnchorPoint: "bottom" 410 0 basechar 0
AnchorPoint: "top" 604 1434 basechar 0
LayerCount: 2
Fore
SplineSet
174 0 m 1,0,-1
 174 1434 l 1,1,-1
 1001 1434 l 1,2,-1
 1001 1331 l 1,3,-1
 440 1331 l 1,4,-1
 440 901 l 1,5,-1
 817 901 l 1,6,-1
 817 799 l 1,7,-1
 440 799 l 1,8,-1
 440 0 l 1,9,-1
 174 0 l 1,0,-1
EndSplineSet
Validated: 1
EndChar

StartChar: G
Encoding: 71 71 34
Width: 1372
VWidth: 0
Flags: W
HStem: -20 102<614 974> 717 102<821 993> 1331 102<564 915>
VStem: 102 266<441 1009> 993 256<161 717>
AnchorPoint: "horn" 1143 1282 basechar 0
AnchorPoint: "ogonek" 737 0 basechar 0
AnchorPoint: "bottom" 758 0 basechar 0
AnchorPoint: "cedilla" 758 0 basechar 0
AnchorPoint: "top" 717 1434 basechar 0
LayerCount: 2
Fore
SplineSet
821 819 m 1,0,-1
 1249 819 l 1,1,-1
 1249 209 l 1,2,3
 1169 106 1169 106 1035.5 43 c 128,-1,4
 902 -20 902 -20 741 -20 c 0,5,6
 659 -20 659 -20 572.5 7 c 128,-1,7
 486 34 486 34 401 93 c 128,-1,8
 316 152 316 152 250 235.5 c 128,-1,9
 184 319 184 319 143 444.5 c 128,-1,10
 102 570 102 570 102 717 c 0,11,12
 102 865 102 865 139 987.5 c 128,-1,13
 176 1110 176 1110 236 1191 c 128,-1,14
 296 1272 296 1272 375 1328 c 128,-1,15
 454 1384 454 1384 536.5 1409 c 128,-1,16
 619 1434 619 1434 702 1434 c 0,17,18
 1091 1434 1091 1434 1243 1245 c 1,19,-1
 1018 1178 l 1,20,21
 987 1222 987 1222 968 1244 c 128,-1,22
 949 1266 949 1266 916 1289.5 c 128,-1,23
 883 1313 883 1313 839.5 1322 c 128,-1,24
 796 1331 796 1331 733 1331 c 0,25,26
 551 1331 551 1331 460 1182.5 c 128,-1,27
 369 1034 369 1034 369 717 c 0,28,29
 369 586 369 586 392.5 478 c 128,-1,30
 416 370 416 370 455 298 c 128,-1,31
 494 226 494 226 546 176 c 128,-1,32
 598 126 598 126 655 104 c 128,-1,33
 712 82 712 82 772 82 c 0,34,35
 898 82 898 82 993 135 c 1,36,-1
 993 717 l 1,37,-1
 821 717 l 1,38,-1
 821 819 l 1,0,-1
EndSplineSet
Validated: 1
EndChar

StartChar: H
Encoding: 72 72 35
Width: 1351
VWidth: 0
Flags: W
HStem: 0 43G<174 440 915 1182> 717 102<440 915> 1393 41G<174 440 915 1182>
VStem: 174 266<0 717 819 1434> 915 266<0 717 819 1434>
AnchorPoint: "horn" 1130 1085 basechar 0
AnchorPoint: "ogonek" 1102 0 basechar 0
AnchorPoint: "cedilla" 651 0 basechar 0
AnchorPoint: "bottom" 674 0 basechar 0
AnchorPoint: "top" 686 1434 basechar 0
LayerCount: 2
Fore
SplineSet
440 1434 m 1,0,-1
 440 819 l 1,1,-1
 915 819 l 1,2,-1
 915 1434 l 1,3,-1
 1182 1434 l 1,4,-1
 1182 0 l 1,5,-1
 915 0 l 1,6,-1
 915 717 l 1,7,-1
 440 717 l 1,8,-1
 440 0 l 1,9,-1
 174 0 l 1,10,-1
 174 1434 l 1,11,-1
 440 1434 l 1,0,-1
EndSplineSet
Validated: 1
EndChar

StartChar: I
Encoding: 73 73 36
Width: 606
VWidth: 0
Flags: W
HStem: 0 43G<172 438> 1393 41G<172 438>
VStem: 172 266<0 1434>
AnchorPoint: "horn" 338 1085 basechar 0
AnchorPoint: "cedilla" 317 0 basechar 0
AnchorPoint: "bottom" 299 0 basechar 0
AnchorPoint: "ogonek" 283 0 basechar 0
AnchorPoint: "top" 309 1434 basechar 0
LayerCount: 2
Fore
SplineSet
438 1434 m 25,0,-1
 438 0 l 1,1,-1
 172 0 l 1,2,-1
 172 1434 l 1,3,-1
 438 1434 l 25,0,-1
EndSplineSet
Validated: 1
EndChar

StartChar: J
Encoding: 74 74 37
Width: 954
VWidth: 0
Flags: W
HStem: -20 102<272 468> 1393 41G<522 788>
VStem: 522 266<137 1434>
AnchorPoint: "cedilla" 401 0 basechar 0
AnchorPoint: "ogonek" 401 0 basechar 0
AnchorPoint: "horn" 733 1085 basechar 0
AnchorPoint: "bottom" 383 0 basechar 0
AnchorPoint: "top" 659 1434 basechar 0
LayerCount: 2
Fore
SplineSet
788 487 m 18,0,1
 788 379 788 379 781.5 306.5 c 128,-1,2
 775 234 775 234 756.5 174 c 128,-1,3
 738 114 738 114 709 79.5 c 128,-1,4
 680 45 680 45 630 21 c 128,-1,5
 580 -3 580 -3 516 -11.5 c 128,-1,6
 452 -20 452 -20 358 -20 c 0,7,8
 211 -20 211 -20 35 72 c 1,9,-1
 209 178 l 1,10,11
 255 129 255 129 305 105.5 c 128,-1,12
 355 82 355 82 389 82 c 0,13,14
 457 82 457 82 489.5 163.5 c 128,-1,15
 522 245 522 245 522 442 c 2,16,-1
 522 1434 l 1,17,-1
 788 1434 l 1,18,-1
 788 487 l 18,0,1
EndSplineSet
Validated: 1
EndChar

StartChar: K
Encoding: 75 75 38
Width: 1243
VWidth: 0
Flags: W
HStem: 0 43G<174 440 977 1233> 1393 41G<174 440 936 1208>
VStem: 174 266<0 573 836 1434>
AnchorPoint: "horn" 1032 1352 basechar 0
AnchorPoint: "ogonek" 1135 0 basechar 0
AnchorPoint: "bottom" 635 0 basechar 0
AnchorPoint: "cedilla" 655 0 basechar 0
AnchorPoint: "top" 483 1434 basechar 0
LayerCount: 2
Fore
SplineSet
440 573 m 1,0,-1
 440 0 l 1,1,-1
 174 0 l 1,2,-1
 174 1434 l 1,3,-1
 440 1434 l 1,4,-1
 440 836 l 1,5,-1
 973 1434 l 1,6,-1
 1208 1434 l 1,7,-1
 623 776 l 1,8,-1
 1233 0 l 1,9,-1
 1010 0 l 1,10,-1
 504 643 l 1,11,-1
 440 573 l 1,0,-1
EndSplineSet
Validated: 1
EndChar

StartChar: L
Encoding: 76 76 39
Width: 1083
VWidth: 0
Flags: W
HStem: 0 102<440 1034> 1393 41G<174 440>
VStem: 174 266<102 1434>
AnchorPoint: "horn" 328 1085 basechar 0
AnchorPoint: "ogonek" 745 0 basechar 0
AnchorPoint: "bottom" 604 0 basechar 0
AnchorPoint: "cedilla" 596 0 basechar 0
AnchorPoint: "top" 485 1434 basechar 0
LayerCount: 2
Fore
SplineSet
440 102 m 1,0,-1
 1034 102 l 1,1,-1
 1034 0 l 1,2,-1
 174 0 l 1,3,-1
 174 1434 l 1,4,-1
 440 1434 l 1,5,-1
 440 102 l 1,0,-1
EndSplineSet
Validated: 1
EndChar

StartChar: M
Encoding: 77 77 40
Width: 1626
VWidth: 0
Flags: W
HStem: 0 43G<174 440 1190 1456> 1393 41G<174 459 1171 1456>
VStem: 174 266<0 1047> 1190 266<0 1047>
AnchorPoint: "horn" 1393 1085 basechar 0
AnchorPoint: "ogonek" 1389 0 basechar 0
AnchorPoint: "cedilla" 840 0 basechar 0
AnchorPoint: "bottom" 815 0 basechar 0
AnchorPoint: "top" 815 1434 basechar 0
LayerCount: 2
Fore
SplineSet
440 1434 m 1,0,-1
 815 631 l 1,1,-1
 1190 1434 l 1,2,-1
 1456 1434 l 1,3,-1
 1456 0 l 1,4,-1
 1190 0 l 1,5,-1
 1190 1047 l 1,6,-1
 815 248 l 1,7,-1
 440 1047 l 1,8,-1
 440 0 l 1,9,-1
 174 0 l 1,10,-1
 174 1434 l 1,11,-1
 440 1434 l 1,0,-1
EndSplineSet
Validated: 1
EndChar

StartChar: N
Encoding: 78 78 41
Width: 1406
VWidth: 0
Flags: W
HStem: 0 43G<174 440 951 1237> 1393 41G<174 463 971 1237>
VStem: 174 266<0 1075> 971 266<367 1434>
AnchorPoint: "horn" 1188 1085 basechar 0
AnchorPoint: "ogonek" 1143 0 basechar 0
AnchorPoint: "bottom" 694 0 basechar 0
AnchorPoint: "cedilla" 696 0 basechar 0
AnchorPoint: "top" 717 1434 basechar 0
LayerCount: 2
Fore
SplineSet
1237 1434 m 1,0,-1
 1237 0 l 1,1,-1
 971 0 l 1,2,-1
 440 1075 l 1,3,-1
 440 0 l 1,4,-1
 174 0 l 1,5,-1
 174 1434 l 1,6,-1
 440 1434 l 1,7,-1
 442 1434 l 1,8,-1
 971 367 l 1,9,-1
 971 1434 l 1,10,-1
 1237 1434 l 1,0,-1
EndSplineSet
Validated: 1
EndChar

StartChar: O
Encoding: 79 79 42
Width: 1435
VWidth: 0
Flags: W
HStem: -20 102<587 861> 1352 102<565 855>
VStem: 102 266<424 1012> 1071 266<414 1009>
AnchorPoint: "cedilla" 700 0 basechar 0
AnchorPoint: "horn" 1217 1085 basechar 0
AnchorPoint: "bottom" 721 0 basechar 0
AnchorPoint: "ogonek" 725 0 basechar 0
AnchorPoint: "top" 707 1434 basechar 0
LayerCount: 2
Fore
SplineSet
705 -20 m 0,0,1
 621 -20 621 -20 537.5 7 c 128,-1,2
 454 34 454 34 375 93 c 128,-1,3
 296 152 296 152 235.5 236 c 128,-1,4
 175 320 175 320 138.5 444.5 c 128,-1,5
 102 569 102 569 102 717 c 128,-1,6
 102 865 102 865 136.5 989.5 c 128,-1,7
 171 1114 171 1114 228.5 1198.5 c 128,-1,8
 286 1283 286 1283 362 1341.5 c 128,-1,9
 438 1400 438 1400 520 1427 c 128,-1,10
 602 1454 602 1454 686 1454 c 0,11,12
 788 1454 788 1454 882 1427 c 128,-1,13
 976 1400 976 1400 1059.5 1341.5 c 128,-1,14
 1143 1283 1143 1283 1204.5 1198 c 128,-1,15
 1266 1113 1266 1113 1301.5 989.5 c 128,-1,16
 1337 866 1337 866 1337 717 c 0,17,18
 1337 531 1337 531 1286 387 c 128,-1,19
 1235 243 1235 243 1146.5 155.5 c 128,-1,20
 1058 68 1058 68 946 24 c 128,-1,21
 834 -20 834 -20 705 -20 c 0,0,1
698 1352 m 0,22,23
 553 1352 553 1352 461 1189.5 c 128,-1,24
 369 1027 369 1027 369 717 c 0,25,26
 369 586 369 586 389.5 478 c 128,-1,27
 410 370 410 370 444 298 c 128,-1,28
 478 226 478 226 523.5 176 c 128,-1,29
 569 126 569 126 617.5 104 c 128,-1,30
 666 82 666 82 717 82 c 0,31,32
 875 82 875 82 973 244.5 c 128,-1,33
 1071 407 1071 407 1071 717 c 0,34,35
 1071 1040 1071 1040 970 1196 c 128,-1,36
 869 1352 869 1352 698 1352 c 0,22,23
EndSplineSet
Validated: 1
EndChar

StartChar: Q
Encoding: 81 81 43
Width: 1435
VWidth: 0
Flags: W
HStem: -348 430<717 1155> -348 102<997 1155> 1352 102<540 867>
VStem: 102 266<429 1012> 1071 266<409 1009>
AnchorPoint: "horn" 1204 1085 basechar 0
AnchorPoint: "cedilla" 844 -262 basechar 0
AnchorPoint: "ogonek" 1004 -291 basechar 0
AnchorPoint: "bottom" 696 -266 basechar 0
AnchorPoint: "top" 690 1434 basechar 0
LayerCount: 2
Fore
SplineSet
698 1352 m 0,0,1
 519 1352 519 1352 444 1200 c 128,-1,2
 369 1048 369 1048 369 717 c 0,3,4
 369 394 369 394 463 238 c 128,-1,5
 557 82 557 82 717 82 c 0,6,7
 882 82 882 82 976.5 242.5 c 128,-1,8
 1071 403 1071 403 1071 717 c 0,9,10
 1071 1046 1071 1046 976 1199 c 128,-1,11
 881 1352 881 1352 698 1352 c 0,0,1
575 -4 m 1,12,13
 482 19 482 19 400 74 c 128,-1,14
 318 129 318 129 250 215.5 c 128,-1,15
 182 302 182 302 142 431.5 c 128,-1,16
 102 561 102 561 102 717 c 0,17,18
 102 865 102 865 136.5 989.5 c 128,-1,19
 171 1114 171 1114 228.5 1198.5 c 128,-1,20
 286 1283 286 1283 362 1341.5 c 128,-1,21
 438 1400 438 1400 520 1427 c 128,-1,22
 602 1454 602 1454 686 1454 c 0,23,24
 788 1454 788 1454 882 1427 c 128,-1,25
 976 1400 976 1400 1059.5 1341.5 c 128,-1,26
 1143 1283 1143 1283 1204.5 1198 c 128,-1,27
 1266 1113 1266 1113 1301.5 989.5 c 128,-1,28
 1337 866 1337 866 1337 717 c 0,29,30
 1337 557 1337 557 1299 427 c 128,-1,31
 1261 297 1261 297 1193 210 c 128,-1,32
 1125 123 1125 123 1037 69 c 128,-1,33
 949 15 949 15 844 -6 c 1,34,35
 862 -109 862 -109 957 -177.5 c 128,-1,36
 1052 -246 1052 -246 1155 -246 c 1,37,-1
 1155 -348 l 1,38,39
 1092 -348 1092 -348 1022 -337.5 c 128,-1,40
 952 -327 952 -327 875 -301 c 128,-1,41
 798 -275 798 -275 735.5 -237 c 128,-1,42
 673 -199 673 -199 628.5 -138.5 c 128,-1,43
 584 -78 584 -78 575 -4 c 1,12,13
EndSplineSet
Validated: 1
EndChar

StartChar: R
Encoding: 82 82 44
Width: 1138
VWidth: 0
Flags: W
HStem: 0 43G<174 440 829 1090> 655 102<440 543> 1331 102<440 665>
VStem: 174 266<0 655 758 1331> 772 266<872 1217> 829 260<0 202>
AnchorPoint: "horn" 954 1085 basechar 0
AnchorPoint: "ogonek" 975 0 basechar 0
AnchorPoint: "bottom" 594 0 basechar 0
AnchorPoint: "cedilla" 590 0 basechar 0
AnchorPoint: "top" 561 1434 basechar 0
LayerCount: 2
Fore
SplineSet
440 655 m 1,0,-1
 440 0 l 1,1,-1
 174 0 l 1,2,-1
 174 1434 l 1,3,-1
 594 1434 l 2,4,5
 688 1434 688 1434 765.5 1409 c 128,-1,6
 843 1384 843 1384 892.5 1344 c 128,-1,7
 942 1304 942 1304 976 1252 c 128,-1,8
 1010 1200 1010 1200 1024 1148 c 128,-1,9
 1038 1096 1038 1096 1038 1044 c 0,10,11
 1038 975 1038 975 1013 908 c 128,-1,12
 988 841 988 841 926.5 778 c 128,-1,13
 865 715 865 715 776 684 c 1,14,15
 881 585 881 585 985.5 363.5 c 128,-1,16
 1090 142 1090 142 1090 0 c 1,17,-1
 829 0 l 1,18,19
 829 142 829 142 721.5 355.5 c 128,-1,20
 614 569 614 569 500 655 c 1,21,-1
 440 655 l 1,0,-1
440 1331 m 1,22,-1
 440 758 l 1,23,-1
 532 758 l 2,24,25
 594 758 594 758 642.5 785 c 128,-1,26
 691 812 691 812 718 855.5 c 128,-1,27
 745 899 745 899 758.5 947 c 128,-1,28
 772 995 772 995 772 1044 c 0,29,30
 772 1083 772 1083 764 1121.5 c 128,-1,31
 756 1160 756 1160 737.5 1198 c 128,-1,32
 719 1236 719 1236 692 1265.5 c 128,-1,33
 665 1295 665 1295 623.5 1313 c 128,-1,34
 582 1331 582 1331 532 1331 c 2,35,-1
 440 1331 l 1,22,-1
EndSplineSet
Validated: 1
EndChar

StartChar: S
Encoding: 83 83 45
Width: 1187
VWidth: 0
Flags: W
HStem: -20 102<474 721> 1352 102<489 697>
VStem: 162 266<971 1252> 815 266<200 510>
AnchorPoint: "ogonek" 602 0 basechar 0
AnchorPoint: "horn" 897 1290 basechar 0
AnchorPoint: "bottom" 578 0 basechar 0
AnchorPoint: "cedilla" 573 0 basechar 0
AnchorPoint: "top" 569 1434 basechar 0
LayerCount: 2
Fore
SplineSet
102 350 m 1,0,-1
 334 381 l 1,1,2
 349 262 349 262 424.5 172 c 128,-1,3
 500 82 500 82 580 82 c 0,4,5
 699 82 699 82 757 155.5 c 128,-1,6
 815 229 815 229 815 365 c 0,7,8
 815 428 815 428 792.5 478.5 c 128,-1,9
 770 529 770 529 732.5 564.5 c 128,-1,10
 695 600 695 600 646 629.5 c 128,-1,11
 597 659 597 659 543 684.5 c 128,-1,12
 489 710 489 710 434.5 736.5 c 128,-1,13
 380 763 380 763 331 796.5 c 128,-1,14
 282 830 282 830 244.5 870.5 c 128,-1,15
 207 911 207 911 184.5 970 c 128,-1,16
 162 1029 162 1029 162 1102 c 0,17,18
 162 1198 162 1198 223.5 1280.5 c 128,-1,19
 285 1363 285 1363 380.5 1408.5 c 128,-1,20
 476 1454 476 1454 578 1454 c 0,21,22
 661 1454 661 1454 724.5 1441.5 c 128,-1,23
 788 1429 788 1429 828.5 1412 c 128,-1,24
 869 1395 869 1395 905.5 1361 c 128,-1,25
 942 1327 942 1327 962 1300.5 c 128,-1,26
 982 1274 982 1274 1012 1225 c 1,27,-1
 788 1182 l 1,28,29
 762 1231 762 1231 744 1257.5 c 128,-1,30
 726 1284 726 1284 700 1308.5 c 128,-1,31
 674 1333 674 1333 641 1342.5 c 128,-1,32
 608 1352 608 1352 561 1352 c 0,33,34
 511 1352 511 1352 469.5 1283.5 c 128,-1,35
 428 1215 428 1215 428 1102 c 0,36,37
 428 1048 428 1048 450.5 1004 c 128,-1,38
 473 960 473 960 510.5 928.5 c 128,-1,39
 548 897 548 897 597 869 c 128,-1,40
 646 841 646 841 700 814.5 c 128,-1,41
 754 788 754 788 808.5 760 c 128,-1,42
 863 732 863 732 912 695 c 128,-1,43
 961 658 961 658 998.5 613.5 c 128,-1,44
 1036 569 1036 569 1058.5 505.5 c 128,-1,45
 1081 442 1081 442 1081 365 c 0,46,47
 1081 197 1081 197 939.5 88.5 c 128,-1,48
 798 -20 798 -20 565 -20 c 0,49,50
 389 -20 389 -20 265 86.5 c 128,-1,51
 141 193 141 193 102 350 c 1,0,-1
EndSplineSet
Validated: 1
EndChar

StartChar: T
Encoding: 84 84 46
Width: 1280
VWidth: 0
Flags: W
HStem: 0 43G<508 774> 1331 102<41 508 774 1239>
VStem: 508 266<0 1331>
AnchorPoint: "horn" 1200 1389 basechar 0
AnchorPoint: "ogonek" 659 0 basechar 0
AnchorPoint: "bottom" 643 0 basechar 0
AnchorPoint: "cedilla" 639 0 basechar 0
AnchorPoint: "top" 643 1434 basechar 0
LayerCount: 2
Fore
SplineSet
41 1434 m 1,0,-1
 1243 1434 l 1,1,-1
 1239 1331 l 1,2,-1
 774 1331 l 1,3,-1
 774 0 l 1,4,-1
 508 0 l 1,5,-1
 508 1331 l 1,6,-1
 41 1331 l 1,7,-1
 41 1434 l 1,0,-1
EndSplineSet
Validated: 1
EndChar

StartChar: U
Encoding: 85 85 47
Width: 1402
VWidth: 0
Flags: W
HStem: -20 102<564 848> 1393 41G<156 422 981 1247>
VStem: 156 266<328 1434> 981 266<297 1434>
AnchorPoint: "cedilla" 692 0 basechar 0
AnchorPoint: "horn" 1247 1085 basechar 0
AnchorPoint: "bottom" 721 0 basechar 0
AnchorPoint: "ogonek" 717 0 basechar 0
AnchorPoint: "top" 721 1434 basechar 0
LayerCount: 2
Fore
SplineSet
981 1434 m 1,0,-1
 1247 1434 l 1,1,-1
 1247 610 l 2,2,3
 1247 461 1247 461 1217.5 348.5 c 128,-1,4
 1188 236 1188 236 1139 167 c 128,-1,5
 1090 98 1090 98 1017 55 c 128,-1,6
 944 12 944 12 867 -4 c 128,-1,7
 790 -20 790 -20 696 -20 c 0,8,9
 625 -20 625 -20 556 -4.5 c 128,-1,10
 487 11 487 11 412.5 55 c 128,-1,11
 338 99 338 99 283 166.5 c 128,-1,12
 228 234 228 234 192 348.5 c 128,-1,13
 156 463 156 463 156 610 c 2,14,-1
 156 1434 l 1,15,-1
 422 1434 l 1,16,-1
 422 610 l 2,17,18
 422 480 422 480 439 382.5 c 128,-1,19
 456 285 456 285 482.5 229 c 128,-1,20
 509 173 509 173 548.5 138.5 c 128,-1,21
 588 104 588 104 625.5 93 c 128,-1,22
 663 82 663 82 709 82 c 0,23,24
 759 82 759 82 797.5 95.5 c 128,-1,25
 836 109 836 109 871.5 144.5 c 128,-1,26
 907 180 907 180 930.5 238 c 128,-1,27
 954 296 954 296 967.5 390 c 128,-1,28
 981 484 981 484 981 610 c 2,29,-1
 981 1434 l 1,0,-1
EndSplineSet
Validated: 1
EndChar

StartChar: V
Encoding: 86 86 48
Width: 1153
VWidth: 0
Flags: W
HStem: 0 43G<476 683> 1393 41G<25 282 878 1135>
AnchorPoint: "cedilla" 578 0 basechar 0
AnchorPoint: "ogonek" 578 0 basechar 0
AnchorPoint: "horn" 983 1085 basechar 0
AnchorPoint: "bottom" 578 0 basechar 0
AnchorPoint: "top" 573 1434 basechar 0
LayerCount: 2
Fore
SplineSet
489 0 m 1,0,-1
 25 1434 l 1,1,-1
 268 1434 l 1,2,-1
 580 473 l 1,3,-1
 891 1434 l 1,4,-1
 1135 1434 l 1,5,-1
 670 0 l 1,6,-1
 489 0 l 1,0,-1
EndSplineSet
Validated: 1
EndChar

StartChar: X
Encoding: 88 88 49
Width: 1228
VWidth: 0
Flags: W
HStem: 0 43G<86 289 800 1079> 1393 41G<90 369 794 999>
AnchorPoint: "horn" 766 1085 basechar 0
AnchorPoint: "ogonek" 553 0 basechar 0
AnchorPoint: "cedilla" 553 0 basechar 0
AnchorPoint: "bottom" 557 0 basechar 0
AnchorPoint: "top" 557 1434 basechar 0
LayerCount: 2
Fore
SplineSet
674 795 m 1,0,-1
 1079 0 l 1,1,-1
 821 0 l 1,2,-1
 545 543 l 1,3,-1
 268 0 l 1,4,-1
 86 0 l 1,5,-1
 453 721 l 1,6,-1
 90 1434 l 1,7,-1
 348 1434 l 1,8,-1
 582 975 l 1,9,-1
 815 1434 l 1,10,-1
 999 1434 l 1,11,-1
 674 795 l 1,0,-1
EndSplineSet
Validated: 1
EndChar

StartChar: W
Encoding: 87 87 50
Width: 1771
VWidth: 0
Flags: W
HStem: 0 43G<486 693 1087 1293> 860 41G<775 1004> 1393 41G<35 292 1488 1745>
AnchorPoint: "horn" 1577 1085 basechar 0
AnchorPoint: "ogonek" 1188 0 basechar 0
AnchorPoint: "cedilla" 881 0 basechar 0
AnchorPoint: "bottom" 899 0 basechar 0
AnchorPoint: "top" 874 1434 basechar 0
LayerCount: 2
Fore
SplineSet
991 901 m 1,0,-1
 1159 381 l 1,1,-1
 1501 1434 l 1,2,-1
 1745 1434 l 1,3,-1
 1280 0 l 1,4,-1
 1100 0 l 1,5,-1
 891 647 l 1,6,-1
 680 0 l 1,7,-1
 500 0 l 1,8,-1
 35 1434 l 1,9,-1
 279 1434 l 1,10,-1
 618 381 l 1,11,-1
 788 901 l 1,12,-1
 991 901 l 1,0,-1
EndSplineSet
Validated: 1
EndChar

StartChar: Y
Encoding: 89 89 51
Width: 989
VWidth: 0
Flags: W
HStem: 0 43G<383 649> 1393 41G<23 301 768 973>
VStem: 383 266<0 727>
AnchorPoint: "horn" 725 1085 basechar 0
AnchorPoint: "cedilla" 492 0 basechar 0
AnchorPoint: "ogonek" 510 0 basechar 0
AnchorPoint: "bottom" 477 0 basechar 0
AnchorPoint: "top" 477 1434 basechar 0
LayerCount: 2
Fore
SplineSet
535 936 m 1,0,-1
 788 1434 l 1,1,-1
 973 1434 l 1,2,-1
 649 801 l 1,3,-1
 649 0 l 1,4,-1
 383 0 l 1,5,-1
 383 727 l 1,6,-1
 23 1434 l 1,7,-1
 281 1434 l 1,8,-1
 535 936 l 1,0,-1
EndSplineSet
Validated: 1
EndChar

StartChar: Z
Encoding: 90 90 52
Width: 1040
VWidth: 0
Flags: W
HStem: 0 102<362 983> 1331 102<102 672>
AnchorPoint: "horn" 758 1085 basechar 0
AnchorPoint: "cedilla" 569 0 basechar 0
AnchorPoint: "ogonek" 799 0 basechar 0
AnchorPoint: "bottom" 549 0 basechar 0
AnchorPoint: "top" 512 1434 basechar 0
LayerCount: 2
Fore
SplineSet
672 1331 m 1,0,-1
 72 1331 l 1,1,-1
 102 1434 l 1,2,-1
 975 1434 l 1,3,-1
 362 102 l 1,4,-1
 983 102 l 1,5,-1
 983 0 l 1,6,-1
 61 0 l 1,7,-1
 672 1331 l 1,0,-1
EndSplineSet
Validated: 1
EndChar

StartChar: exclam
Encoding: 33 33 53
Width: 448
VWidth: 0
Flags: W
HStem: 0 164<113 328> 1393 41G<92 348>
VStem: 92 256<937 1434> 113 215<0 164 369 582>
LayerCount: 2
Fore
SplineSet
113 164 m 5,0,-1
 328 164 l 1,1,-1
 328 0 l 1,2,-1
 113 0 l 1,3,-1
 113 164 l 5,0,-1
348 1434 m 17,4,-1
 317 369 l 1,5,-1
 123 369 l 1,6,-1
 92 1434 l 1,7,-1
 348 1434 l 17,4,-1
EndSplineSet
Validated: 1
EndChar

StartChar: period
Encoding: 46 46 54
Width: 407
VWidth: 0
Flags: W
HStem: 0 164<92 307>
VStem: 92 215<0 164>
LayerCount: 2
Fore
SplineSet
92 164 m 1,0,-1
 307 164 l 1,1,-1
 307 0 l 1,2,-1
 92 0 l 1,3,-1
 92 164 l 1,0,-1
EndSplineSet
Validated: 1
EndChar

StartChar: comma
Encoding: 44 44 55
Width: 448
VWidth: 0
Flags: W
HStem: -203 367<-68 38>
VStem: 109 219<-48 164>
LayerCount: 2
Fore
SplineSet
109 164 m 1,0,-1
 328 164 l 1,1,2
 328 109 328 109 325.5 63.5 c 128,-1,3
 323 18 323 18 317.5 -16.5 c 128,-1,4
 312 -51 312 -51 307.5 -74 c 128,-1,5
 303 -97 303 -97 293.5 -120 c 128,-1,6
 284 -143 284 -143 279.5 -152 c 128,-1,7
 275 -161 275 -161 263.5 -180 c 128,-1,8
 252 -199 252 -199 250 -203 c 1,9,-1
 102 -203 l 1,10,11
 152 -132 152 -132 152 -51 c 0,12,13
 152 -26 152 -26 130.5 44 c 128,-1,14
 109 114 109 114 109 164 c 1,0,-1
EndSplineSet
Validated: 1
EndChar

StartChar: quotesingle
Encoding: 39 39 56
Width: 428
VWidth: 0
Flags: W
HStem: 1024 410<123 297>
VStem: 123 174<1024 1215>
LayerCount: 2
Fore
SplineSet
328 1434 m 25,0,-1
 297 1024 l 1,1,-1
 123 1024 l 1,2,-1
 92 1434 l 1,3,-1
 328 1434 l 25,0,-1
EndSplineSet
Validated: 1
EndChar

StartChar: dollar
Encoding: 36 36 58
Width: 1044
VWidth: 0
Flags: W
HStem: 0 43G<385 469 551 635> 150 102<469 551> 158 109<245 385> 1112 102<469 551> 1311 41G<385 469 551 635>
VStem: 61 256<851 1056> 385 84<0 150 266 662 831 1079 1214 1352> 551 84<0 152 279 602 772 1094 1208 1352> 717 256<331 569>
LayerCount: 2
Fore
SplineSet
913 1087 m 1,0,-1
 795 1016 l 1,1,2
 732 1068 732 1068 635 1094 c 1,3,-1
 635 750 l 1,4,5
 785 704 785 704 879 625.5 c 128,-1,6
 973 547 973 547 973 463 c 0,7,8
 973 353 973 353 875 273.5 c 128,-1,9
 777 194 777 194 635 164 c 1,10,-1
 635 0 l 1,11,-1
 551 0 l 1,12,-1
 551 152 l 1,13,14
 535 150 535 150 500 150 c 2,15,-1
 469 150 l 1,16,-1
 469 0 l 1,17,-1
 385 0 l 1,18,-1
 385 158 l 1,19,20
 196 187 196 187 61 287 c 1,21,-1
 150 362 l 1,22,23
 255 290 255 290 385 266 c 1,24,-1
 385 682 l 1,25,26
 245 725 245 725 153 793.5 c 128,-1,27
 61 862 61 862 61 950 c 0,28,29
 61 1052 61 1052 158.5 1122 c 128,-1,30
 256 1192 256 1192 385 1208 c 1,31,-1
 385 1352 l 1,32,-1
 469 1352 l 1,33,-1
 469 1214 l 1,34,35
 508 1214 508 1214 551 1208 c 1,36,-1
 551 1352 l 1,37,-1
 635 1352 l 1,38,-1
 635 1196 l 1,39,40
 808 1162 808 1162 913 1087 c 1,0,-1
385 831 m 1,41,-1
 385 1079 l 1,42,43
 317 1028 317 1028 317 950 c 0,44,45
 317 879 317 879 385 831 c 1,41,-1
469 662 m 1,46,-1
 469 254 l 1,47,48
 489 252 489 252 530 252 c 2,49,-1
 551 252 l 1,50,-1
 551 643 l 1,51,52
 517 653 517 653 469 662 c 1,46,-1
469 791 m 1,53,54
 503 781 503 781 551 772 c 1,55,-1
 551 1108 l 1,56,57
 511 1112 511 1112 489 1112 c 0,58,59
 475 1112 475 1112 469 1110 c 1,60,-1
 469 791 l 1,53,54
635 602 m 1,61,-1
 635 279 l 1,62,63
 717 330 717 330 717 463 c 0,64,65
 717 547 717 547 635 602 c 1,61,-1
EndSplineSet
Validated: 1
EndChar

StartChar: bar
Encoding: 124 124 59
Width: 356
VWidth: 0
Flags: W
HStem: 0 43G<92 256> 1393 41G<92 256>
VStem: 92 164<0 1434>
LayerCount: 2
Fore
SplineSet
256 1434 m 25,0,-1
 256 0 l 1,1,-1
 92 0 l 1,2,-1
 92 1434 l 1,3,-1
 256 1434 l 25,0,-1
EndSplineSet
Validated: 1
EndChar

StartChar: slash
Encoding: 47 47 60
Width: 905
VWidth: 0
Flags: W
HStem: 0 43G<61 281> 1393 41G<624 844>
LayerCount: 2
Fore
SplineSet
844 1434 m 1,0,-1
 264 0 l 1,1,-1
 61 0 l 1,2,-1
 641 1434 l 1,3,-1
 844 1434 l 1,0,-1
EndSplineSet
Validated: 1
EndChar

StartChar: backslash
Encoding: 92 92 61
Width: 905
VWidth: 0
Flags: W
HStem: 0 43G<624 844> 1393 41G<61 281>
LayerCount: 2
Fore
SplineSet
61 1434 m 1,0,-1
 264 1434 l 1,1,-1
 844 0 l 1,2,-1
 641 0 l 1,3,-1
 61 1434 l 1,0,-1
EndSplineSet
Validated: 1
EndChar

StartChar: question
Encoding: 63 63 62
Width: 944
VWidth: 0
Flags: W
HStem: 0 164<291 506> 369 215<311 485> 1270 102<279 523>
VStem: 291 215<0 164> 311 174<369 469> 627 256<716 1108>
LayerCount: 2
Fore
SplineSet
291 164 m 1,0,-1
 506 164 l 1,1,-1
 506 0 l 1,2,-1
 291 0 l 1,3,-1
 291 164 l 1,0,-1
502 487 m 1,4,-1
 485 369 l 1,5,-1
 311 369 l 1,6,-1
 281 584 l 1,7,-1
 389 584 l 2,8,9
 507 584 507 584 567 660 c 128,-1,10
 627 736 627 736 627 901 c 0,11,12
 627 1083 627 1083 572 1176.5 c 128,-1,13
 517 1270 517 1270 379 1270 c 0,14,15
 349 1270 349 1270 329.5 1265 c 128,-1,16
 310 1260 310 1260 297 1247.5 c 128,-1,17
 284 1235 284 1235 277 1223.5 c 128,-1,18
 270 1212 270 1212 258.5 1188 c 128,-1,19
 247 1164 247 1164 236 1147 c 1,20,-1
 41 1194 l 1,21,22
 181 1372 181 1372 410 1372 c 0,23,24
 613 1372 613 1372 748 1242 c 128,-1,25
 883 1112 883 1112 883 901 c 0,26,27
 883 811 883 811 850 736 c 128,-1,28
 817 661 817 661 761.5 611.5 c 128,-1,29
 706 562 706 562 640.5 530.5 c 128,-1,30
 575 499 575 499 502 487 c 1,4,-1
EndSplineSet
Validated: 1
EndChar

StartChar: percent
Encoding: 37 37 65
Width: 1273
VWidth: 0
Flags: W
HStem: 156 109<845 973> 473 109<845 973> 729 109<292 421> 1047 109<292 421>
VStem: 82 201<844 1040> 430 201<844 1040> 635 201<271 467> 983 201<271 467>
LayerCount: 2
Fore
SplineSet
836 369 m 0,0,1
 836 264 836 264 909 264 c 0,2,3
 983 264 983 264 983 369 c 0,4,5
 983 473 983 473 909 473 c 0,6,7
 836 473 836 473 836 369 c 0,0,1
635 369 m 128,-1,9
 635 427 635 427 660.5 470.5 c 128,-1,10
 686 514 686 514 728 537.5 c 128,-1,11
 770 561 770 561 815.5 571.5 c 128,-1,12
 861 582 861 582 909 582 c 128,-1,13
 957 582 957 582 1002.5 571.5 c 128,-1,14
 1048 561 1048 561 1090.5 537.5 c 128,-1,15
 1133 514 1133 514 1158.5 470.5 c 128,-1,16
 1184 427 1184 427 1184 369 c 128,-1,17
 1184 311 1184 311 1158.5 267.5 c 128,-1,18
 1133 224 1133 224 1090.5 200.5 c 128,-1,19
 1048 177 1048 177 1002.5 166.5 c 128,-1,20
 957 156 957 156 909 156 c 128,-1,21
 861 156 861 156 815.5 166.5 c 128,-1,22
 770 177 770 177 728 200.5 c 128,-1,23
 686 224 686 224 660.5 267.5 c 128,-1,8
 635 311 635 311 635 369 c 128,-1,9
283 942 m 0,24,25
 283 838 283 838 356 838 c 0,26,27
 430 838 430 838 430 942 c 0,28,29
 430 1047 430 1047 356 1047 c 0,30,31
 283 1047 283 1047 283 942 c 0,24,25
82 942 m 128,-1,33
 82 1000 82 1000 107.5 1043.5 c 128,-1,34
 133 1087 133 1087 175 1110.5 c 128,-1,35
 217 1134 217 1134 262.5 1144.5 c 128,-1,36
 308 1155 308 1155 356 1155 c 128,-1,37
 404 1155 404 1155 449.5 1144.5 c 128,-1,38
 495 1134 495 1134 537.5 1110.5 c 128,-1,39
 580 1087 580 1087 605.5 1043.5 c 128,-1,40
 631 1000 631 1000 631 942 c 128,-1,41
 631 884 631 884 605.5 840.5 c 128,-1,42
 580 797 580 797 537.5 773.5 c 128,-1,43
 495 750 495 750 449.5 739.5 c 128,-1,44
 404 729 404 729 356 729 c 128,-1,45
 308 729 308 729 262.5 739.5 c 128,-1,46
 217 750 217 750 175 773.5 c 128,-1,47
 133 797 133 797 107.5 840.5 c 128,-1,32
 82 884 82 884 82 942 c 128,-1,33
143 264 m 1,48,-1
 903 1047 l 1,49,-1
 1122 1047 l 1,50,-1
 362 264 l 1,51,-1
 143 264 l 1,48,-1
EndSplineSet
Validated: 1
EndChar

StartChar: numbersign
Encoding: 35 35 66
Width: 1124
VWidth: 0
Flags: W
HStem: 410 102<102 227 481 567 823 971> 840 102<154 303 557 643 899 1022>
LayerCount: 2
Fore
SplineSet
465 410 m 1,0,-1
 414 123 l 1,1,-1
 176 123 l 1,2,-1
 227 410 l 1,3,-1
 102 410 l 1,4,-1
 102 512 l 1,5,-1
 244 512 l 1,6,-1
 303 840 l 1,7,-1
 154 840 l 1,8,-1
 154 942 l 1,9,-1
 319 942 l 1,10,-1
 371 1229 l 1,11,-1
 608 1229 l 1,12,-1
 557 942 l 1,13,-1
 662 942 l 1,14,-1
 711 1229 l 1,15,-1
 948 1229 l 1,16,-1
 899 942 l 1,17,-1
 1022 942 l 1,18,-1
 1022 840 l 1,19,-1
 881 840 l 1,20,-1
 823 512 l 1,21,-1
 971 512 l 1,22,-1
 971 410 l 1,23,-1
 805 410 l 1,24,-1
 756 123 l 1,25,-1
 518 123 l 1,26,-1
 567 410 l 1,27,-1
 465 410 l 1,0,-1
481 512 m 1,28,-1
 586 512 l 1,29,-1
 643 840 l 1,30,-1
 541 840 l 1,31,-1
 481 512 l 1,28,-1
EndSplineSet
Validated: 1
EndChar

StartChar: zero
Encoding: 48 48 67
Width: 1024
VWidth: 0
Flags: W
HStem: -20 102<419 614> 1004 102<427 611>
VStem: 72 256<287 766> 696 256<294 791>
LayerCount: 2
Fore
SplineSet
696 543 m 0,0,1
 696 613 696 613 691.5 674.5 c 128,-1,2
 687 736 687 736 675 798.5 c 128,-1,3
 663 861 663 861 644.5 905 c 128,-1,4
 626 949 626 949 595 976.5 c 128,-1,5
 564 1004 564 1004 524 1004 c 0,6,7
 469 1004 469 1004 429 964.5 c 128,-1,8
 389 925 389 925 368 856.5 c 128,-1,9
 347 788 347 788 337.5 711 c 128,-1,10
 328 634 328 634 328 543 c 0,11,12
 328 477 328 477 330 429.5 c 128,-1,13
 332 382 332 382 338 324.5 c 128,-1,14
 344 267 344 267 357.5 227.5 c 128,-1,15
 371 188 371 188 392 152.5 c 128,-1,16
 413 117 413 117 446.5 99.5 c 128,-1,17
 480 82 480 82 524 82 c 0,18,19
 561 82 561 82 590 100.5 c 128,-1,20
 619 119 619 119 637 154 c 128,-1,21
 655 189 655 189 667.5 230.5 c 128,-1,22
 680 272 680 272 686 328 c 128,-1,23
 692 384 692 384 694 433 c 128,-1,24
 696 482 696 482 696 543 c 0,0,1
952 543 m 128,-1,26
 952 387 952 387 893.5 258.5 c 128,-1,27
 835 130 835 130 729.5 55 c 128,-1,28
 624 -20 624 -20 494 -20 c 0,29,30
 366 -20 366 -20 268 61.5 c 128,-1,31
 170 143 170 143 121 270 c 128,-1,32
 72 397 72 397 72 543 c 0,33,34
 72 683 72 683 134.5 814.5 c 128,-1,35
 197 946 197 946 295 1026 c 128,-1,36
 393 1106 393 1106 494 1106 c 0,37,38
 624 1106 624 1106 729.5 1031 c 128,-1,39
 835 956 835 956 893.5 827.5 c 128,-1,25
 952 699 952 699 952 543 c 128,-1,26
EndSplineSet
Validated: 1
EndChar

StartChar: one
Encoding: 49 49 68
Width: 942
VWidth: 0
Flags: W
HStem: 0 43G<342 598> 961 102<283 342>
VStem: 342 256<0 967>
LayerCount: 2
Fore
SplineSet
598 1096 m 1,0,-1
 598 0 l 1,1,-1
 342 0 l 1,2,-1
 342 967 l 1,3,-1
 283 961 l 1,4,-1
 283 1063 l 1,5,-1
 598 1096 l 1,0,-1
EndSplineSet
Validated: 1
EndChar

StartChar: two
Encoding: 50 50 69
Width: 942
VWidth: 0
Flags: W
HStem: 0 102<379 819> 983 102<381 533>
VStem: 123 256<102 216> 557 256<616 932>
LayerCount: 2
Fore
SplineSet
123 0 m 1,0,1
 123 94 123 94 147 171.5 c 128,-1,2
 171 249 171 249 209 301.5 c 128,-1,3
 247 354 247 354 293.5 398.5 c 128,-1,4
 340 443 340 443 386.5 481.5 c 128,-1,5
 433 520 433 520 471 559 c 128,-1,6
 509 598 509 598 533 649 c 128,-1,7
 557 700 557 700 557 760 c 0,8,9
 557 881 557 881 536.5 932 c 128,-1,10
 516 983 516 983 469 983 c 0,11,12
 413 983 413 983 385.5 949 c 128,-1,13
 358 915 358 915 324 827 c 1,14,-1
 123 877 l 1,15,16
 222 1085 222 1085 500 1085 c 0,17,18
 633 1085 633 1085 723 992 c 128,-1,19
 813 899 813 899 813 760 c 0,20,21
 813 693 813 693 789 635.5 c 128,-1,22
 765 578 765 578 727 536 c 128,-1,23
 689 494 689 494 642.5 455.5 c 128,-1,24
 596 417 596 417 549.5 380 c 128,-1,25
 503 343 503 343 465 304 c 128,-1,26
 427 265 427 265 403 213.5 c 128,-1,27
 379 162 379 162 379 102 c 1,28,-1
 819 102 l 1,29,-1
 819 0 l 1,30,-1
 123 0 l 1,0,1
EndSplineSet
Validated: 1
EndChar

StartChar: three
Encoding: 51 51 70
Width: 942
VWidth: 0
Flags: W
HStem: -258 102<324 529> 422 102<358 510> 983 102<339 529>
VStem: 567 256<597 912> 606 256<-39 301>
LayerCount: 2
Fore
SplineSet
358 422 m 1,0,-1
 358 524 l 1,1,2
 478 524 478 524 522.5 578 c 128,-1,3
 567 632 567 632 567 760 c 0,4,5
 567 879 567 879 535.5 931 c 128,-1,6
 504 983 504 983 438 983 c 0,7,8
 415 983 415 983 398 980 c 128,-1,9
 381 977 381 977 368.5 969 c 128,-1,10
 356 961 356 961 348 953.5 c 128,-1,11
 340 946 340 946 332 930 c 128,-1,12
 324 914 324 914 320 902 c 128,-1,13
 316 890 316 890 307.5 866.5 c 128,-1,14
 299 843 299 843 293 827 c 1,15,-1
 113 877 l 1,16,17
 160 975 160 975 242 1030 c 128,-1,18
 324 1085 324 1085 469 1085 c 0,19,20
 606 1085 606 1085 714.5 990 c 128,-1,21
 823 895 823 895 823 760 c 0,22,23
 823 560 823 560 631 473 c 1,24,25
 745 422 745 422 803.5 328.5 c 128,-1,26
 862 235 862 235 862 115 c 0,27,28
 862 19 862 19 800.5 -69 c 128,-1,29
 739 -157 739 -157 648 -207.5 c 128,-1,30
 557 -258 557 -258 469 -258 c 0,31,32
 321 -258 321 -258 223 -198.5 c 128,-1,33
 125 -139 125 -139 80 -45 c 1,34,-1
 260 4 l 1,35,36
 277 -40 277 -40 289.5 -64.5 c 128,-1,37
 302 -89 302 -89 322 -112.5 c 128,-1,38
 342 -136 342 -136 370 -146 c 128,-1,39
 398 -156 398 -156 438 -156 c 0,40,41
 505 -156 505 -156 555.5 -78.5 c 128,-1,42
 606 -1 606 -1 606 115 c 0,43,44
 606 153 606 153 604 182 c 128,-1,45
 602 211 602 211 596 244.5 c 128,-1,46
 590 278 590 278 579.5 302.5 c 128,-1,47
 569 327 569 327 550 350.5 c 128,-1,48
 531 374 531 374 505.5 389 c 128,-1,49
 480 404 480 404 442.5 413 c 128,-1,50
 405 422 405 422 358 422 c 1,0,-1
EndSplineSet
Validated: 1
EndChar

StartChar: four
Encoding: 52 52 71
Width: 942
VWidth: 0
Flags: W
HStem: 0 102<223 524 780 891>
VStem: 524 256<-238 0 102 748>
LayerCount: 2
Fore
SplineSet
51 68 m 1,0,-1
 526 1085 l 1,1,-1
 780 1085 l 1,2,-1
 780 102 l 1,3,-1
 891 102 l 1,4,-1
 891 0 l 1,5,-1
 780 0 l 1,6,-1
 780 -238 l 1,7,-1
 524 -238 l 1,8,-1
 524 0 l 1,9,-1
 51 0 l 1,10,-1
 51 68 l 1,0,-1
524 102 m 1,11,-1
 524 748 l 1,12,-1
 223 102 l 1,13,-1
 524 102 l 1,11,-1
EndSplineSet
Validated: 1
EndChar

StartChar: five
Encoding: 53 53 72
Width: 942
VWidth: 0
Flags: W
HStem: -258 102<347 534> 983 102<514 807>
VStem: 586 256<-38 401>
LayerCount: 2
Fore
SplineSet
182 555 m 1,0,-1
 274 1085 l 1,1,-1
 807 1085 l 1,2,-1
 807 983 l 1,3,-1
 514 983 l 1,4,-1
 455 635 l 1,5,6
 545 617 545 617 612.5 585 c 128,-1,7
 680 553 680 553 723.5 511 c 128,-1,8
 767 469 767 469 793.5 413.5 c 128,-1,9
 820 358 820 358 831 298.5 c 128,-1,10
 842 239 842 239 842 166 c 0,11,12
 842 73 842 73 811.5 -8 c 128,-1,13
 781 -89 781 -89 731.5 -142.5 c 128,-1,14
 682 -196 682 -196 618.5 -227 c 128,-1,15
 555 -258 555 -258 489 -258 c 0,16,17
 341 -258 341 -258 243 -198.5 c 128,-1,18
 145 -139 145 -139 100 -45 c 1,19,-1
 291 4 l 1,20,21
 304 -28 304 -28 307.5 -37 c 128,-1,22
 311 -46 311 -46 322 -70.5 c 128,-1,23
 333 -95 333 -95 339.5 -102 c 128,-1,24
 346 -109 346 -109 359 -123.5 c 128,-1,25
 372 -138 372 -138 385 -142.5 c 128,-1,26
 398 -147 398 -147 417 -151.5 c 128,-1,27
 436 -156 436 -156 459 -156 c 0,28,29
 586 -156 586 -156 586 166 c 0,30,31
 586 211 586 211 585 237.5 c 128,-1,32
 584 264 584 264 580.5 302.5 c 128,-1,33
 577 341 577 341 569.5 364.5 c 128,-1,34
 562 388 562 388 547.5 418 c 128,-1,35
 533 448 533 448 513 465.5 c 128,-1,36
 493 483 493 483 462.5 502.5 c 128,-1,37
 432 522 432 522 392.5 532 c 128,-1,38
 353 542 353 542 300 548.5 c 128,-1,39
 247 555 247 555 182 555 c 1,0,-1
EndSplineSet
Validated: 1
EndChar

StartChar: six
Encoding: 54 54 73
Width: 942
VWidth: 0
Flags: W
HStem: -20 102<372 554> 586 102<359 565>
VStem: 70 256<205 567> 616 256<171 519>
LayerCount: 2
Fore
SplineSet
338 569 m 1,0,1
 326 484 326 484 326 385 c 0,2,3
 326 228 326 228 355.5 155 c 128,-1,4
 385 82 385 82 459 82 c 0,5,6
 515 82 515 82 551.5 121 c 128,-1,7
 588 160 588 160 602 218 c 128,-1,8
 616 276 616 276 616 352 c 0,9,10
 616 445 616 445 582 515.5 c 128,-1,11
 548 586 548 586 477 586 c 0,12,13
 414 586 414 586 338 569 c 1,0,1
358 682 m 1,14,15
 402 688 402 688 446 688 c 0,16,17
 512 688 512 688 572 677 c 128,-1,18
 632 666 632 666 687.5 640.5 c 128,-1,19
 743 615 743 615 783.5 577 c 128,-1,20
 824 539 824 539 848 481 c 128,-1,21
 872 423 872 423 872 352 c 0,22,23
 872 263 872 263 839 190.5 c 128,-1,24
 806 118 806 118 751.5 73 c 128,-1,25
 697 28 697 28 629.5 4 c 128,-1,26
 562 -20 562 -20 489 -20 c 0,27,28
 383 -20 383 -20 288 29 c 128,-1,29
 193 78 193 78 131.5 172.5 c 128,-1,30
 70 267 70 267 70 385 c 0,31,32
 70 494 70 494 91.5 598 c 128,-1,33
 113 702 113 702 149.5 785.5 c 128,-1,34
 186 869 186 869 233.5 946 c 128,-1,35
 281 1023 281 1023 333 1082 c 128,-1,36
 385 1141 385 1141 437 1191 c 128,-1,37
 489 1241 489 1241 536.5 1276 c 128,-1,38
 584 1311 584 1311 620 1336 c 0,39,40
 656 1360 656 1360 678 1372 c 2,41,-1
 700 1384 l 1,42,-1
 770 1323 l 1,43,44
 764 1319 764 1319 752.5 1311 c 128,-1,45
 741 1303 741 1303 706.5 1274.5 c 128,-1,46
 672 1246 672 1246 639.5 1212.5 c 128,-1,47
 607 1179 607 1179 563.5 1123.5 c 128,-1,48
 520 1068 520 1068 484 1006.5 c 128,-1,49
 448 945 448 945 413.5 859.5 c 128,-1,50
 379 774 379 774 358 682 c 1,14,15
EndSplineSet
Validated: 1
EndChar

StartChar: seven
Encoding: 55 55 74
Width: 942
VWidth: 0
Flags: W
HStem: 983 102<170 565>
VStem: 139 664
LayerCount: 2
Fore
SplineSet
170 1085 m 1,0,-1
 803 1085 l 1,1,-1
 803 983 l 1,2,-1
 475 -238 l 1,3,-1
 238 -238 l 1,4,-1
 565 983 l 1,5,-1
 139 983 l 1,6,-1
 170 1085 l 1,0,-1
EndSplineSet
Validated: 1
EndChar

StartChar: nine
Encoding: 57 57 75
Width: 942
VWidth: 0
Flags: W
HStem: 397 102<387 587> 1004 102<380 540>
VStem: 70 256<568 899> 616 256<523 862>
LayerCount: 2
Fore
SplineSet
606 516 m 1,0,1
 616 604 616 604 616 680 c 0,2,3
 616 828 616 828 570 916 c 128,-1,4
 524 1004 524 1004 453 1004 c 0,5,6
 409 1004 409 1004 379.5 960 c 128,-1,7
 350 916 350 916 338 852.5 c 128,-1,8
 326 789 326 789 326 713 c 128,-1,9
 326 637 326 637 369 568.5 c 128,-1,10
 412 500 412 500 465 500 c 0,11,12
 534 500 534 500 606 516 c 1,0,1
588 403 m 1,13,14
 545 397 545 397 496 397 c 0,15,16
 429 397 429 397 370 406 c 128,-1,17
 311 415 311 415 254.5 437.5 c 128,-1,18
 198 460 198 460 158 495 c 128,-1,19
 118 530 118 530 94 586 c 128,-1,20
 70 642 70 642 70 713 c 0,21,22
 70 892 70 892 189 999 c 128,-1,23
 308 1106 308 1106 483 1106 c 0,24,25
 548 1106 548 1106 616.5 1073.5 c 128,-1,26
 685 1041 685 1041 742 986 c 128,-1,27
 799 931 799 931 835.5 850 c 128,-1,28
 872 769 872 769 872 680 c 0,29,30
 872 571 872 571 850.5 467.5 c 128,-1,31
 829 364 829 364 792.5 282 c 128,-1,32
 756 200 756 200 708.5 124.5 c 128,-1,33
 661 49 661 49 609 -8.5 c 128,-1,34
 557 -66 557 -66 505 -114.5 c 128,-1,35
 453 -163 453 -163 405.5 -196.5 c 128,-1,36
 358 -230 358 -230 322 -254 c 0,37,38
 286 -278 286 -278 264 -288 c 2,39,-1
 242 -299 l 1,40,-1
 172 -238 l 1,41,42
 185 -231 185 -231 207 -216 c 128,-1,43
 229 -201 229 -201 289.5 -144.5 c 128,-1,44
 350 -88 350 -88 401 -21 c 128,-1,45
 452 46 452 46 506.5 160 c 128,-1,46
 561 274 561 274 588 403 c 1,13,14
EndSplineSet
Validated: 1
EndChar

StartChar: eight
Encoding: 56 56 76
Width: 942
VWidth: 0
Flags: W
HStem: -20 102<367 585> 1352 102<394 555>
VStem: 41 266<194 533> 90 266<960 1258> 604 266<937 1258> 635 266<190 530>
LayerCount: 2
Fore
SplineSet
356 1102 m 0,0,1
 356 1040 356 1040 383.5 989 c 128,-1,2
 411 938 411 938 446.5 907.5 c 128,-1,3
 482 877 482 877 541 840 c 1,4,5
 579 885 579 885 591.5 945 c 128,-1,6
 604 1005 604 1005 604 1085 c 0,7,8
 604 1208 604 1208 572 1280 c 128,-1,9
 540 1352 540 1352 475 1352 c 0,10,11
 407 1352 407 1352 381.5 1291.5 c 128,-1,12
 356 1231 356 1231 356 1102 c 0,0,1
293 752 m 1,13,14
 247 782 247 782 214 811.5 c 128,-1,15
 181 841 181 841 151 882.5 c 128,-1,16
 121 924 121 924 105.5 979 c 128,-1,17
 90 1034 90 1034 90 1102 c 0,18,19
 90 1199 90 1199 147.5 1280.5 c 128,-1,20
 205 1362 205 1362 297.5 1408 c 128,-1,21
 390 1454 390 1454 492 1454 c 0,22,23
 643 1454 643 1454 756.5 1347.5 c 128,-1,24
 870 1241 870 1241 870 1085 c 0,25,26
 870 1000 870 1000 813 916 c 128,-1,27
 756 832 756 832 668 762 c 1,28,29
 720 729 720 729 757.5 696.5 c 128,-1,30
 795 664 795 664 830 617 c 128,-1,31
 865 570 865 570 883 506.5 c 128,-1,32
 901 443 901 443 901 365 c 0,33,34
 901 198 901 198 776.5 89 c 128,-1,35
 652 -20 652 -20 457 -20 c 0,36,37
 284 -20 284 -20 162.5 94.5 c 128,-1,38
 41 209 41 209 41 365 c 0,39,40
 41 477 41 477 112 577.5 c 128,-1,41
 183 678 183 678 293 752 c 1,13,14
403 686 m 1,42,43
 347 636 347 636 327 558 c 128,-1,44
 307 480 307 480 307 365 c 0,45,46
 307 301 307 301 313.5 254 c 128,-1,47
 320 207 320 207 337 166 c 128,-1,48
 354 125 354 125 387.5 103.5 c 128,-1,49
 421 82 421 82 471 82 c 0,50,51
 523 82 523 82 556.5 100.5 c 128,-1,52
 590 119 590 119 607 159 c 128,-1,53
 624 199 624 199 629.5 245.5 c 128,-1,54
 635 292 635 292 635 365 c 0,55,56
 635 428 635 428 617.5 478 c 128,-1,57
 600 528 600 528 563 566.5 c 128,-1,58
 526 605 526 605 492 629.5 c 128,-1,59
 458 654 458 654 403 686 c 1,42,43
EndSplineSet
Validated: 1
EndChar

StartChar: ampersand
Encoding: 38 38 77
Width: 1265
VWidth: 0
Flags: W
HStem: -20 102<450 784> 0 43G<902 1153> 1270 102<564 754>
VStem: 61 256<257 641> 311 231<914 1248> 973 215<498 829>
LayerCount: 2
Fore
SplineSet
991 1208 m 1,0,-1
 782 1174 l 1,1,2
 768 1204 768 1204 761 1216.5 c 128,-1,3
 754 1229 754 1229 738 1244.5 c 128,-1,4
 722 1260 722 1260 699 1265 c 128,-1,5
 676 1270 676 1270 639 1270 c 0,6,7
 606 1270 606 1270 585 1254.5 c 128,-1,8
 564 1239 564 1239 555.5 1207 c 128,-1,9
 547 1175 547 1175 545 1149.5 c 128,-1,10
 543 1124 543 1124 543 1081 c 0,11,12
 543 1025 543 1025 576 942.5 c 128,-1,13
 609 860 609 860 636.5 812.5 c 128,-1,14
 664 765 664 765 690 725 c 2,15,-1
 928 352 l 1,16,17
 973 514 973 514 973 877 c 1,18,-1
 1188 829 l 1,19,20
 1188 663 1188 663 1145 499.5 c 128,-1,21
 1102 336 1102 336 1016 213 c 1,22,-1
 1153 0 l 1,23,-1
 928 0 l 1,24,-1
 881 74 l 1,25,26
 750 -20 750 -20 575 -20 c 0,27,28
 475 -20 475 -20 382.5 14 c 128,-1,29
 290 48 290 48 218.5 107.5 c 128,-1,30
 147 167 147 167 104 257 c 128,-1,31
 61 347 61 347 61 451 c 0,32,33
 61 602 61 602 150 716.5 c 128,-1,34
 239 831 239 831 369 885 c 1,35,36
 311 992 311 992 311 1081 c 0,37,38
 311 1372 311 1372 670 1372 c 0,39,40
 787 1372 787 1372 876 1319 c 128,-1,41
 965 1266 965 1266 991 1208 c 1,0,-1
432 774 m 1,42,43
 377 729 377 729 347 645.5 c 128,-1,44
 317 562 317 562 317 451 c 0,45,46
 317 278 317 278 390 180 c 128,-1,47
 463 82 463 82 606 82 c 0,48,49
 747 82 747 82 825 160 c 1,50,-1
 432 774 l 1,42,43
EndSplineSet
Validated: 1
EndChar

StartChar: parenleft
Encoding: 40 40 78
Width: 641
VWidth: 0
Flags: W
HStem: 0 43G<359 539> 1393 41G<359 539>
VStem: 102 256<389 1044>
LayerCount: 2
Fore
SplineSet
102 717 m 128,-1,1
 102 821 102 821 117 917.5 c 128,-1,2
 132 1014 132 1014 156 1083.5 c 128,-1,3
 180 1153 180 1153 209 1213.5 c 128,-1,4
 238 1274 238 1274 267.5 1313.5 c 128,-1,5
 297 1353 297 1353 321 1381 c 0,6,7
 345 1410 345 1410 360 1422 c 2,8,-1
 375 1434 l 1,9,-1
 539 1434 l 1,10,11
 532 1424 532 1424 519.5 1404.5 c 128,-1,12
 507 1385 507 1385 476 1317 c 128,-1,13
 445 1249 445 1249 421 1172.5 c 128,-1,14
 397 1096 397 1096 377.5 972.5 c 128,-1,15
 358 849 358 849 358 717 c 128,-1,16
 358 585 358 585 376.5 462.5 c 128,-1,17
 395 340 395 340 421.5 260 c 128,-1,18
 448 180 448 180 475 118 c 128,-1,19
 502 56 502 56 520 28 c 2,20,-1
 539 0 l 1,21,-1
 375 0 l 1,22,23
 369 4 369 4 359.5 12.5 c 128,-1,24
 350 21 350 21 321.5 52.5 c 128,-1,25
 293 84 293 84 267 121 c 128,-1,26
 241 158 241 158 209.5 220 c 128,-1,27
 178 282 178 282 155.5 351 c 128,-1,28
 133 420 133 420 117.5 516.5 c 128,-1,0
 102 613 102 613 102 717 c 128,-1,1
EndSplineSet
Validated: 1
EndChar

StartChar: parenright
Encoding: 41 41 79
Width: 641
VWidth: 0
Flags: W
HStem: 0 43G<102 282> 1393 41G<102 282>
VStem: 283 256<389 1044>
LayerCount: 2
Fore
SplineSet
539 717 m 128,-1,1
 539 613 539 613 524 516.5 c 128,-1,2
 509 420 509 420 485 350.5 c 128,-1,3
 461 281 461 281 431.5 220.5 c 128,-1,4
 402 160 402 160 373 120.5 c 128,-1,5
 344 81 344 81 320 53 c 0,6,7
 296 24 296 24 281 12 c 2,8,-1
 266 0 l 1,9,-1
 102 0 l 1,10,11
 109 10 109 10 121.5 29.5 c 128,-1,12
 134 49 134 49 165 117 c 128,-1,13
 196 185 196 185 220 261.5 c 128,-1,14
 244 338 244 338 263.5 461.5 c 128,-1,15
 283 585 283 585 283 717 c 128,-1,16
 283 849 283 849 264.5 971.5 c 128,-1,17
 246 1094 246 1094 219 1174 c 128,-1,18
 192 1254 192 1254 166 1316 c 0,19,20
 138 1378 138 1378 120 1406 c 2,21,-1
 102 1434 l 1,22,-1
 266 1434 l 1,23,24
 272 1430 272 1430 281.5 1421.5 c 128,-1,25
 291 1413 291 1413 319.5 1381.5 c 128,-1,26
 348 1350 348 1350 374 1313 c 128,-1,27
 400 1276 400 1276 431.5 1214 c 128,-1,28
 463 1152 463 1152 485.5 1083 c 128,-1,29
 508 1014 508 1014 523.5 917.5 c 128,-1,0
 539 821 539 821 539 717 c 128,-1,1
EndSplineSet
Validated: 1
EndChar

StartChar: asterisk
Encoding: 42 42 80
Width: 921
VWidth: 0
Flags: W
LayerCount: 2
Fore
SplineSet
395 1092 m 1,0,-1
 373 1374 l 1,1,-1
 549 1374 l 1,2,-1
 526 1092 l 1,3,-1
 791 1200 l 1,4,-1
 844 1032 l 1,5,-1
 567 967 l 1,6,-1
 752 750 l 1,7,-1
 610 645 l 1,8,-1
 461 887 l 1,9,-1
 311 645 l 1,10,-1
 170 750 l 1,11,-1
 354 967 l 1,12,-1
 78 1032 l 1,13,-1
 131 1200 l 1,14,-1
 395 1092 l 1,0,-1
EndSplineSet
Validated: 1
EndChar

StartChar: plus
Encoding: 43 43 81
Width: 856
VWidth: 0
Flags: W
HStem: 348 102<82 332 524 774>
VStem: 332 193<53 348 451 745>
LayerCount: 2
Fore
SplineSet
524 348 m 1,0,-1
 524 53 l 1,1,-1
 332 53 l 1,2,-1
 332 348 l 1,3,-1
 82 348 l 1,4,-1
 82 451 l 1,5,-1
 332 451 l 1,6,-1
 332 745 l 1,7,-1
 524 745 l 1,8,-1
 524 451 l 1,9,-1
 774 451 l 1,10,-1
 774 348 l 1,11,-1
 524 348 l 1,0,-1
EndSplineSet
Validated: 1
EndChar

StartChar: hyphen
Encoding: 45 45 82
Width: 649
VWidth: 0
Flags: W
HStem: 348 102<82 567>
VStem: 82 485<348 451>
LayerCount: 2
Fore
SplineSet
82 451 m 1,0,-1
 567 451 l 1,1,-1
 567 348 l 1,2,-1
 82 348 l 1,3,-1
 82 451 l 1,0,-1
EndSplineSet
Validated: 1
EndChar

StartChar: less
Encoding: 60 60 83
Width: 917
VWidth: 0
Flags: W
HStem: 860 41G<665 751>
LayerCount: 2
Fore
SplineSet
115 473 m 1,0,-1
 723 901 l 1,1,-1
 803 786 l 1,2,-1
 354 473 l 1,3,-1
 803 162 l 1,4,-1
 723 47 l 1,5,-1
 115 473 l 1,0,-1
EndSplineSet
Validated: 1
EndChar

StartChar: greater
Encoding: 62 62 84
Width: 917
VWidth: 0
Flags: W
HStem: 860 41G<166 253>
LayerCount: 2
Fore
SplineSet
803 475 m 1,0,-1
 195 47 l 1,1,-1
 115 162 l 1,2,-1
 563 475 l 1,3,-1
 115 786 l 1,4,-1
 195 901 l 1,5,-1
 803 475 l 1,0,-1
EndSplineSet
Validated: 1
EndChar

StartChar: equal
Encoding: 61 61 85
Width: 708
VWidth: 0
Flags: W
HStem: 348 102<82 627> 573 102<82 627>
VStem: 82 545<348 451 573 676>
LayerCount: 2
Fore
SplineSet
82 676 m 1,0,-1
 627 676 l 1,1,-1
 627 573 l 1,2,-1
 82 573 l 1,3,-1
 82 676 l 1,0,-1
82 451 m 1,4,-1
 627 451 l 1,5,-1
 627 348 l 1,6,-1
 82 348 l 1,7,-1
 82 451 l 1,4,-1
EndSplineSet
Validated: 1
EndChar

StartChar: at
Encoding: 64 64 86
Width: 1488
VWidth: 0
Flags: W
HStem: -20 102<622 1052> 262 102<960 1074> 279 66<677 831> 860 66<677 798> 1126 102<584 920>
VStem: 61 256<390 833> 467 145<418 782> 807 143<368 857> 1112 256<510 923>
LayerCount: 2
Fore
SplineSet
954 745 m 0,0,1
 954 698 954 698 952 630 c 128,-1,2
 950 562 950 562 950 512 c 0,3,4
 950 426 950 426 964.5 395.5 c 128,-1,5
 979 365 979 365 1008 365 c 0,6,7
 1031 365 1031 365 1049 376.5 c 128,-1,8
 1067 388 1067 388 1078 413 c 128,-1,9
 1089 438 1089 438 1096 467 c 128,-1,10
 1103 496 1103 496 1106.5 541 c 128,-1,11
 1110 586 1110 586 1111 625.5 c 128,-1,12
 1112 665 1112 665 1112 723 c 0,13,14
 1112 816 1112 816 1080 895 c 128,-1,15
 1048 974 1048 974 998 1023 c 128,-1,16
 948 1072 948 1072 889.5 1099 c 128,-1,17
 831 1126 831 1126 774 1126 c 0,18,19
 683 1126 683 1126 602 1093 c 128,-1,20
 521 1060 521 1060 456.5 998 c 128,-1,21
 392 936 392 936 354.5 836.5 c 128,-1,22
 317 737 317 737 317 614 c 0,23,24
 317 505 317 505 350 413.5 c 128,-1,25
 383 322 383 322 435.5 262.5 c 128,-1,26
 488 203 488 203 554.5 161 c 128,-1,27
 621 119 621 119 686.5 100.5 c 128,-1,28
 752 82 752 82 813 82 c 0,29,30
 940 82 940 82 1068.5 131.5 c 128,-1,31
 1197 181 1197 181 1251 264 c 1,32,-1
 1372 209 l 1,33,34
 1286 98 1286 98 1152.5 39 c 128,-1,35
 1019 -20 1019 -20 782 -20 c 0,36,37
 678 -20 678 -20 576.5 4 c 128,-1,38
 475 28 475 28 381.5 79.5 c 128,-1,39
 288 131 288 131 217 204.5 c 128,-1,40
 146 278 146 278 103.5 383.5 c 128,-1,41
 61 489 61 489 61 614 c 0,42,43
 61 725 61 725 99 824 c 128,-1,44
 137 923 137 923 203 995.5 c 128,-1,45
 269 1068 269 1068 355.5 1121.5 c 128,-1,46
 442 1175 442 1175 541.5 1202 c 128,-1,47
 641 1229 641 1229 743 1229 c 0,48,49
 1022 1229 1022 1229 1195 1092 c 128,-1,50
 1368 955 1368 955 1368 723 c 0,51,52
 1368 635 1368 635 1340.5 552.5 c 128,-1,53
 1313 470 1313 470 1264.5 405 c 128,-1,54
 1216 340 1216 340 1141 301 c 128,-1,55
 1066 262 1066 262 977 262 c 0,56,57
 910 262 910 262 866 309 c 1,58,59
 814 279 814 279 729 279 c 0,60,61
 607 279 607 279 537 374.5 c 128,-1,62
 467 470 467 470 467 614 c 0,63,64
 467 747 467 747 550.5 836.5 c 128,-1,65
 634 926 634 926 737 926 c 0,66,67
 827 926 827 926 890.5 881 c 128,-1,68
 954 836 954 836 954 745 c 0,0,1
831 367 m 1,69,70
 807 430 807 430 807 512 c 0,71,72
 807 570 807 570 809 625 c 128,-1,73
 811 680 811 680 811 745 c 0,74,75
 811 860 811 860 758 860 c 0,76,77
 687 860 687 860 649.5 792.5 c 128,-1,78
 612 725 612 725 612 614 c 0,79,80
 612 498 612 498 646 421 c 128,-1,81
 680 344 680 344 748 344 c 0,82,83
 805 344 805 344 831 367 c 1,69,70
EndSplineSet
Validated: 1
EndChar

StartChar: bracketleft
Encoding: 91 91 87
Width: 524
VWidth: 0
Flags: W
HStem: 0 82<297 432> 1270 82<297 432>
VStem: 92 205<82 1270>
LayerCount: 2
Fore
SplineSet
432 0 m 1,0,-1
 92 0 l 1,1,-1
 92 1352 l 1,2,-1
 432 1352 l 1,3,-1
 432 1270 l 1,4,-1
 297 1270 l 1,5,-1
 297 82 l 1,6,-1
 432 82 l 1,7,-1
 432 0 l 1,0,-1
EndSplineSet
Validated: 1
EndChar

StartChar: bracketright
Encoding: 93 93 88
Width: 524
VWidth: 0
Flags: W
HStem: 0 82<92 227> 1270 82<92 227>
VStem: 227 205<82 1270>
LayerCount: 2
Fore
SplineSet
92 1352 m 1,0,-1
 432 1352 l 1,1,-1
 432 0 l 1,2,-1
 92 0 l 1,3,-1
 92 82 l 1,4,-1
 227 82 l 1,5,-1
 227 1270 l 1,6,-1
 92 1270 l 1,7,-1
 92 1352 l 1,0,-1
EndSplineSet
Validated: 1
EndChar

StartChar: underscore
Encoding: 95 95 89
Width: 692
VWidth: 0
Flags: W
HStem: -184 102<0 692>
LayerCount: 2
Fore
SplineSet
0 -82 m 1,0,-1
 692 -82 l 1,1,-1
 692 -184 l 1,2,-1
 0 -184 l 1,3,-1
 0 -82 l 1,0,-1
EndSplineSet
Validated: 1
EndChar

StartChar: braceleft
Encoding: 123 123 90
Width: 571
VWidth: 0
Flags: W
HStem: 0 43G<208 489> 1393 41G<208 489>
VStem: 82 408
LayerCount: 2
Fore
SplineSet
346 1434 m 1,0,-1
 489 1434 l 1,1,2
 435 1395 435 1395 416 1332 c 128,-1,3
 397 1269 397 1269 397 1180 c 0,4,5
 397 1152 397 1152 399 1092 c 128,-1,6
 401 1032 401 1032 401 1004 c 0,7,8
 401 902 401 902 375 830.5 c 128,-1,9
 349 759 349 759 276 717 c 1,10,11
 351 675 351 675 376 603.5 c 128,-1,12
 401 532 401 532 401 428 c 0,13,14
 401 400 401 400 399 341 c 128,-1,15
 397 282 397 282 397 254 c 0,16,17
 397 165 397 165 416 102 c 128,-1,18
 435 39 435 39 489 0 c 1,19,-1
 346 0 l 1,20,21
 290 32 290 32 255 81.5 c 128,-1,22
 220 131 220 131 206.5 187 c 128,-1,23
 193 243 193 243 187.5 304 c 128,-1,24
 182 365 182 365 179.5 425.5 c 128,-1,25
 177 486 177 486 170.5 540 c 128,-1,26
 164 594 164 594 142.5 641.5 c 128,-1,27
 121 689 121 689 82 717 c 1,28,29
 121 745 121 745 142.5 792.5 c 128,-1,30
 164 840 164 840 170.5 894 c 128,-1,31
 177 948 177 948 179.5 1008.5 c 128,-1,32
 182 1069 182 1069 187.5 1130 c 128,-1,33
 193 1191 193 1191 206.5 1247 c 128,-1,34
 220 1303 220 1303 255 1352.5 c 128,-1,35
 290 1402 290 1402 346 1434 c 1,0,-1
EndSplineSet
Validated: 1
EndChar

StartChar: braceright
Encoding: 125 125 91
Width: 571
VWidth: 0
Flags: W
HStem: 0 43G<82 364> 1393 41G<82 364>
VStem: 82 408
LayerCount: 2
Fore
SplineSet
225 0 m 1,0,-1
 82 0 l 1,1,2
 136 39 136 39 155 102 c 128,-1,3
 174 165 174 165 174 254 c 0,4,5
 174 282 174 282 172 342 c 128,-1,6
 170 402 170 402 170 430 c 0,7,8
 170 532 170 532 196 603.5 c 128,-1,9
 222 675 222 675 295 717 c 1,10,11
 220 759 220 759 195 830.5 c 128,-1,12
 170 902 170 902 170 1006 c 0,13,14
 170 1034 170 1034 172 1093 c 128,-1,15
 174 1152 174 1152 174 1180 c 0,16,17
 174 1269 174 1269 155 1332 c 128,-1,18
 136 1395 136 1395 82 1434 c 1,19,-1
 225 1434 l 1,20,21
 281 1402 281 1402 316 1352.5 c 128,-1,22
 351 1303 351 1303 364.5 1247 c 128,-1,23
 378 1191 378 1191 383.5 1130 c 128,-1,24
 389 1069 389 1069 391.5 1008.5 c 128,-1,25
 394 948 394 948 400.5 894 c 128,-1,26
 407 840 407 840 428.5 792.5 c 128,-1,27
 450 745 450 745 489 717 c 1,28,29
 450 689 450 689 428.5 641.5 c 128,-1,30
 407 594 407 594 400.5 540 c 128,-1,31
 394 486 394 486 391.5 425.5 c 128,-1,32
 389 365 389 365 383.5 304 c 128,-1,33
 378 243 378 243 364.5 187 c 128,-1,34
 351 131 351 131 316 81.5 c 128,-1,35
 281 32 281 32 225 0 c 1,0,-1
EndSplineSet
Validated: 1
EndChar

StartChar: gravecomb
Encoding: 768 768 92
Width: 0
VWidth: 0
Flags: W
HStem: 1249 403
VStem: -725 371
AnchorPoint: "mktop" -455 1188 mark 0
AnchorPoint: "mktop" -453 1638 basemark 0
AnchorPoint: "top" -455 1188 mark 0
LayerCount: 2
Fore
SplineSet
-575 1653 m 25,0,-1
 -354 1303 l 1,1,-1
 -418 1249 l 1,2,-1
 -725 1530 l 1,3,-1
 -575 1653 l 25,0,-1
EndSplineSet
Validated: 1
EndChar

StartChar: acutecomb
Encoding: 769 769 93
Width: 0
VWidth: 0
Flags: W
HStem: 1249 403
VStem: -688 371
AnchorPoint: "mktop" -588 1189 mark 0
AnchorPoint: "mktop" -586 1638 basemark 0
AnchorPoint: "top" -588 1188 mark 0
LayerCount: 2
Fore
SplineSet
-467 1653 m 25,0,-1
 -317 1530 l 1,1,-1
 -625 1249 l 1,2,-1
 -688 1303 l 1,3,-1
 -467 1653 l 25,0,-1
EndSplineSet
Validated: 1
EndChar

StartChar: uni0302
Encoding: 770 770 94
Width: 0
VWidth: 0
Flags: W
HStem: 1257 299
VStem: -862 551
AnchorPoint: "mktop" -588 1188 mark 0
AnchorPoint: "mktop" -586 1556 basemark 0
AnchorPoint: "top" -588 1188 mark 0
LayerCount: 2
Fore
SplineSet
-311 1358 m 1,0,-1
 -424 1257 l 1,1,-1
 -586 1413 l 1,2,-1
 -750 1257 l 1,3,-1
 -862 1358 l 1,4,-1
 -586 1556 l 1,5,-1
 -311 1358 l 1,0,-1
EndSplineSet
Validated: 1
EndChar

StartChar: tildecomb
Encoding: 771 771 95
Width: 0
VWidth: 0
Flags: W
HStem: 1270 141<-585 -386> 1335 141<-769 -570>
VStem: -860 84<1270 1322> -379 84<1424 1477>
AnchorPoint: "mktop" -586 1188 mark 0
AnchorPoint: "mktop" -586 1479 basemark 0
AnchorPoint: "top" -588 1188 mark 0
LayerCount: 2
Fore
SplineSet
-379 1477 m 1,0,-1
 -295 1477 l 1,1,2
 -305 1393 -305 1393 -358.5 1331.5 c 128,-1,3
 -412 1270 -412 1270 -496 1270 c 0,4,5
 -534 1270 -534 1270 -592.5 1302.5 c 128,-1,6
 -651 1335 -651 1335 -670 1335 c 0,7,8
 -767 1335 -767 1335 -776 1270 c 1,9,-1
 -860 1270 l 1,10,11
 -850 1354 -850 1354 -796.5 1415.5 c 128,-1,12
 -743 1477 -743 1477 -659 1477 c 0,13,14
 -621 1477 -621 1477 -562.5 1444 c 128,-1,15
 -504 1411 -504 1411 -485 1411 c 0,16,17
 -388 1411 -388 1411 -379 1477 c 1,0,-1
EndSplineSet
Validated: 1
EndChar

StartChar: uni0304
Encoding: 772 772 96
Width: 0
VWidth: 0
Flags: W
HStem: 1270 115<-834 -362>
VStem: -834 471<1270 1384>
AnchorPoint: "mktop" -586 1382 basemark 0
AnchorPoint: "mktop" -587 1187 mark 0
AnchorPoint: "top" -588 1188 mark 0
LayerCount: 2
Fore
SplineSet
-834 1384 m 1,0,-1
 -362 1384 l 1,1,-1
 -362 1270 l 1,2,-1
 -834 1270 l 1,3,-1
 -834 1384 l 1,0,-1
EndSplineSet
Validated: 1
EndChar

StartChar: uni0306
Encoding: 774 774 97
Width: 0
VWidth: 0
Flags: W
HStem: 1270 137<-710 -466>
VStem: -819 78<1446 1468> -434 78<1446 1468>
AnchorPoint: "mktop" -586 1192 mark 0
AnchorPoint: "mktop" -586 1530 basemark 0
AnchorPoint: "top" -588 1188 mark 0
LayerCount: 2
Fore
SplineSet
-588 1407 m 128,-1,1
 -532 1407 -532 1407 -485.5 1436.5 c 128,-1,2
 -439 1466 -439 1466 -434 1501 c 1,3,-1
 -356 1460 l 1,4,5
 -365 1382 -365 1382 -432.5 1326 c 128,-1,6
 -500 1270 -500 1270 -588 1270 c 128,-1,7
 -676 1270 -676 1270 -743 1326 c 128,-1,8
 -810 1382 -810 1382 -819 1460 c 1,9,-1
 -741 1501 l 1,10,11
 -736 1466 -736 1466 -690 1436.5 c 128,-1,0
 -644 1407 -644 1407 -588 1407 c 128,-1,1
EndSplineSet
Validated: 1
EndChar

StartChar: uni0307
Encoding: 775 775 98
Width: 0
VWidth: 0
Flags: W
HStem: 1270 170<-676 -506>
VStem: -676 170<1270 1440>
AnchorPoint: "mktop" -586 1188 mark 0
AnchorPoint: "mktop" -586 1454 basemark 0
AnchorPoint: "top" -588 1188 mark 0
LayerCount: 2
Fore
SplineSet
-676 1440 m 1,0,-1
 -506 1440 l 1,1,-1
 -506 1270 l 1,2,-1
 -676 1270 l 1,3,-1
 -676 1440 l 1,0,-1
EndSplineSet
Validated: 1
EndChar

StartChar: uni030A
Encoding: 778 778 100
Width: 0
VWidth: 0
Flags: W
HStem: 1167 72<-655 -520> 1407 72<-655 -520>
VStem: -743 72<1255 1391> -504 72<1255 1391>
AnchorPoint: "mktop" -588 1188 mark 0
AnchorPoint: "mktop" -588 1479 basemark 0
AnchorPoint: "top" -588 1188 mark 0
LayerCount: 2
Fore
SplineSet
-672 1323 m 128,-1,1
 -672 1289 -672 1289 -647.5 1264 c 128,-1,2
 -623 1239 -623 1239 -588 1239 c 128,-1,3
 -553 1239 -553 1239 -528.5 1264 c 128,-1,4
 -504 1289 -504 1289 -504 1323 c 128,-1,5
 -504 1357 -504 1357 -528.5 1382 c 128,-1,6
 -553 1407 -553 1407 -588 1407 c 128,-1,7
 -623 1407 -623 1407 -647.5 1382 c 128,-1,0
 -672 1357 -672 1357 -672 1323 c 128,-1,1
-743 1323 m 128,-1,9
 -743 1388 -743 1388 -697.5 1433.5 c 128,-1,10
 -652 1479 -652 1479 -588 1479 c 128,-1,11
 -524 1479 -524 1479 -478 1433.5 c 128,-1,12
 -432 1388 -432 1388 -432 1323 c 128,-1,13
 -432 1258 -432 1258 -478 1212.5 c 128,-1,14
 -524 1167 -524 1167 -588 1167 c 128,-1,15
 -652 1167 -652 1167 -697.5 1212.5 c 128,-1,8
 -743 1258 -743 1258 -743 1323 c 128,-1,9
EndSplineSet
Validated: 1
EndChar

StartChar: uni030C
Encoding: 780 780 102
Width: 0
VWidth: 0
Flags: W
HStem: 1139 387
VStem: -827 479
AnchorPoint: "mktop" -586 1188 mark 0
AnchorPoint: "mktop" -586 1526 basemark 0
AnchorPoint: "top" -588 1188 mark 0
LayerCount: 2
Fore
SplineSet
-588 1139 m 1,0,-1
 -827 1473 l 1,1,-1
 -764 1526 l 1,2,-1
 -588 1346 l 1,3,-1
 -412 1526 l 1,4,-1
 -348 1473 l 1,5,-1
 -588 1139 l 1,0,-1
EndSplineSet
Validated: 1
EndChar

StartChar: uni0311
Encoding: 785 785 104
Width: 0
VWidth: 0
Flags: W
HStem: 1343 137<-710 -466>
VStem: -819 78<1283 1304> -434 78<1283 1304>
AnchorPoint: "mktop" -588 1188 mark 0
AnchorPoint: "mktop" -588 1460 basemark 0
AnchorPoint: "top" -588 1188 mark 0
LayerCount: 2
Fore
SplineSet
-588 1343 m 128,-1,1
 -644 1343 -644 1343 -690 1313.5 c 128,-1,2
 -736 1284 -736 1284 -741 1249 c 1,3,-1
 -819 1290 l 1,4,5
 -810 1368 -810 1368 -743 1424.5 c 128,-1,6
 -676 1481 -676 1481 -588 1481 c 128,-1,7
 -500 1481 -500 1481 -432.5 1424.5 c 128,-1,8
 -365 1368 -365 1368 -356 1290 c 1,9,-1
 -434 1249 l 1,10,11
 -439 1284 -439 1284 -485.5 1313.5 c 128,-1,0
 -532 1343 -532 1343 -588 1343 c 128,-1,1
EndSplineSet
Validated: 1
EndChar

StartChar: uni0312
Encoding: 786 786 105
Width: 0
VWidth: 0
Flags: W
HStem: 1270 367<-614 -547>
VStem: -684 180<1270 1482>
AnchorPoint: "mktop" -588 1188 mark 0
AnchorPoint: "mktop" -582 1636 basemark 0
AnchorPoint: "top" -588 1188 mark 0
LayerCount: 2
Fore
SplineSet
-504 1270 m 1,0,-1
 -684 1270 l 1,1,2
 -684 1325 -684 1325 -681.5 1370.5 c 128,-1,3
 -679 1416 -679 1416 -673.5 1450 c 128,-1,4
 -668 1484 -668 1484 -663.5 1507.5 c 128,-1,5
 -659 1531 -659 1531 -649.5 1553.5 c 128,-1,6
 -640 1576 -640 1576 -635.5 1585.5 c 128,-1,7
 -631 1595 -631 1595 -619.5 1613.5 c 128,-1,8
 -608 1632 -608 1632 -606 1636 c 1,9,-1
 -498 1636 l 1,10,11
 -547 1567 -547 1567 -547 1485 c 0,12,13
 -547 1460 -547 1460 -525.5 1390 c 128,-1,14
 -504 1320 -504 1320 -504 1270 c 1,0,-1
EndSplineSet
Validated: 1
EndChar

StartChar: uni0313
Encoding: 787 787 106
Width: 0
VWidth: 0
Flags: W
HStem: 1270 367<-780 -713>
VStem: -643 180<1424 1636>
AnchorPoint: "mktop" -588 1188 mark 0
AnchorPoint: "mktop" -588 1636 basemark 0
AnchorPoint: "top" -588 1188 mark 0
LayerCount: 2
Fore
SplineSet
-643 1636 m 1,0,-1
 -463 1636 l 1,1,2
 -463 1581 -463 1581 -465.5 1535.5 c 128,-1,3
 -468 1490 -468 1490 -473.5 1456 c 128,-1,4
 -479 1422 -479 1422 -483.5 1398.5 c 128,-1,5
 -488 1375 -488 1375 -497.5 1352.5 c 128,-1,6
 -507 1330 -507 1330 -511.5 1320.5 c 128,-1,7
 -516 1311 -516 1311 -527.5 1292.5 c 128,-1,8
 -539 1274 -539 1274 -541 1270 c 1,9,-1
 -649 1270 l 1,10,11
 -600 1339 -600 1339 -600 1421 c 0,12,13
 -600 1446 -600 1446 -621.5 1516 c 128,-1,14
 -643 1586 -643 1586 -643 1636 c 1,0,-1
EndSplineSet
Validated: 1
EndChar

StartChar: uni0314
Encoding: 788 788 107
Width: 0
VWidth: 0
Flags: W
HStem: 1270 367<-648 -582>
VStem: -719 180<1424 1636>
AnchorPoint: "mktop" -588 1636 basemark 0
AnchorPoint: "mktop" -588 1188 mark 0
AnchorPoint: "top" -588 1188 mark 0
LayerCount: 2
Fore
SplineSet
-539 1636 m 1,0,1
 -539 1586 -539 1586 -560.5 1516 c 128,-1,2
 -582 1446 -582 1446 -582 1421 c 0,3,4
 -582 1341 -582 1341 -532 1270 c 1,5,-1
 -641 1270 l 1,6,7
 -643 1274 -643 1274 -654.5 1292.5 c 128,-1,8
 -666 1311 -666 1311 -670.5 1320.5 c 128,-1,9
 -675 1330 -675 1330 -684.5 1352.5 c 128,-1,10
 -694 1375 -694 1375 -698.5 1398.5 c 128,-1,11
 -703 1422 -703 1422 -708.5 1456 c 128,-1,12
 -714 1490 -714 1490 -716.5 1535.5 c 128,-1,13
 -719 1581 -719 1581 -719 1636 c 1,14,-1
 -539 1636 l 1,0,1
EndSplineSet
Validated: 1
EndChar

StartChar: uni0326
Encoding: 806 806 108
Width: 0
VWidth: 0
Flags: W
HStem: -401 49<-745 -603> -164 57<-672 -588>
VStem: -555 158<-328 -184>
AnchorPoint: "cedilla" -590 0 mark 0
LayerCount: 2
Fore
SplineSet
-672 -106 m 17,0,1
 -554 -106 -554 -106 -475.5 -148 c 128,-1,2
 -397 -190 -397 -190 -397 -250 c 0,3,4
 -397 -315 -397 -315 -488.5 -358 c 128,-1,5
 -580 -401 -580 -401 -745 -401 c 1,6,-1
 -745 -352 l 1,7,8
 -555 -352 -555 -352 -555 -262 c 0,9,10
 -555 -216 -555 -216 -581 -194.5 c 128,-1,11
 -607 -173 -607 -173 -672 -164 c 1,12,-1
 -672 -106 l 17,0,1
EndSplineSet
Validated: 1
EndChar

StartChar: uni0327
Encoding: 807 807 109
Width: 0
VWidth: 0
Flags: W
HStem: -401 49<-745 -603> -164 164<-659 -571>
VStem: -555 158<-327 -185>
AnchorPoint: "cedilla" -590 0 mark 0
LayerCount: 2
Fore
SplineSet
-688 -164 m 1,0,-1
 -659 0 l 1,1,-1
 -520 0 l 1,2,-1
 -535 -113 l 1,3,4
 -474 -126 -474 -126 -435.5 -161 c 128,-1,5
 -397 -196 -397 -196 -397 -250 c 0,6,7
 -397 -315 -397 -315 -488.5 -358 c 128,-1,8
 -580 -401 -580 -401 -745 -401 c 1,9,-1
 -745 -352 l 1,10,11
 -555 -352 -555 -352 -555 -262 c 0,12,13
 -555 -216 -555 -216 -586.5 -192 c 128,-1,14
 -618 -168 -618 -168 -688 -164 c 1,0,-1
EndSplineSet
Validated: 1
EndChar

StartChar: uni0328
Encoding: 808 808 110
Width: 0
VWidth: 0
Flags: W
HStem: -319 37<-518 -430>
VStem: -729 147<-254 -77>
AnchorPoint: "ogonek" -483 0 mark 0
LayerCount: 2
Fore
SplineSet
-483 25 m 9,0,1
 -483 0 l 1,2,3
 -522 -20 -522 -20 -552 -67 c 128,-1,4
 -582 -114 -582 -114 -582 -150 c 0,5,6
 -582 -283 -582 -283 -430 -283 c 1,7,-1
 -430 -319 l 1,8,9
 -586 -319 -586 -319 -657.5 -278.5 c 128,-1,10
 -729 -238 -729 -238 -729 -186 c 0,11,12
 -729 -148 -729 -148 -712 -116 c 128,-1,13
 -695 -84 -695 -84 -672 -63.5 c 128,-1,14
 -649 -43 -649 -43 -612 -24 c 128,-1,15
 -575 -5 -575 -5 -547.5 4.5 c 128,-1,16
 -520 14 -520 14 -483 25 c 9,0,1
EndSplineSet
Validated: 1
EndChar

StartChar: uni0237
Encoding: 567 567 111
Width: 598
VWidth: 0
Flags: W
HStem: -348 102<-3 199> 860 41G<221 477>
VStem: 221 256<-204 901>
AnchorPoint: "bottom" 129 -348 basechar 0
AnchorPoint: "horn" 389 717 basechar 0
AnchorPoint: "ogonek" 287 -266 basechar 0
AnchorPoint: "cedilla" 139 -348 basechar 0
AnchorPoint: "top" 348 1004 basechar 0
LayerCount: 2
Fore
SplineSet
33 -195 m 1,0,1
 69 -246 69 -246 141 -246 c 0,2,3
 189 -246 189 -246 205 -190.5 c 128,-1,4
 221 -135 221 -135 221 0 c 2,5,-1
 221 901 l 1,6,-1
 477 901 l 1,7,-1
 477 -68 l 2,8,9
 477 -140 477 -140 440.5 -196.5 c 128,-1,10
 404 -253 404 -253 347 -284.5 c 128,-1,11
 290 -316 290 -316 229.5 -332 c 128,-1,12
 169 -348 169 -348 111 -348 c 0,13,14
 -19 -348 -19 -348 -96 -256 c 1,15,-1
 33 -195 l 1,0,1
EndSplineSet
Validated: 1
EndChar

StartChar: dotlessi
Encoding: 305 305 112
Width: 499
VWidth: 0
Flags: W
HStem: 0 43G<123 379> 860 41G<123 379>
VStem: 123 256<0 901>
AnchorPoint: "ogonek" 326 0 basechar 0
AnchorPoint: "bottom" 250 0 basechar 0
AnchorPoint: "cedilla" 256 0 basechar 0
AnchorPoint: "horn" 297 717 basechar 0
AnchorPoint: "top" 254 1004 basechar 0
LayerCount: 2
Fore
SplineSet
123 901 m 1,0,-1
 379 901 l 1,1,-1
 379 0 l 1,2,-1
 123 0 l 1,3,-1
 123 901 l 1,0,-1
EndSplineSet
Validated: 1
EndChar

StartChar: Aring
Encoding: 197 197 143
Width: 1298
VWidth: 0
UnlinkRmOvrlpSave: 1
Flags: W
HStem: 0 21G<39 281.317 1020.73 1264> 410 102<461 842> 1653 72<587.726 714.358>
VStem: 496 71<1506.18 1632.27> 735 72<1506.18 1632.27>
AnchorPoint: "horn" 819 1085 basechar 0
AnchorPoint: "cedilla" 631 0 basechar 0
AnchorPoint: "bottom" 653 0 basechar 0
AnchorPoint: "ogonek" 1100 0 basechar 0
AnchorPoint: "top" 651 1761 basechar 0
LayerCount: 2
Fore
SplineSet
573 1434 m 1,0,1
 496 1480 496 1480 496 1557 c 128,-1,2
 496 1634 496 1634 541.5 1679.5 c 128,-1,3
 587 1725 587 1725 651 1725 c 128,-1,4
 715 1725 715 1725 761 1679.5 c 128,-1,5
 807 1634 807 1634 807 1557 c 128,-1,6
 807 1480 807 1480 730 1434 c 1,7,-1
 741 1434 l 1,8,-1
 1264 0 l 1,9,-1
 1028 0 l 1,10,-1
 879 410 l 1,11,-1
 424 410 l 1,12,-1
 274 0 l 1,13,-1
 39 0 l 1,14,-1
 561 1434 l 1,15,-1
 573 1434 l 1,0,1
567 1569 m 128,-1,17
 567 1535 567 1535 591.5 1510 c 128,-1,18
 616 1485 616 1485 651 1485 c 128,-1,19
 686 1485 686 1485 710.5 1510 c 128,-1,20
 735 1535 735 1535 735 1569 c 128,-1,21
 735 1603 735 1603 710.5 1628 c 128,-1,22
 686 1653 686 1653 651 1653 c 128,-1,23
 616 1653 616 1653 591.5 1628 c 128,-1,16
 567 1603 567 1603 567 1569 c 128,-1,17
651 1034 m 1,24,-1
 461 512 l 1,25,-1
 842 512 l 1,26,-1
 651 1034 l 1,24,-1
EndSplineSet
EndChar

StartChar: Thorn
Encoding: 222 222 163
Width: 1089
VWidth: 0
Flags: W
HStem: 0 43G<174 440> 328 102<440 665> 1004 102<440 665> 1393 41G<174 440>
VStem: 174 266<0 328 430 1004 1106 1434> 772 266<545 889>
LayerCount: 2
Fore
SplineSet
440 328 m 1,0,-1
 440 0 l 1,1,-1
 174 0 l 1,2,-1
 174 1434 l 1,3,-1
 440 1434 l 1,4,-1
 440 1106 l 1,5,-1
 594 1106 l 2,6,7
 688 1106 688 1106 765.5 1081 c 128,-1,8
 843 1056 843 1056 892.5 1016.5 c 128,-1,9
 942 977 942 977 976 925 c 128,-1,10
 1010 873 1010 873 1024 821 c 128,-1,11
 1038 769 1038 769 1038 717 c 128,-1,12
 1038 665 1038 665 1023.5 613 c 128,-1,13
 1009 561 1009 561 974.5 509 c 128,-1,14
 940 457 940 457 890.5 417.5 c 128,-1,15
 841 378 841 378 764 353 c 128,-1,16
 687 328 687 328 594 328 c 2,17,-1
 440 328 l 1,0,-1
440 1004 m 1,18,-1
 440 430 l 1,19,-1
 532 430 l 2,20,21
 582 430 582 430 623.5 448 c 128,-1,22
 665 466 665 466 692 495.5 c 128,-1,23
 719 525 719 525 737.5 563 c 128,-1,24
 756 601 756 601 764 639.5 c 128,-1,25
 772 678 772 678 772 717 c 128,-1,26
 772 756 772 756 764 794.5 c 128,-1,27
 756 833 756 833 737.5 871 c 128,-1,28
 719 909 719 909 692 938.5 c 128,-1,29
 665 968 665 968 623.5 986 c 128,-1,30
 582 1004 582 1004 532 1004 c 2,31,-1
 440 1004 l 1,18,-1
EndSplineSet
Validated: 1
EndChar

StartChar: thorn
Encoding: 254 254 164
Width: 1138
VWidth: 0
Flags: W
HStem: 0 102<403 573> 823 102<491 742> 1311 41G<147 403>
VStem: 147 256<-410 0 102 727 866 1352> 797 256<353 758>
LayerCount: 2
Fore
SplineSet
403 0 m 1,0,-1
 403 -410 l 1,1,-1
 147 -410 l 1,2,-1
 147 1352 l 1,3,-1
 403 1352 l 1,4,-1
 403 866 l 1,5,6
 498 926 498 926 608 926 c 0,7,8
 1053 926 1053 926 1053 569 c 0,9,10
 1053 479 1053 479 1027.5 397 c 128,-1,11
 1002 315 1002 315 948.5 244.5 c 128,-1,12
 895 174 895 174 819 121 c 128,-1,13
 743 68 743 68 636.5 36 c 128,-1,14
 530 4 530 4 403 0 c 1,0,-1
403 102 m 1,15,16
 531 105 531 105 621.5 169.5 c 128,-1,17
 712 234 712 234 754.5 336.5 c 128,-1,18
 797 439 797 439 797 569 c 0,19,20
 797 823 797 823 639 823 c 0,21,22
 508 823 508 823 455.5 743.5 c 128,-1,23
 403 664 403 664 403 508 c 2,24,-1
 403 102 l 1,15,16
EndSplineSet
Validated: 1
EndChar

StartChar: multiply
Encoding: 215 215 165
Width: 856
VWidth: 0
Flags: W
HStem: 219 582
VStem: 137 582
LayerCount: 2
Fore
SplineSet
520 510 m 1,0,-1
 719 311 l 1,1,-1
 627 219 l 1,2,-1
 428 418 l 1,3,-1
 229 219 l 1,4,-1
 137 311 l 1,5,-1
 336 510 l 1,6,-1
 137 709 l 1,7,-1
 229 801 l 1,8,-1
 428 602 l 1,9,-1
 627 801 l 1,10,-1
 719 709 l 1,11,-1
 520 510 l 1,0,-1
EndSplineSet
Validated: 1
EndChar

StartChar: oslash
Encoding: 248 248 167
Width: 1056
VWidth: 0
Flags: W
HStem: -20 102<456 644> 819 102<426 616>
VStem: 90 256<216 657> 715 256<223 680>
AnchorPoint: "top" 535 1004 basechar 0
AnchorPoint: "ogonek" 537 0 basechar 0
AnchorPoint: "bottom" 516 0 basechar 0
AnchorPoint: "horn" 881 635 basechar 0
AnchorPoint: "cedilla" 506 0 basechar 0
LayerCount: 2
Fore
SplineSet
971 451 m 0,0,1
 971 222 971 222 845 101 c 128,-1,2
 719 -20 719 -20 512 -20 c 0,3,4
 465 -20 465 -20 410 -10 c 1,5,-1
 373 -102 l 1,6,-1
 252 -102 l 1,7,-1
 303 27 l 1,8,9
 200 81 200 81 145 190.5 c 128,-1,10
 90 300 90 300 90 451 c 0,11,12
 90 555 90 555 127 645 c 128,-1,13
 164 735 164 735 224 794.5 c 128,-1,14
 284 854 284 854 359.5 888 c 128,-1,15
 435 922 435 922 512 922 c 0,16,17
 586 922 586 922 657 903 c 1,18,-1
 698 1004 l 1,19,-1
 819 1004 l 1,20,-1
 762 862 l 1,21,22
 971 745 971 745 971 451 c 0,0,1
375 205 m 1,23,-1
 616 801 l 1,24,25
 586 819 586 819 543 819 c 0,26,27
 435 819 435 819 390.5 725.5 c 128,-1,28
 346 632 346 632 346 451 c 0,29,30
 346 293 346 293 375 205 c 1,23,-1
455 102 m 1,31,32
 491 82 491 82 543 82 c 128,-1,33
 595 82 595 82 630 108 c 128,-1,34
 665 134 665 134 683 186 c 128,-1,35
 701 238 701 238 708 300.5 c 128,-1,36
 715 363 715 363 715 451 c 0,37,38
 715 598 715 598 690 686 c 1,39,-1
 455 102 l 1,31,32
EndSplineSet
Validated: 1
EndChar

StartChar: AE
Encoding: 198 198 168
Width: 1813
VWidth: 0
Flags: W
HStem: 0 102<1136 1730> 410 102<461 869> 799 102<1136 1512> 1331 103<759 869 1136 1697>
VStem: 869 267<102 410 512 799 901 1331>
AnchorPoint: "horn" 1631 1384 basechar 0
AnchorPoint: "cedilla" 982 0 basechar 0
AnchorPoint: "bottom" 1005 0 basechar 0
AnchorPoint: "ogonek" 1533 0 basechar 0
AnchorPoint: "top" 1029 1434 basechar 0
LayerCount: 2
Fore
SplineSet
869 512 m 1,0,-1
 869 1332 l 1,1,-1
 759 1332 l 1,2,-1
 461 512 l 1,3,-1
 869 512 l 1,0,-1
869 410 m 1,4,-1
 424 410 l 1,5,-1
 274 0 l 1,6,-1
 39 0 l 1,7,-1
 561 1434 l 1,8,-1
 1697 1434 l 1,9,-1
 1697 1331 l 1,10,-1
 1136 1331 l 1,11,-1
 1136 901 l 1,12,-1
 1512 901 l 1,13,-1
 1512 799 l 1,14,-1
 1136 799 l 1,15,-1
 1136 102 l 1,16,-1
 1730 102 l 1,17,-1
 1730 0 l 1,18,-1
 869 0 l 1,19,-1
 869 410 l 1,4,-1
EndSplineSet
Validated: 1
EndChar

StartChar: ae
Encoding: 230 230 169
Width: 1540
VWidth: 0
Flags: W
HStem: -20 102<401 600 950 1217> 451 102<862 1196> 520 102<400 596> 819 102<338 556 938 1141>
VStem: 94 256<132 467> 602 256<188 451>
AnchorPoint: "ogonek" 1085 0 basechar 0
AnchorPoint: "cedilla" 1036 0 basechar 0
AnchorPoint: "horn" 1307 717 basechar 0
AnchorPoint: "bottom" 774 0 basechar 0
AnchorPoint: "top" 786 1004 basechar 0
LayerCount: 2
Fore
SplineSet
115 829 m 1,0,1
 293 922 293 922 438 922 c 0,2,3
 573 922 573 922 653 901 c 128,-1,4
 733 880 733 880 776 829 c 1,5,6
 893 922 893 922 1024 922 c 0,7,8
 1127 922 1127 922 1211 880.5 c 128,-1,9
 1295 839 1295 839 1346.5 770.5 c 128,-1,10
 1398 702 1398 702 1426 619.5 c 128,-1,11
 1454 537 1454 537 1454 451 c 1,12,-1
 858 451 l 1,13,14
 858 379 858 379 864 325.5 c 128,-1,15
 870 272 870 272 885.5 224.5 c 128,-1,16
 901 177 901 177 927.5 147 c 128,-1,17
 954 117 954 117 996.5 99.5 c 128,-1,18
 1039 82 1039 82 1096 82 c 0,19,20
 1170 82 1170 82 1204 112.5 c 128,-1,21
 1238 143 1238 143 1249 205 c 1,22,-1
 1444 158 l 1,23,24
 1379 76 1379 76 1282.5 28 c 128,-1,25
 1186 -20 1186 -20 1065 -20 c 0,26,27
 905 -20 905 -20 786 63 c 1,28,29
 750 51 750 51 705 35 c 128,-1,30
 660 19 660 19 643.5 13 c 128,-1,31
 627 7 627 7 601 -1.5 c 128,-1,32
 575 -10 575 -10 565.5 -12 c 128,-1,33
 556 -14 556 -14 538 -16.5 c 128,-1,34
 520 -19 520 -19 506.5 -19.5 c 128,-1,35
 493 -20 493 -20 471 -20 c 0,36,37
 297 -20 297 -20 195.5 58.5 c 128,-1,38
 94 137 94 137 94 311 c 0,39,40
 94 382 94 382 118 437.5 c 128,-1,41
 142 493 142 493 179.5 527 c 128,-1,42
 217 561 217 561 268 583.5 c 128,-1,43
 319 606 319 606 368.5 614.5 c 128,-1,44
 418 623 418 623 471 623 c 0,45,46
 528 623 528 623 596 616 c 1,47,48
 587 728 587 728 558 773.5 c 128,-1,49
 529 819 529 819 469 819 c 0,50,51
 361 819 361 819 289 723 c 1,52,-1
 115 829 l 1,0,1
862 553 m 1,53,-1
 1196 553 l 1,54,55
 1194 616 1194 616 1187 660 c 128,-1,56
 1180 704 1180 704 1165 742.5 c 128,-1,57
 1150 781 1150 781 1122.5 800 c 128,-1,58
 1095 819 1095 819 1055 819 c 0,59,60
 962 819 962 819 916.5 751.5 c 128,-1,61
 871 684 871 684 862 553 c 1,53,-1
602 98 m 1,62,-1
 602 514 l 1,63,64
 553 520 553 520 502 520 c 0,65,66
 435 520 435 520 392.5 467 c 128,-1,67
 350 414 350 414 350 311 c 0,68,69
 350 202 350 202 388.5 142 c 128,-1,70
 427 82 427 82 502 82 c 0,71,72
 556 82 556 82 602 98 c 1,62,-1
EndSplineSet
Validated: 1
EndChar

StartChar: eth
Encoding: 240 240 170
Width: 1034
VWidth: 0
Flags: W
HStem: -20 102<448 634> 819 102<432 616> 1311 41G<613 695>
VStem: 90 256<240 677> 688 256<212 725>
LayerCount: 2
Fore
SplineSet
612 1212 m 1,0,1
 944 863 944 863 944 434 c 0,2,3
 944 337 944 337 917.5 258.5 c 128,-1,4
 891 180 891 180 848 129 c 128,-1,5
 805 78 805 78 747 43.5 c 128,-1,6
 689 9 689 9 628.5 -5.5 c 128,-1,7
 568 -20 568 -20 504 -20 c 0,8,9
 331 -20 331 -20 210.5 118.5 c 128,-1,10
 90 257 90 257 90 451 c 0,11,12
 90 581 90 581 136 686.5 c 128,-1,13
 182 792 182 792 277.5 857 c 128,-1,14
 373 922 373 922 504 922 c 0,15,16
 561 922 561 922 631 905 c 1,17,18
 589 1030 589 1030 508 1126 c 1,19,-1
 410 1044 l 1,20,-1
 362 1100 l 1,21,-1
 457 1180 l 1,22,23
 401 1233 401 1233 324 1286 c 1,24,-1
 426 1380 l 1,25,26
 499 1323 499 1323 559 1266 c 1,27,-1
 662 1352 l 1,28,-1
 709 1294 l 1,29,-1
 612 1212 l 1,0,1
688 369 m 1,30,31
 688 608 688 608 648.5 713.5 c 128,-1,32
 609 819 609 819 535 819 c 0,33,34
 481 819 481 819 442 787 c 128,-1,35
 403 755 403 755 383 699 c 128,-1,36
 363 643 363 643 354.5 582.5 c 128,-1,37
 346 522 346 522 346 451 c 0,38,39
 346 361 346 361 367.5 278 c 128,-1,40
 389 195 389 195 433 138.5 c 128,-1,41
 477 82 477 82 535 82 c 0,42,43
 620 82 620 82 652.5 150.5 c 128,-1,44
 685 219 685 219 688 369 c 1,30,31
EndSplineSet
Validated: 1
EndChar

StartChar: Ccedilla
Encoding: 199 199 171
Width: 1331
VWidth: 0
Flags: W
HStem: -401 49<602 745> -164 164<688 777> -20 102<614 939> 1352 102<571 902>
VStem: 102 266<441 1012> 793 158<-327 -185>
AnchorPoint: "top" 717 1434 basechar 0
AnchorPoint: "horn" 1143 1282 basechar 0
LayerCount: 2
Fore
SplineSet
685 -17 m 1,0,1
 604 -8 604 -8 524.5 24 c 128,-1,2
 445 56 445 56 368 117 c 128,-1,3
 291 178 291 178 232.5 260 c 128,-1,4
 174 342 174 342 138 460.5 c 128,-1,5
 102 579 102 579 102 717 c 0,6,7
 102 865 102 865 139 989.5 c 128,-1,8
 176 1114 176 1114 236 1198 c 128,-1,9
 296 1282 296 1282 375 1341 c 128,-1,10
 454 1400 454 1400 536.5 1427 c 128,-1,11
 619 1454 619 1454 702 1454 c 0,12,13
 1075 1454 1075 1454 1243 1245 c 1,14,-1
 1018 1178 l 1,15,16
 962 1258 962 1258 937 1281 c 1,17,18
 861 1350 861 1350 733 1352 c 1,19,20
 369 1352 369 1352 369 717 c 0,21,22
 369 586 369 586 392.5 478 c 128,-1,23
 416 370 416 370 455 298 c 128,-1,24
 494 226 494 226 546 176 c 128,-1,25
 598 126 598 126 655 104 c 128,-1,26
 712 82 712 82 772 82 c 0,27,28
 830 82 830 82 871.5 92.5 c 128,-1,29
 913 103 913 103 946.5 130 c 128,-1,30
 980 157 980 157 1002 185 c 128,-1,31
 1024 213 1024 213 1057 264 c 1,32,-1
 1249 209 l 1,33,34
 1180 120 1180 120 1069.5 59.5 c 128,-1,35
 959 -1 959 -1 825 -16 c 1,36,-1
 813 -113 l 1,37,38
 874 -126 874 -126 912 -161 c 128,-1,39
 950 -196 950 -196 950 -250 c 0,40,41
 950 -315 950 -315 858.5 -358 c 128,-1,42
 767 -401 767 -401 602 -401 c 1,43,-1
 602 -352 l 1,44,45
 793 -352 793 -352 793 -262 c 0,46,47
 793 -216 793 -216 761 -192 c 128,-1,48
 729 -168 729 -168 659 -164 c 1,49,-1
 685 -17 l 1,0,1
EndSplineSet
Validated: 1
EndChar

StartChar: ccedilla
Encoding: 231 231 172
Width: 1017
VWidth: 0
Flags: W
HStem: -401 49<414 557> -164 164<500 588> -20 102<441 694> 819 102<425 635>
VStem: 90 256<235 657> 604 158<-327 -185>
AnchorPoint: "top" 532 1004 basechar 0
AnchorPoint: "horn" 840 717 basechar 0
LayerCount: 2
Fore
SplineSet
688 608 m 1,0,1
 683 628 683 628 674 665.5 c 128,-1,2
 665 703 665 703 660.5 718.5 c 128,-1,3
 656 734 656 734 645.5 758.5 c 128,-1,4
 635 783 635 783 623 793 c 128,-1,5
 611 803 611 803 591 811 c 128,-1,6
 571 819 571 819 543 819 c 0,7,8
 434 819 434 819 390 726 c 128,-1,9
 346 633 346 633 346 451 c 0,10,11
 346 379 346 379 352 325.5 c 128,-1,12
 358 272 358 272 373.5 224.5 c 128,-1,13
 389 177 389 177 415.5 147 c 128,-1,14
 442 117 442 117 484.5 99.5 c 128,-1,15
 527 82 527 82 584 82 c 0,16,17
 606 82 606 82 623 84 c 128,-1,18
 640 86 640 86 654 93.5 c 128,-1,19
 668 101 668 101 677 106 c 128,-1,20
 686 111 686 111 697 125.5 c 128,-1,21
 708 140 708 140 712.5 147 c 128,-1,22
 717 154 717 154 729.5 175 c 128,-1,23
 742 196 742 196 748 205 c 1,24,-1
 932 158 l 1,25,26
 819 15 819 15 637 -14 c 1,27,-1
 625 -113 l 1,28,29
 686 -126 686 -126 724 -161 c 128,-1,30
 762 -196 762 -196 762 -250 c 0,31,32
 762 -315 762 -315 670.5 -358 c 128,-1,33
 579 -401 579 -401 414 -401 c 1,34,-1
 414 -352 l 1,35,36
 604 -352 604 -352 604 -262 c 0,37,38
 604 -216 604 -216 572.5 -192 c 128,-1,39
 541 -168 541 -168 471 -164 c 1,40,-1
 497 -18 l 1,41,42
 316 0 316 0 203 127 c 128,-1,43
 90 254 90 254 90 451 c 0,44,45
 90 555 90 555 127 645 c 128,-1,46
 164 735 164 735 224 794.5 c 128,-1,47
 284 854 284 854 359.5 888 c 128,-1,48
 435 922 435 922 512 922 c 0,49,50
 646 922 646 922 743 854.5 c 128,-1,51
 840 787 840 787 893 676 c 1,52,-1
 688 608 l 1,0,1
EndSplineSet
Validated: 1
EndChar

StartChar: Eth
Encoding: 208 208 173
Width: 1304
VWidth: 0
Flags: W
HStem: 0 102<440 741> 680 102<61 174 440 700> 1331 102<440 755>
VStem: 174 266<102 680 782 1331> 938 266<394 1073>
AnchorPoint: "top" 582 1434 basechar 0
AnchorPoint: "bottom" 594 0 basechar 0
AnchorPoint: "horn" 1102 1085 basechar 0
AnchorPoint: "ogonek" 549 0 basechar 0
AnchorPoint: "cedilla" 549 0 basechar 0
LayerCount: 2
Fore
SplineSet
670 0 m 2,0,-1
 174 0 l 1,1,-1
 174 680 l 1,2,-1
 61 680 l 1,3,-1
 61 782 l 1,4,-1
 174 782 l 1,5,-1
 174 1434 l 1,6,-1
 670 1434 l 2,7,8
 1204 1434 1204 1434 1204 737 c 0,9,10
 1204 376 1204 376 1061.5 188 c 128,-1,11
 919 0 919 0 670 0 c 2,0,-1
440 680 m 1,12,-1
 440 102 l 1,13,-1
 608 102 l 2,14,15
 675 102 675 102 733 138.5 c 128,-1,16
 791 175 791 175 838 249 c 128,-1,17
 885 323 885 323 911.5 448.5 c 128,-1,18
 938 574 938 574 938 737 c 0,19,20
 938 868 938 868 920 971.5 c 128,-1,21
 902 1075 902 1075 872 1141.5 c 128,-1,22
 842 1208 842 1208 799 1251.5 c 128,-1,23
 756 1295 756 1295 709 1313 c 128,-1,24
 662 1331 662 1331 608 1331 c 2,25,-1
 440 1331 l 1,26,-1
 440 782 l 1,27,-1
 700 782 l 1,28,-1
 700 680 l 1,29,-1
 440 680 l 1,12,-1
EndSplineSet
Validated: 1
EndChar

StartChar: germandbls
Encoding: 223 223 174
Width: 1042
VWidth: 0
Flags: W
HStem: -233 82<548 589> 0 43G<139 395> 799 102<395 668> 1270 102<452 644>
VStem: 139 256<0 799 901 1205> 737 236<-21 234>
LayerCount: 2
Fore
SplineSet
139 0 m 1,0,-1
 139 864 l 2,1,2
 139 946 139 946 141.5 1004 c 128,-1,3
 144 1062 144 1062 152 1116 c 128,-1,4
 160 1170 160 1170 173 1205 c 128,-1,5
 186 1240 186 1240 208.5 1271 c 128,-1,6
 231 1302 231 1302 260 1319.5 c 128,-1,7
 289 1337 289 1337 332 1350 c 128,-1,8
 375 1363 375 1363 427 1367.5 c 128,-1,9
 479 1372 479 1372 549 1372 c 0,10,11
 576 1372 576 1372 603.5 1367.5 c 128,-1,12
 631 1363 631 1363 647.5 1360 c 128,-1,13
 664 1357 664 1357 694 1343.5 c 128,-1,14
 724 1330 724 1330 732.5 1326.5 c 128,-1,15
 741 1323 741 1323 778 1303 c 128,-1,16
 815 1283 815 1283 821 1280 c 1,17,-1
 719 1174 l 1,18,19
 711 1180 711 1180 690 1194.5 c 128,-1,20
 669 1209 669 1209 663.5 1213 c 128,-1,21
 658 1217 658 1217 641.5 1228 c 128,-1,22
 625 1239 625 1239 619.5 1241.5 c 128,-1,23
 614 1244 614 1244 601 1251 c 128,-1,24
 588 1258 588 1258 581 1260 c 128,-1,25
 574 1262 574 1262 562.5 1265 c 128,-1,26
 551 1268 551 1268 540.5 1269 c 128,-1,27
 530 1270 530 1270 518 1270 c 0,28,29
 395 1270 395 1270 395 901 c 1,30,-1
 946 901 l 1,31,-1
 694 502 l 1,32,33
 732 479 732 479 765.5 454 c 128,-1,34
 799 429 799 429 838.5 390.5 c 128,-1,35
 878 352 878 352 906.5 310.5 c 128,-1,36
 935 269 935 269 954 214.5 c 128,-1,37
 973 160 973 160 973 102 c 0,38,39
 973 53 973 53 950 7.5 c 128,-1,40
 927 -38 927 -38 890.5 -70.5 c 128,-1,41
 854 -103 854 -103 809.5 -131 c 128,-1,42
 765 -159 765 -159 720.5 -177.5 c 128,-1,43
 676 -196 676 -196 639.5 -209 c 128,-1,44
 603 -222 603 -222 580 -228 c 2,45,-1
 557 -233 l 1,46,-1
 506 -152 l 1,47,48
 515 -149 515 -149 531 -142.5 c 128,-1,49
 547 -136 547 -136 586.5 -113 c 128,-1,50
 626 -90 626 -90 656.5 -63.5 c 128,-1,51
 687 -37 687 -37 712 8 c 128,-1,52
 737 53 737 53 737 102 c 128,-1,53
 737 151 737 151 709 208 c 128,-1,54
 681 265 681 265 641 311 c 128,-1,55
 601 357 601 357 561 396 c 128,-1,56
 521 435 521 435 493 457 c 2,57,-1
 465 479 l 1,58,-1
 668 799 l 1,59,-1
 395 799 l 1,60,-1
 395 0 l 1,61,-1
 139 0 l 1,0,-1
EndSplineSet
Validated: 1
EndChar

StartChar: Scaron
Encoding: 352 352 177
Width: 1187
VWidth: 0
Flags: W
HStem: -20 102<474 721> 1352 102<489 697> 1384 387
VStem: 162 266<971 1252> 330 479 815 266<200 510>
AnchorPoint: "top" 569 1769 basechar 0
AnchorPoint: "cedilla" 573 0 basechar 0
AnchorPoint: "bottom" 578 0 basechar 0
AnchorPoint: "horn" 897 1290 basechar 0
AnchorPoint: "ogonek" 602 0 basechar 0
LayerCount: 2
Fore
SplineSet
102 350 m 1,0,-1
 334 381 l 1,1,2
 349 262 349 262 424.5 172 c 128,-1,3
 500 82 500 82 580 82 c 0,4,5
 699 82 699 82 757 155.5 c 128,-1,6
 815 229 815 229 815 365 c 0,7,8
 815 428 815 428 792.5 478.5 c 128,-1,9
 770 529 770 529 732.5 564.5 c 128,-1,10
 695 600 695 600 646 629.5 c 128,-1,11
 597 659 597 659 543 684.5 c 128,-1,12
 489 710 489 710 434.5 736.5 c 128,-1,13
 380 763 380 763 331 796.5 c 128,-1,14
 282 830 282 830 244.5 870.5 c 128,-1,15
 207 911 207 911 184.5 970 c 128,-1,16
 162 1029 162 1029 162 1102 c 0,17,18
 162 1234 162 1234 269.5 1332.5 c 128,-1,19
 377 1431 377 1431 522 1450 c 1,20,-1
 330 1718 l 1,21,-1
 393 1772 l 1,22,-1
 569 1591 l 1,23,-1
 745 1772 l 1,24,-1
 809 1718 l 1,25,-1
 619 1453 l 1,26,27
 691 1450 691 1450 748 1436.5 c 128,-1,28
 805 1423 805 1423 841.5 1405.5 c 128,-1,29
 878 1388 878 1388 912 1355 c 128,-1,30
 946 1322 946 1322 964.5 1296.5 c 128,-1,31
 983 1271 983 1271 1012 1225 c 1,32,-1
 788 1182 l 1,33,34
 762 1231 762 1231 744 1257.5 c 128,-1,35
 726 1284 726 1284 700 1308.5 c 128,-1,36
 674 1333 674 1333 641 1342.5 c 128,-1,37
 608 1352 608 1352 561 1352 c 0,38,39
 511 1352 511 1352 469.5 1283.5 c 128,-1,40
 428 1215 428 1215 428 1102 c 0,41,42
 428 1048 428 1048 450.5 1004 c 128,-1,43
 473 960 473 960 510.5 928.5 c 128,-1,44
 548 897 548 897 597 869 c 128,-1,45
 646 841 646 841 700 814.5 c 128,-1,46
 754 788 754 788 808.5 760 c 128,-1,47
 863 732 863 732 912 695 c 128,-1,48
 961 658 961 658 998.5 613.5 c 128,-1,49
 1036 569 1036 569 1058.5 505.5 c 128,-1,50
 1081 442 1081 442 1081 365 c 0,51,52
 1081 197 1081 197 939.5 88.5 c 128,-1,53
 798 -20 798 -20 565 -20 c 0,54,55
 389 -20 389 -20 265 86.5 c 128,-1,56
 141 193 141 193 102 350 c 1,0,-1
EndSplineSet
Validated: 1
EndChar

StartChar: Scedilla
Encoding: 350 350 178
Width: 1187
VWidth: 0
Flags: W
HStem: -401 49<418 561> -164 164<504 592> -20 102<474 721> 1352 102<489 697>
VStem: 162 266<971 1252> 608 158<-327 -185> 815 266<200 510>
AnchorPoint: "top" 569 1434 basechar 0
AnchorPoint: "horn" 897 1290 basechar 0
LayerCount: 2
Fore
SplineSet
102 350 m 1,0,-1
 334 381 l 1,1,2
 349 262 349 262 424.5 172 c 128,-1,3
 500 82 500 82 580 82 c 0,4,5
 699 82 699 82 757 155.5 c 128,-1,6
 815 229 815 229 815 365 c 0,7,8
 815 428 815 428 792.5 478.5 c 128,-1,9
 770 529 770 529 732.5 564.5 c 128,-1,10
 695 600 695 600 646 629.5 c 128,-1,11
 597 659 597 659 543 684.5 c 128,-1,12
 489 710 489 710 434.5 736.5 c 128,-1,13
 380 763 380 763 331 796.5 c 128,-1,14
 282 830 282 830 244.5 870.5 c 128,-1,15
 207 911 207 911 184.5 970 c 128,-1,16
 162 1029 162 1029 162 1102 c 0,17,18
 162 1198 162 1198 223.5 1280.5 c 128,-1,19
 285 1363 285 1363 380.5 1408.5 c 128,-1,20
 476 1454 476 1454 578 1454 c 0,21,22
 661 1454 661 1454 724.5 1441.5 c 128,-1,23
 788 1429 788 1429 828.5 1412 c 128,-1,24
 869 1395 869 1395 905.5 1361 c 128,-1,25
 942 1327 942 1327 962 1300.5 c 128,-1,26
 982 1274 982 1274 1012 1225 c 1,27,-1
 788 1182 l 1,28,29
 762 1231 762 1231 744 1257.5 c 128,-1,30
 726 1284 726 1284 700 1308.5 c 128,-1,31
 674 1333 674 1333 641 1342.5 c 128,-1,32
 608 1352 608 1352 561 1352 c 0,33,34
 511 1352 511 1352 469.5 1283.5 c 128,-1,35
 428 1215 428 1215 428 1102 c 0,36,37
 428 1048 428 1048 450.5 1004 c 128,-1,38
 473 960 473 960 510.5 928.5 c 128,-1,39
 548 897 548 897 597 869 c 128,-1,40
 646 841 646 841 700 814.5 c 128,-1,41
 754 788 754 788 808.5 760 c 128,-1,42
 863 732 863 732 912 695 c 128,-1,43
 961 658 961 658 998.5 613.5 c 128,-1,44
 1036 569 1036 569 1058.5 505.5 c 128,-1,45
 1081 442 1081 442 1081 365 c 0,46,47
 1081 211 1081 211 961.5 106 c 128,-1,48
 842 1 842 1 641 -17 c 1,49,-1
 629 -113 l 1,50,51
 690 -126 690 -126 728 -161 c 128,-1,52
 766 -196 766 -196 766 -250 c 0,53,54
 766 -315 766 -315 674.5 -358 c 128,-1,55
 583 -401 583 -401 418 -401 c 1,56,-1
 418 -352 l 1,57,58
 608 -352 608 -352 608 -262 c 0,59,60
 608 -216 608 -216 576.5 -192 c 128,-1,61
 545 -168 545 -168 475 -164 c 1,62,-1
 501 -16 l 1,63,64
 349 3 349 3 243.5 106 c 128,-1,65
 138 209 138 209 102 350 c 1,0,-1
EndSplineSet
Validated: 1
EndChar

StartChar: Tcaron
Encoding: 356 356 179
Width: 1280
VWidth: 0
Flags: W
HStem: 0 43<508 774> 1331 102<41 508 774 1239> 1384 387
VStem: 403 479 508 266<0 1331>
AnchorPoint: "top" 643 1772 basechar 0
AnchorPoint: "cedilla" 639 0 basechar 0
AnchorPoint: "bottom" 643 0 basechar 0
AnchorPoint: "ogonek" 659 0 basechar 0
AnchorPoint: "horn" 1200 1389 basechar 0
LayerCount: 2
Fore
SplineSet
608 1434 m 1,0,-1
 403 1718 l 1,1,-1
 467 1772 l 1,2,-1
 643 1591 l 1,3,-1
 819 1772 l 1,4,-1
 883 1718 l 1,5,-1
 678 1434 l 1,6,-1
 1243 1434 l 1,7,-1
 1239 1331 l 1,8,-1
 774 1331 l 1,9,-1
 774 0 l 1,10,-1
 508 0 l 1,11,-1
 508 1331 l 1,12,-1
 41 1331 l 1,13,-1
 41 1434 l 1,14,-1
 608 1434 l 1,0,-1
EndSplineSet
Validated: 1
EndChar

StartChar: Zcaron
Encoding: 381 381 181
Width: 1040
VWidth: 0
Flags: W
HStem: 0 102<362 983> 1331 102<102 672> 1384 387
VStem: 272 479
AnchorPoint: "top" 512 1769 basechar 0
AnchorPoint: "bottom" 549 0 basechar 0
AnchorPoint: "ogonek" 799 0 basechar 0
AnchorPoint: "cedilla" 569 0 basechar 0
AnchorPoint: "horn" 758 1085 basechar 0
LayerCount: 2
Fore
SplineSet
672 1331 m 1,0,-1
 72 1331 l 1,1,-1
 102 1434 l 1,2,-1
 477 1434 l 1,3,-1
 272 1718 l 1,4,-1
 336 1772 l 1,5,-1
 512 1591 l 1,6,-1
 688 1772 l 1,7,-1
 752 1718 l 1,8,-1
 547 1434 l 1,9,-1
 975 1434 l 1,10,-1
 362 102 l 1,11,-1
 983 102 l 1,12,-1
 983 0 l 1,13,-1
 61 0 l 1,14,-1
 672 1331 l 1,0,-1
EndSplineSet
Validated: 1
EndChar

StartChar: scedilla
Encoding: 351 351 186
Width: 897
VWidth: 0
Flags: W
HStem: -401 49<293 436> -164 164<379 467> -20 102<286 522> 817 104<397 566>
VStem: 125 256<569 808> 483 158<-327 -185> 559 256<119 365>
AnchorPoint: "top" 416 1004 basechar 0
AnchorPoint: "horn" 647 793 basechar 0
LayerCount: 2
Fore
SplineSet
756 795 m 1,0,-1
 604 723 l 1,1,2
 550 817 550 817 457 817 c 0,3,4
 381 817 381 817 381 688 c 0,5,6
 381 629 381 629 408.5 588.5 c 128,-1,7
 436 548 436 548 477 539 c 0,8,9
 635 503 635 503 725 432 c 128,-1,10
 815 361 815 361 815 262 c 0,11,12
 815 139 815 139 734 69.5 c 128,-1,13
 653 0 653 0 516 -16 c 1,14,-1
 504 -113 l 1,15,16
 565 -126 565 -126 603 -161 c 128,-1,17
 641 -196 641 -196 641 -250 c 0,18,19
 641 -315 641 -315 549.5 -358 c 128,-1,20
 458 -401 458 -401 293 -401 c 1,21,-1
 293 -352 l 1,22,23
 483 -352 483 -352 483 -262 c 0,24,25
 483 -216 483 -216 451.5 -192 c 128,-1,26
 420 -168 420 -168 350 -164 c 1,27,-1
 376 -18 l 1,28,29
 320 -13 320 -13 268.5 8 c 128,-1,30
 217 29 217 29 188 47.5 c 128,-1,31
 159 66 159 66 88 117 c 1,32,-1
 215 201 l 1,33,34
 299 82 299 82 428 82 c 0,35,36
 492 82 492 82 525.5 129.5 c 128,-1,37
 559 177 559 177 559 262 c 0,38,39
 559 299 559 299 542 330 c 128,-1,40
 525 361 525 361 497.5 381.5 c 128,-1,41
 470 402 470 402 443 414.5 c 128,-1,42
 416 427 416 427 389 434 c 0,43,44
 269 465 269 465 197 529.5 c 128,-1,45
 125 594 125 594 125 688 c 0,46,47
 125 781 125 781 203.5 851.5 c 128,-1,48
 282 922 282 922 428 922 c 0,49,50
 527 922 527 922 591.5 894.5 c 128,-1,51
 656 867 656 867 756 795 c 1,0,-1
EndSplineSet
Validated: 1
EndChar

StartChar: Ccaron
Encoding: 268 268 195
Width: 1331
VWidth: 0
Flags: W
HStem: -20 102<614 939> 1352 102<571 902> 1384 387
VStem: 102 266<441 1012> 477 479
AnchorPoint: "top" 717 1767 basechar 0
AnchorPoint: "cedilla" 758 0 basechar 0
AnchorPoint: "bottom" 758 0 basechar 0
AnchorPoint: "ogonek" 741 0 basechar 0
AnchorPoint: "horn" 1143 1282 basechar 0
LayerCount: 2
Fore
SplineSet
1249 209 m 1,0,1
 1169 106 1169 106 1035.5 43 c 128,-1,2
 902 -20 902 -20 741 -20 c 0,3,4
 659 -20 659 -20 572.5 7 c 128,-1,5
 486 34 486 34 401 93 c 128,-1,6
 316 152 316 152 250 235.5 c 128,-1,7
 184 319 184 319 143 444.5 c 128,-1,8
 102 570 102 570 102 717 c 0,9,10
 102 859 102 859 136 979.5 c 128,-1,11
 170 1100 170 1100 226 1183 c 128,-1,12
 282 1266 282 1266 356 1326 c 128,-1,13
 430 1386 430 1386 508.5 1416.5 c 128,-1,14
 587 1447 587 1447 668 1453 c 1,15,-1
 477 1718 l 1,16,-1
 541 1772 l 1,17,-1
 717 1591 l 1,18,-1
 893 1772 l 1,19,-1
 956 1718 l 1,20,-1
 766 1452 l 1,21,22
 1090 1435 1090 1435 1243 1245 c 1,23,-1
 1018 1178 l 1,24,25
 962 1258 962 1258 937 1281 c 1,26,27
 861 1350 861 1350 733 1352 c 1,28,29
 369 1352 369 1352 369 717 c 0,30,31
 369 586 369 586 392.5 478 c 128,-1,32
 416 370 416 370 455 298 c 128,-1,33
 494 226 494 226 546 176 c 128,-1,34
 598 126 598 126 655 104 c 128,-1,35
 712 82 712 82 772 82 c 0,36,37
 830 82 830 82 871.5 92.5 c 128,-1,38
 913 103 913 103 946.5 130 c 128,-1,39
 980 157 980 157 1002 185 c 128,-1,40
 1024 213 1024 213 1057 264 c 1,41,-1
 1249 209 l 1,0,1
EndSplineSet
Validated: 1
EndChar

StartChar: Ecaron
Encoding: 282 282 196
Width: 1118
VWidth: 0
Flags: W
HStem: 0 102<440 1034> 799 102<440 817> 1331 102<440 1001> 1384 387
VStem: 174 266<102 799 901 1331> 375 479
AnchorPoint: "horn" 942 1384 basechar 0
AnchorPoint: "cedilla" 641 0 basechar 0
AnchorPoint: "bottom" 629 0 basechar 0
AnchorPoint: "ogonek" 846 0 basechar 0
AnchorPoint: "top" 614 1774 basechar 0
LayerCount: 2
Fore
SplineSet
1034 0 m 1,0,-1
 174 0 l 1,1,-1
 174 1434 l 1,2,-1
 579 1434 l 1,3,-1
 375 1718 l 1,4,-1
 438 1772 l 1,5,-1
 614 1591 l 1,6,-1
 791 1772 l 1,7,-1
 854 1718 l 1,8,-1
 650 1434 l 1,9,-1
 1001 1434 l 1,10,-1
 1001 1331 l 1,11,-1
 440 1331 l 1,12,-1
 440 901 l 1,13,-1
 817 901 l 1,14,-1
 817 799 l 1,15,-1
 440 799 l 1,16,-1
 440 102 l 1,17,-1
 1034 102 l 1,18,-1
 1034 0 l 1,0,-1
EndSplineSet
Validated: 1
EndChar

StartChar: Dcaron
Encoding: 270 270 197
Width: 1304
VWidth: 0
Flags: W
HStem: 0 102<440 741> 1331 102<440 755> 1384 387
VStem: 174 266<102 1331> 342 479 938 266<394 1073>
AnchorPoint: "top" 582 1769 basechar 0
AnchorPoint: "bottom" 594 0 basechar 0
AnchorPoint: "horn" 1102 1085 basechar 0
AnchorPoint: "ogonek" 549 0 basechar 0
AnchorPoint: "cedilla" 549 0 basechar 0
LayerCount: 2
Fore
SplineSet
440 1331 m 1,0,-1
 440 102 l 1,1,-1
 608 102 l 2,2,3
 675 102 675 102 733 138.5 c 128,-1,4
 791 175 791 175 838 249 c 128,-1,5
 885 323 885 323 911.5 448.5 c 128,-1,6
 938 574 938 574 938 737 c 0,7,8
 938 868 938 868 920 971.5 c 128,-1,9
 902 1075 902 1075 872 1141.5 c 128,-1,10
 842 1208 842 1208 799 1251.5 c 128,-1,11
 756 1295 756 1295 709 1313 c 128,-1,12
 662 1331 662 1331 608 1331 c 2,13,-1
 440 1331 l 1,0,-1
670 0 m 2,14,-1
 174 0 l 1,15,-1
 174 1434 l 1,16,-1
 546 1434 l 1,17,-1
 342 1718 l 1,18,-1
 406 1772 l 1,19,-1
 582 1591 l 1,20,-1
 758 1772 l 1,21,-1
 821 1718 l 1,22,-1
 617 1434 l 1,23,-1
 670 1434 l 2,24,25
 1204 1434 1204 1434 1204 737 c 0,26,27
 1204 376 1204 376 1061.5 188 c 128,-1,28
 919 0 919 0 670 0 c 2,14,-1
EndSplineSet
Validated: 1
EndChar

StartChar: Rcaron
Encoding: 344 344 202
Width: 1138
VWidth: 0
Flags: W
HStem: 0 43<174 440 829 1090> 655 102<440 543> 1331 102<440 665> 1384 387
VStem: 174 266<0 655 758 1331> 322 479 772 266<872 1217> 829 260<0 202>
AnchorPoint: "top" 561 1772 basechar 0
AnchorPoint: "cedilla" 590 0 basechar 0
AnchorPoint: "bottom" 594 0 basechar 0
AnchorPoint: "ogonek" 975 0 basechar 0
AnchorPoint: "horn" 954 1085 basechar 0
LayerCount: 2
Fore
SplineSet
440 1331 m 1,0,-1
 440 758 l 1,1,-1
 532 758 l 2,2,3
 594 758 594 758 642.5 785 c 128,-1,4
 691 812 691 812 718 855.5 c 128,-1,5
 745 899 745 899 758.5 947 c 128,-1,6
 772 995 772 995 772 1044 c 0,7,8
 772 1083 772 1083 764 1121.5 c 128,-1,9
 756 1160 756 1160 737.5 1198 c 128,-1,10
 719 1236 719 1236 692 1265.5 c 128,-1,11
 665 1295 665 1295 623.5 1313 c 128,-1,12
 582 1331 582 1331 532 1331 c 2,13,-1
 440 1331 l 1,0,-1
440 655 m 1,14,-1
 440 0 l 1,15,-1
 174 0 l 1,16,-1
 174 1434 l 1,17,-1
 526 1434 l 1,18,-1
 322 1718 l 1,19,-1
 385 1772 l 1,20,-1
 561 1591 l 1,21,-1
 737 1772 l 1,22,-1
 801 1718 l 1,23,-1
 596 1434 l 1,24,25
 690 1434 690 1434 767 1408.5 c 128,-1,26
 844 1383 844 1383 893 1343 c 128,-1,27
 942 1303 942 1303 976 1251 c 128,-1,28
 1010 1199 1010 1199 1024 1147 c 128,-1,29
 1038 1095 1038 1095 1038 1044 c 0,30,31
 1038 975 1038 975 1013 908 c 128,-1,32
 988 841 988 841 926.5 778 c 128,-1,33
 865 715 865 715 776 684 c 1,34,35
 881 585 881 585 985.5 363.5 c 128,-1,36
 1090 142 1090 142 1090 0 c 1,37,-1
 829 0 l 1,38,39
 829 142 829 142 721.5 355.5 c 128,-1,40
 614 569 614 569 500 655 c 1,41,-1
 440 655 l 1,14,-1
EndSplineSet
Validated: 1
EndChar

StartChar: Tcommaaccent
Encoding: 354 354 205
Width: 1280
VWidth: 0
Flags: W
HStem: -401 49<483 626> -164 164<569 658> 0 43<508 774> 1331 102<41 508 774 1239>
VStem: 508 266<0 1331> 674 158<-327 -185>
AnchorPoint: "top" 643 1434 basechar 0
AnchorPoint: "horn" 1200 1389 basechar 0
LayerCount: 2
Fore
SplineSet
41 1434 m 1,0,-1
 1243 1434 l 1,1,-1
 1239 1331 l 1,2,-1
 774 1331 l 1,3,-1
 774 0 l 1,4,-1
 709 0 l 1,5,-1
 694 -113 l 1,6,7
 755 -126 755 -126 793 -161 c 128,-1,8
 831 -196 831 -196 831 -250 c 0,9,10
 831 -315 831 -315 739.5 -358 c 128,-1,11
 648 -401 648 -401 483 -401 c 1,12,-1
 483 -352 l 1,13,14
 674 -352 674 -352 674 -262 c 0,15,16
 674 -216 674 -216 642.5 -192 c 128,-1,17
 611 -168 611 -168 541 -164 c 1,18,-1
 569 0 l 1,19,-1
 508 0 l 1,20,-1
 508 1331 l 1,21,-1
 41 1331 l 1,22,-1
 41 1434 l 1,0,-1
EndSplineSet
Validated: 1
EndChar

StartChar: tcommaaccent
Encoding: 355 355 219
Width: 657
VWidth: 0
Flags: W
HStem: -401 49<154 297> -164 164<240 328> 0 43<188 444> 799 102<84 188 444 604>
VStem: 188 256<0 799 901 1198> 344 158<-327 -185>
AnchorPoint: "top" 317 1352 basechar 0
AnchorPoint: "horn" 365 1085 basechar 0
LayerCount: 2
Fore
SplineSet
444 799 m 1,0,-1
 444 0 l 1,1,-1
 379 0 l 1,2,-1
 365 -113 l 1,3,4
 426 -126 426 -126 464 -161 c 128,-1,5
 502 -196 502 -196 502 -250 c 0,6,7
 502 -315 502 -315 410.5 -358 c 128,-1,8
 319 -401 319 -401 154 -401 c 1,9,-1
 154 -352 l 1,10,11
 344 -352 344 -352 344 -262 c 0,12,13
 344 -216 344 -216 312.5 -192 c 128,-1,14
 281 -168 281 -168 211 -164 c 1,15,-1
 240 0 l 1,16,-1
 188 0 l 1,17,-1
 188 799 l 1,18,-1
 53 799 l 1,19,-1
 84 901 l 1,20,-1
 188 901 l 1,21,-1
 188 1198 l 1,22,-1
 444 1229 l 1,23,-1
 444 901 l 1,24,-1
 604 901 l 1,25,-1
 604 799 l 1,26,-1
 444 799 l 1,0,-1
EndSplineSet
Validated: 1
EndChar

StartChar: Aogonek
Encoding: 260 260 220
Width: 1298
VWidth: 0
Flags: W
HStem: -319 37<1065 1153> 0 43<39 289 1013 1264> 410 102<461 842> 1393 41<546 756>
VStem: 854 147<-254 -77>
AnchorPoint: "horn" 819 1085 basechar 0
AnchorPoint: "cedilla" 631 0 basechar 0
AnchorPoint: "bottom" 653 0 basechar 0
AnchorPoint: "top" 651 1434 basechar 0
LayerCount: 2
Fore
SplineSet
651 1034 m 1,0,-1
 461 512 l 1,1,-1
 842 512 l 1,2,-1
 651 1034 l 1,0,-1
741 1434 m 1,3,-1
 1264 0 l 1,4,-1
 1100 0 l 1,5,6
 1061 -20 1061 -20 1031 -67 c 128,-1,7
 1001 -114 1001 -114 1001 -150 c 0,8,9
 1001 -283 1001 -283 1153 -283 c 1,10,-1
 1153 -319 l 1,11,12
 997 -319 997 -319 925.5 -278.5 c 128,-1,13
 854 -238 854 -238 854 -186 c 0,14,15
 854 -64 854 -64 1028 1 c 1,16,-1
 879 410 l 1,17,-1
 424 410 l 1,18,-1
 274 0 l 1,19,-1
 39 0 l 1,20,-1
 561 1434 l 1,21,-1
 741 1434 l 1,3,-1
EndSplineSet
Validated: 1
EndChar

StartChar: Eogonek
Encoding: 280 280 221
Width: 1118
VWidth: 0
Flags: W
HStem: -319 37<812 899> 0 102<440 1034> 799 102<440 817> 1331 102<440 1001>
VStem: 174 266<102 799 901 1331> 600 147<-254 -77>
AnchorPoint: "horn" 942 1384 basechar 0
AnchorPoint: "top" 614 1438 basechar 0
LayerCount: 2
Fore
SplineSet
846 0 m 1,0,1
 807 -20 807 -20 777.5 -67 c 128,-1,2
 748 -114 748 -114 748 -150 c 0,3,4
 748 -175 748 -175 753 -195 c 128,-1,5
 758 -215 758 -215 772.5 -236.5 c 128,-1,6
 787 -258 787 -258 819 -270.5 c 128,-1,7
 851 -283 851 -283 899 -283 c 1,8,-1
 899 -319 l 1,9,10
 743 -319 743 -319 671.5 -278.5 c 128,-1,11
 600 -238 600 -238 600 -186 c 0,12,13
 600 -64 600 -64 770 0 c 1,14,-1
 174 0 l 1,15,-1
 174 1434 l 1,16,-1
 1001 1434 l 1,17,-1
 1001 1331 l 1,18,-1
 440 1331 l 1,19,-1
 440 901 l 1,20,-1
 817 901 l 1,21,-1
 817 799 l 1,22,-1
 440 799 l 1,23,-1
 440 102 l 1,24,-1
 1034 102 l 1,25,-1
 1034 0 l 1,26,-1
 846 0 l 1,0,1
EndSplineSet
Validated: 1
EndChar

StartChar: aogonek
Encoding: 261 261 222
Width: 974
VWidth: 0
Flags: W
HStem: -319 37<812 899> -20 102<401 601> 520 102<400 596> 819 102<338 551>
VStem: 94 256<132 467> 600 147<-254 -77> 602 256<87 518 616 771>
AnchorPoint: "top" 489 1004 basechar 0
AnchorPoint: "horn" 811 717 basechar 0
AnchorPoint: "cedilla" 483 0 basechar 0
AnchorPoint: "bottom" 473 0 basechar 0
LayerCount: 2
Fore
SplineSet
602 98 m 1,0,-1
 602 459 l 1,1,-1
 602 514 l 1,2,3
 553 520 553 520 502 520 c 0,4,5
 435 520 435 520 392.5 467 c 128,-1,6
 350 414 350 414 350 311 c 0,7,8
 350 202 350 202 388.5 142 c 128,-1,9
 427 82 427 82 502 82 c 0,10,11
 556 82 556 82 602 98 c 1,0,-1
115 829 m 1,12,13
 293 922 293 922 438 922 c 0,14,15
 531 922 531 922 595 913.5 c 128,-1,16
 659 905 659 905 707.5 881 c 128,-1,17
 756 857 756 857 784 822.5 c 128,-1,18
 812 788 812 788 829.5 727 c 128,-1,19
 847 666 847 666 852.5 594.5 c 128,-1,20
 858 523 858 523 858 414 c 2,21,-1
 858 0 l 1,22,-1
 846 0 l 1,23,24
 807 -20 807 -20 777.5 -67 c 128,-1,25
 748 -114 748 -114 748 -150 c 0,26,27
 748 -175 748 -175 753 -195 c 128,-1,28
 758 -215 758 -215 772.5 -236.5 c 128,-1,29
 787 -258 787 -258 819 -270.5 c 128,-1,30
 851 -283 851 -283 899 -283 c 1,31,-1
 899 -319 l 1,32,33
 743 -319 743 -319 671.5 -278.5 c 128,-1,34
 600 -238 600 -238 600 -186 c 0,35,36
 600 -64 600 -64 770 0 c 1,37,-1
 606 0 l 1,38,39
 553 -20 553 -20 471 -20 c 0,40,41
 297 -20 297 -20 195.5 58.5 c 128,-1,42
 94 137 94 137 94 311 c 0,43,44
 94 382 94 382 118 437.5 c 128,-1,45
 142 493 142 493 179.5 527 c 128,-1,46
 217 561 217 561 268 583.5 c 128,-1,47
 319 606 319 606 368.5 614.5 c 128,-1,48
 418 623 418 623 471 623 c 0,49,50
 528 623 528 623 596 616 c 1,51,52
 587 728 587 728 558 773.5 c 128,-1,53
 529 819 529 819 469 819 c 0,54,55
 361 819 361 819 289 723 c 1,56,-1
 115 829 l 1,12,13
EndSplineSet
Validated: 1
EndChar

StartChar: eogonek
Encoding: 281 281 223
Width: 1028
VWidth: 0
Flags: W
HStem: -319 37<553 641> -20 102<441 705> 451 102<350 684> 819 102<425 629>
VStem: 90 256<235 451 553 656> 342 147<-254 -77>
AnchorPoint: "top" 530 1004 basechar 0
AnchorPoint: "horn" 840 717 basechar 0
LayerCount: 2
Fore
SplineSet
350 553 m 1,0,-1
 684 553 l 1,1,2
 682 616 682 616 675 660 c 128,-1,3
 668 704 668 704 653 742.5 c 128,-1,4
 638 781 638 781 610.5 800 c 128,-1,5
 583 819 583 819 543 819 c 0,6,7
 450 819 450 819 404.5 751.5 c 128,-1,8
 359 684 359 684 350 553 c 1,0,-1
346 451 m 1,9,10
 346 379 346 379 352 325.5 c 128,-1,11
 358 272 358 272 373.5 224.5 c 128,-1,12
 389 177 389 177 415.5 147 c 128,-1,13
 442 117 442 117 484.5 99.5 c 128,-1,14
 527 82 527 82 584 82 c 0,15,16
 658 82 658 82 692 112.5 c 128,-1,17
 726 143 726 143 737 205 c 1,18,-1
 932 158 l 1,19,20
 868 77 868 77 772.5 29 c 128,-1,21
 677 -19 677 -19 558 -20 c 1,22,23
 529 -45 529 -45 509 -83 c 128,-1,24
 489 -121 489 -121 489 -150 c 0,25,26
 489 -283 489 -283 641 -283 c 1,27,-1
 641 -319 l 1,28,29
 485 -319 485 -319 413.5 -278.5 c 128,-1,30
 342 -238 342 -238 342 -186 c 0,31,32
 342 -76 342 -76 476 -15 c 1,33,34
 304 9 304 9 197 135 c 128,-1,35
 90 261 90 261 90 451 c 0,36,37
 90 555 90 555 127 645 c 128,-1,38
 164 735 164 735 224 794.5 c 128,-1,39
 284 854 284 854 359.5 888 c 128,-1,40
 435 922 435 922 512 922 c 0,41,42
 615 922 615 922 699 880.5 c 128,-1,43
 783 839 783 839 834.5 770.5 c 128,-1,44
 886 702 886 702 914 619.5 c 128,-1,45
 942 537 942 537 942 451 c 1,46,-1
 346 451 l 1,9,10
EndSplineSet
Validated: 1
EndChar

StartChar: Lslash
Encoding: 321 321 224
Width: 1083
VWidth: 0
Flags: W
HStem: 0 102<440 1034> 1393 41G<174 440>
VStem: 174 266<102 668 801 889 1024 1434>
AnchorPoint: "top" 485 1434 basechar 0
AnchorPoint: "cedilla" 596 0 basechar 0
AnchorPoint: "bottom" 604 0 basechar 0
AnchorPoint: "ogonek" 745 0 basechar 0
AnchorPoint: "horn" 328 1085 basechar 0
LayerCount: 2
Fore
SplineSet
440 102 m 1,0,-1
 1034 102 l 1,1,-1
 1034 0 l 1,2,-1
 174 0 l 1,3,-1
 174 668 l 1,4,-1
 84 592 l 1,5,-1
 18 672 l 1,6,-1
 174 801 l 1,7,-1
 174 1434 l 1,8,-1
 440 1434 l 1,9,-1
 440 1024 l 1,10,-1
 541 1108 l 1,11,-1
 606 1028 l 1,12,-1
 440 889 l 1,13,-1
 440 102 l 1,0,-1
EndSplineSet
Validated: 1
EndChar

StartChar: lslash
Encoding: 322 322 225
Width: 548
VWidth: 0
Flags: W
HStem: 0 43G<147 403> 1311 41G<147 403>
VStem: 147 256<0 676 811 889 1024 1352>
AnchorPoint: "top" 274 1434 basechar 0
AnchorPoint: "cedilla" 268 0 basechar 0
AnchorPoint: "bottom" 272 0 basechar 0
AnchorPoint: "ogonek" 279 0 basechar 0
AnchorPoint: "horn" 311 1085 basechar 0
LayerCount: 2
Fore
SplineSet
147 676 m 1,0,-1
 47 592 l 1,1,-1
 -18 672 l 1,2,-1
 147 811 l 1,3,-1
 147 1352 l 1,4,-1
 403 1352 l 1,5,-1
 403 1024 l 1,6,-1
 504 1108 l 1,7,-1
 569 1028 l 1,8,-1
 403 889 l 1,9,-1
 403 0 l 1,10,-1
 147 0 l 1,11,-1
 147 676 l 1,0,-1
EndSplineSet
Validated: 1
EndChar

StartChar: dcroat
Encoding: 273 273 226
Width: 1089
VWidth: 0
UnlinkRmOvrlpSave: 1
Flags: W
HStem: -20 102<423 640> 0 43G<688 944> 819 102<423 621> 1085 102<590 688 944 1012> 1311 41G<688 944>
VStem: 90 256<228 673> 688 256<0 4 132 737 883 1085 1188 1352>
AnchorPoint: "top" 532 1004 basechar 0
AnchorPoint: "bottom" 514 0 basechar 0
AnchorPoint: "cedilla" 512 0 basechar 0
AnchorPoint: "ogonek" 864 0 basechar 0
AnchorPoint: "horn" 983 1135 basechar 0
LayerCount: 2
Fore
SplineSet
688 401 m 0,0,1
 688 468 688 468 686 518 c 128,-1,2
 684 568 684 568 675 628.5 c 128,-1,3
 666 689 666 689 650 727.5 c 128,-1,4
 634 766 634 766 605 792.5 c 128,-1,5
 576 819 576 819 535 819 c 0,6,7
 493 819 493 819 461 804.5 c 128,-1,8
 429 790 429 790 408.5 761.5 c 128,-1,9
 388 733 388 733 375 701 c 128,-1,10
 362 669 362 669 356 623 c 128,-1,11
 350 577 350 577 348 539 c 128,-1,12
 346 501 346 501 346 451 c 128,-1,13
 346 401 346 401 348 363 c 128,-1,14
 350 325 350 325 356 279 c 128,-1,15
 362 233 362 233 375.5 200.5 c 128,-1,16
 389 168 389 168 409 139.5 c 128,-1,17
 429 111 429 111 461 96.5 c 128,-1,18
 493 82 493 82 535 82 c 0,19,20
 570 82 570 82 595.5 91.5 c 128,-1,21
 621 101 621 101 637.5 122.5 c 128,-1,22
 654 144 654 144 664.5 168.5 c 128,-1,23
 675 193 675 193 680 233 c 128,-1,24
 685 273 685 273 686.5 309.5 c 128,-1,25
 688 346 688 346 688 401 c 0,0,1
944 1085 m 1,26,-1
 944 0 l 1,27,-1
 688 0 l 1,28,-1
 688 4 l 1,29,30
 606 -20 606 -20 504 -20 c 0,31,32
 410 -20 410 -20 331.5 17.5 c 128,-1,33
 253 55 253 55 200.5 119.5 c 128,-1,34
 148 184 148 184 119 269.5 c 128,-1,35
 90 355 90 355 90 451 c 0,36,37
 90 580 90 580 139.5 686.5 c 128,-1,38
 189 793 189 793 285 857.5 c 128,-1,39
 381 922 381 922 504 922 c 0,40,41
 602 922 602 922 688 883 c 1,42,-1
 688 1085 l 1,43,-1
 590 1085 l 1,44,-1
 590 1188 l 1,45,-1
 688 1188 l 1,46,-1
 688 1352 l 1,47,-1
 944 1352 l 1,48,-1
 944 1188 l 1,49,-1
 1012 1188 l 1,50,-1
 1012 1085 l 1,51,-1
 944 1085 l 1,26,-1
EndSplineSet
EndChar

StartChar: Hbar
Encoding: 294 294 246
Width: 1351
VWidth: 0
UnlinkRmOvrlpSave: 1
Flags: W
HStem: 0 43<174 440 915 1182> 717 102<440 915> 1159 102<92 1264> 1393 41<174 440 915 1182>
VStem: 174 266<0 717 819 1434> 915 266<0 717 819 1434>
AnchorPoint: "top" 686 1434 basechar 0
AnchorPoint: "bottom" 674 0 basechar 0
AnchorPoint: "cedilla" 651 0 basechar 0
AnchorPoint: "ogonek" 1102 0 basechar 0
AnchorPoint: "horn" 1130 1085 basechar 0
LayerCount: 2
Fore
SplineSet
92 1262 m 1,0,-1
 1264 1262 l 1,1,-1
 1264 1159 l 1,2,-1
 92 1159 l 1,3,-1
 92 1262 l 1,0,-1
EndSplineSet
Refer: 35 72 N 1 0 0 1 0 0 2
EndChar

StartChar: hbar
Encoding: 295 295 247
Width: 1087
VWidth: 0
UnlinkRmOvrlpSave: 1
Flags: W
HStem: 0 43G<147 403 692 948> 819 102<405 644> 1085 102<66 147 403 557> 1311 41G<147 403>
VStem: 147 256<0 802 907 1085 1188 1352> 692 256<0 720>
AnchorPoint: "top" 387 1434 basechar 0
AnchorPoint: "bottom" 532 0 basechar 0
AnchorPoint: "cedilla" 532 0 basechar 0
AnchorPoint: "ogonek" 860 0 basechar 0
AnchorPoint: "horn" 856 717 basechar 0
LayerCount: 2
Fore
SplineSet
403 784 m 1,0,-1
 403 0 l 1,1,-1
 147 0 l 1,2,-1
 147 1085 l 1,3,-1
 66 1085 l 1,4,-1
 66 1188 l 1,5,-1
 147 1188 l 1,6,-1
 147 1352 l 1,7,-1
 403 1352 l 1,8,-1
 403 1188 l 1,9,-1
 557 1188 l 1,10,-1
 557 1085 l 1,11,-1
 403 1085 l 1,12,-1
 403 907 l 1,13,14
 472 922 472 922 520 922 c 0,15,16
 736 922 736 922 842 816 c 128,-1,17
 948 710 948 710 948 492 c 2,18,-1
 948 0 l 1,19,-1
 692 0 l 1,20,-1
 692 467 l 2,21,22
 692 608 692 608 676 686 c 128,-1,23
 660 764 660 764 631 791.5 c 128,-1,24
 602 819 602 819 551 819 c 0,25,26
 471 819 471 819 403 784 c 1,0,-1
EndSplineSet
EndChar

StartChar: Iogonek
Encoding: 302 302 248
Width: 606
VWidth: 0
Flags: W
HStem: -319 37<369 457> 0 43<172 438> 1393 41<172 438>
VStem: 158 147<-254 -77> 172 266<0 1434>
AnchorPoint: "top" 309 1434 basechar 0
AnchorPoint: "horn" 338 1085 basechar 0
LayerCount: 2
Fore
SplineSet
438 1434 m 1,0,-1
 438 0 l 1,1,-1
 403 0 l 1,2,3
 364 -20 364 -20 334.5 -67 c 128,-1,4
 305 -114 305 -114 305 -150 c 0,5,6
 305 -283 305 -283 457 -283 c 1,7,-1
 457 -319 l 1,8,9
 301 -319 301 -319 229.5 -278.5 c 128,-1,10
 158 -238 158 -238 158 -186 c 0,11,12
 158 -64 158 -64 328 0 c 1,13,-1
 172 0 l 1,14,-1
 172 1434 l 1,15,-1
 438 1434 l 1,0,-1
EndSplineSet
Validated: 1
EndChar

StartChar: Uogonek
Encoding: 370 370 249
Width: 1402
VWidth: 0
Flags: W
HStem: -319 37<748 836> -20 102<564 848> 1393 41<156 422 981 1247>
VStem: 156 266<328 1434> 537 147<-254 -77> 981 266<297 1434>
AnchorPoint: "horn" 1247 1085 basechar 0
AnchorPoint: "top" 721 1434 basechar 0
LayerCount: 2
Fore
SplineSet
981 1434 m 1,0,-1
 1247 1434 l 1,1,-1
 1247 610 l 2,2,3
 1247 470 1247 470 1221 362.5 c 128,-1,4
 1195 255 1195 255 1151.5 186 c 128,-1,5
 1108 117 1108 117 1043.5 72 c 128,-1,6
 979 27 979 27 909.5 6.5 c 128,-1,7
 840 -14 840 -14 754 -19 c 1,8,9
 724 -44 724 -44 704 -82 c 128,-1,10
 684 -120 684 -120 684 -150 c 0,11,12
 684 -283 684 -283 836 -283 c 1,13,-1
 836 -319 l 1,14,15
 680 -319 680 -319 608.5 -278.5 c 128,-1,16
 537 -238 537 -238 537 -186 c 0,17,18
 537 -82 537 -82 662 -19 c 1,19,20
 592 -15 592 -15 526.5 4 c 128,-1,21
 461 23 461 23 391.5 68.5 c 128,-1,22
 322 114 322 114 271.5 181.5 c 128,-1,23
 221 249 221 249 188.5 359.5 c 128,-1,24
 156 470 156 470 156 610 c 2,25,-1
 156 1434 l 1,26,-1
 422 1434 l 1,27,-1
 422 610 l 2,28,29
 422 480 422 480 439 382.5 c 128,-1,30
 456 285 456 285 482.5 229 c 128,-1,31
 509 173 509 173 548.5 138.5 c 128,-1,32
 588 104 588 104 625.5 93 c 128,-1,33
 663 82 663 82 709 82 c 0,34,35
 759 82 759 82 797.5 95.5 c 128,-1,36
 836 109 836 109 871.5 144.5 c 128,-1,37
 907 180 907 180 930.5 238 c 128,-1,38
 954 296 954 296 967.5 390 c 128,-1,39
 981 484 981 484 981 610 c 2,40,-1
 981 1434 l 1,0,-1
EndSplineSet
Validated: 1
EndChar

StartChar: iogonek
Encoding: 303 303 250
Width: 499
VWidth: 0
Flags: W
HStem: -319 37<322 410> 0 43<123 379> 860 41<123 379> 1065 164<143 358>
VStem: 111 147<-254 -77> 123 256<0 901> 143 215<1065 1229>
AnchorPoint: "horn" 297 717 basechar 0
AnchorPoint: "top" 252 1167 basechar 0
LayerCount: 2
Fore
SplineSet
123 901 m 1,0,-1
 379 901 l 1,1,-1
 379 0 l 1,2,-1
 356 0 l 1,3,4
 317 -20 317 -20 287.5 -67 c 128,-1,5
 258 -114 258 -114 258 -150 c 0,6,7
 258 -283 258 -283 410 -283 c 1,8,-1
 410 -319 l 1,9,10
 254 -319 254 -319 182.5 -278.5 c 128,-1,11
 111 -238 111 -238 111 -186 c 0,12,13
 111 -64 111 -64 281 0 c 1,14,-1
 123 0 l 1,15,-1
 123 901 l 1,0,-1
143 1229 m 1,16,-1
 358 1229 l 1,17,-1
 358 1065 l 1,18,-1
 143 1065 l 1,19,-1
 143 1229 l 1,16,-1
EndSplineSet
Validated: 1
EndChar

StartChar: uogonek
Encoding: 371 371 251
Width: 1067
VWidth: 0
Flags: W
HStem: -319 37<902 989> -20 102<450 687> 860 41<143 399 688 944>
VStem: 143 256<163 901> 688 256<91 901> 690 147<-254 -77>
AnchorPoint: "top" 549 1004 basechar 0
AnchorPoint: "bottom" 532 0 basechar 0
AnchorPoint: "horn" 944 635 basechar 0
AnchorPoint: "cedilla" 522 0 basechar 0
LayerCount: 2
Fore
SplineSet
688 106 m 1,0,-1
 688 901 l 1,1,-1
 944 901 l 1,2,-1
 944 0 l 1,3,-1
 936 0 l 1,4,5
 897 -20 897 -20 867.5 -67 c 128,-1,6
 838 -114 838 -114 838 -150 c 0,7,8
 838 -175 838 -175 843 -195 c 128,-1,9
 848 -215 848 -215 862.5 -236.5 c 128,-1,10
 877 -258 877 -258 909 -270.5 c 128,-1,11
 941 -283 941 -283 989 -283 c 1,12,-1
 989 -319 l 1,13,14
 833 -319 833 -319 761.5 -278.5 c 128,-1,15
 690 -238 690 -238 690 -186 c 0,16,17
 690 -64 690 -64 860 0 c 1,18,-1
 690 0 l 1,19,20
 617 -20 617 -20 541 -20 c 0,21,22
 329 -20 329 -20 236 84 c 128,-1,23
 143 188 143 188 143 410 c 2,24,-1
 143 901 l 1,25,-1
 399 901 l 1,26,-1
 399 434 l 2,27,28
 399 285 399 285 412.5 213 c 128,-1,29
 426 141 426 141 461.5 111.5 c 128,-1,30
 497 82 497 82 571 82 c 0,31,32
 636 82 636 82 688 106 c 1,0,-1
EndSplineSet
Validated: 1
EndChar

StartChar: kgreenlandic
Encoding: 312 312 305
Width: 980
VWidth: 0
Flags: W
HStem: 0 43G<147 403 664 913> 860 41G<147 403 611 877>
VStem: 147 256<0 371 627 901>
AnchorPoint: "top" 504 1004 basechar 0
AnchorPoint: "cedilla" 539 0 basechar 0
AnchorPoint: "bottom" 539 0 basechar 0
AnchorPoint: "ogonek" 819 0 basechar 0
AnchorPoint: "horn" 668 717 basechar 0
LayerCount: 2
Fore
SplineSet
403 627 m 1,0,-1
 647 901 l 1,1,-1
 877 901 l 1,2,-1
 520 502 l 1,3,-1
 913 0 l 1,4,-1
 696 0 l 1,5,-1
 403 371 l 1,6,-1
 403 0 l 1,7,-1
 147 0 l 1,8,-1
 147 901 l 1,9,-1
 403 901 l 1,10,-1
 403 627 l 1,0,-1
EndSplineSet
Validated: 1
EndChar

StartChar: Tbar
Encoding: 358 358 306
Width: 1280
VWidth: 0
Flags: W
HStem: 0 43<508 774> 901 102<348 932> 1331 102<41 508 774 1239>
VStem: 508 266<0 1331>
AnchorPoint: "top" 643 1434 basechar 0
AnchorPoint: "cedilla" 639 0 basechar 0
AnchorPoint: "bottom" 643 0 basechar 0
AnchorPoint: "ogonek" 659 0 basechar 0
AnchorPoint: "horn" 1200 1389 basechar 0
LayerCount: 2
Fore
SplineSet
41 1434 m 1,0,-1
 1243 1434 l 1,1,-1
 1239 1331 l 1,2,-1
 774 1331 l 1,3,-1
 774 1004 l 1,4,-1
 932 1004 l 1,5,-1
 932 901 l 1,6,-1
 774 901 l 1,7,-1
 774 0 l 1,8,-1
 508 0 l 1,9,-1
 508 901 l 1,10,-1
 348 901 l 1,11,-1
 348 1004 l 1,12,-1
 508 1004 l 1,13,-1
 508 1331 l 1,14,-1
 41 1331 l 1,15,-1
 41 1434 l 1,0,-1
EndSplineSet
Validated: 1
EndChar

StartChar: tbar
Encoding: 359 359 307
Width: 657
VWidth: 0
Flags: W
HStem: 0 43<188 444> 500 102<33 625> 799 102<84 188 444 604>
VStem: 33 592<500 602> 188 256<0 799 901 1198>
AnchorPoint: "top" 317 1352 basechar 0
AnchorPoint: "cedilla" 309 0 basechar 0
AnchorPoint: "bottom" 309 0 basechar 0
AnchorPoint: "ogonek" 324 0 basechar 0
AnchorPoint: "horn" 365 1085 basechar 0
LayerCount: 2
Fore
SplineSet
188 602 m 1,0,-1
 188 799 l 1,1,-1
 53 799 l 1,2,-1
 84 901 l 1,3,-1
 188 901 l 1,4,-1
 188 1198 l 1,5,-1
 444 1229 l 1,6,-1
 444 901 l 1,7,-1
 604 901 l 1,8,-1
 604 799 l 1,9,-1
 444 799 l 1,10,-1
 444 602 l 1,11,-1
 625 602 l 1,12,-1
 625 500 l 1,13,-1
 444 500 l 1,14,-1
 444 0 l 1,15,-1
 188 0 l 1,16,-1
 188 500 l 1,17,-1
 33 500 l 1,18,-1
 33 602 l 1,19,-1
 188 602 l 1,0,-1
EndSplineSet
Validated: 1
EndChar

StartChar: Eng
Encoding: 330 330 308
Width: 1394
VWidth: 0
Flags: W
HStem: -20 102<688 899> 0 43G<147 414> 1270 102<547 887> 1311 41G<147 414>
VStem: 147 266<0 1169 1282 1352> 997 266<267 1122>
AnchorPoint: "top" 717 1434 basechar 0
AnchorPoint: "cedilla" 696 0 basechar 0
AnchorPoint: "bottom" 694 0 basechar 0
AnchorPoint: "ogonek" 774 0 basechar 0
AnchorPoint: "horn" 1188 1085 basechar 0
LayerCount: 2
Fore
SplineSet
1264 590 m 2,0,1
 1264 281 1264 281 1149.5 130.5 c 128,-1,2
 1035 -20 1035 -20 797 -20 c 0,3,4
 709 -20 709 -20 648.5 0 c 128,-1,5
 588 20 588 20 528 72 c 1,6,-1
 631 178 l 1,7,8
 711 82 711 82 827 82 c 0,9,10
 869 82 869 82 902 123.5 c 128,-1,11
 935 165 935 165 955.5 237 c 128,-1,12
 976 309 976 309 986.5 400 c 128,-1,13
 997 491 997 491 997 594 c 2,14,-1
 997 918 l 2,15,16
 997 1002 997 1002 982.5 1065 c 128,-1,17
 968 1128 968 1128 944.5 1166.5 c 128,-1,18
 921 1205 921 1205 886 1228.5 c 128,-1,19
 851 1252 851 1252 814 1261 c 128,-1,20
 777 1270 777 1270 731 1270 c 0,21,22
 633 1270 633 1270 557.5 1232 c 128,-1,23
 482 1194 482 1194 414 1135 c 1,24,-1
 414 0 l 1,25,-1
 147 0 l 1,26,-1
 147 1352 l 1,27,-1
 414 1352 l 1,28,-1
 414 1282 l 1,29,30
 421 1286 421 1286 451.5 1303.5 c 128,-1,31
 482 1321 482 1321 500 1329 c 128,-1,32
 518 1337 518 1337 551 1349 c 128,-1,33
 584 1361 584 1361 620.5 1366.5 c 128,-1,34
 657 1372 657 1372 700 1372 c 0,35,36
 810 1372 810 1372 909.5 1345 c 128,-1,37
 1009 1318 1009 1318 1089 1266.5 c 128,-1,38
 1169 1215 1169 1215 1216.5 1131 c 128,-1,39
 1264 1047 1264 1047 1264 942 c 2,40,-1
 1264 590 l 2,0,1
EndSplineSet
Validated: 1
Substitution2: "'locl' Localized Forms in Sami-1" Engsami
EndChar

StartChar: eng
Encoding: 331 331 309
Width: 1087
VWidth: 0
Flags: W
HStem: -348 102<468 671> 0 43G<147 403> 819 102<405 644>
VStem: 147 256<0 802> 692 256<-204 720>
AnchorPoint: "top" 549 1004 basechar 0
AnchorPoint: "cedilla" 541 -328 basechar 0
AnchorPoint: "bottom" 541 -328 basechar 0
AnchorPoint: "ogonek" 877 -180 basechar 0
AnchorPoint: "horn" 856 717 basechar 0
LayerCount: 2
Fore
SplineSet
948 -68 m 2,0,1
 948 -140 948 -140 911.5 -196.5 c 128,-1,2
 875 -253 875 -253 818 -284.5 c 128,-1,3
 761 -316 761 -316 700.5 -332 c 128,-1,4
 640 -348 640 -348 582 -348 c 0,5,6
 452 -348 452 -348 375 -256 c 1,7,-1
 504 -195 l 1,8,9
 540 -246 540 -246 612 -246 c 0,10,11
 639 -246 639 -246 655.5 -232.5 c 128,-1,12
 672 -219 672 -219 680 -184.5 c 128,-1,13
 688 -150 688 -150 690 -111 c 128,-1,14
 692 -72 692 -72 692 0 c 2,15,-1
 692 467 l 2,16,17
 692 608 692 608 676 686 c 128,-1,18
 660 764 660 764 631 791.5 c 128,-1,19
 602 819 602 819 551 819 c 0,20,21
 471 819 471 819 403 784 c 1,22,-1
 403 0 l 1,23,-1
 147 0 l 1,24,-1
 147 901 l 1,25,-1
 385 901 l 1,26,27
 454 922 454 922 520 922 c 0,28,29
 736 922 736 922 842 816 c 128,-1,30
 948 710 948 710 948 492 c 2,31,-1
 948 -68 l 2,0,1
EndSplineSet
Validated: 1
EndChar

StartChar: asciicircum
Encoding: 94 94 310
Width: 917
VWidth: 0
Flags: W
LayerCount: 2
Fore
SplineSet
459 819 m 1,0,-1
 885 209 l 1,1,-1
 770 131 l 1,2,-1
 459 578 l 1,3,-1
 147 131 l 1,4,-1
 33 209 l 1,5,-1
 459 819 l 1,0,-1
EndSplineSet
Validated: 1
EndChar

StartChar: asciitilde
Encoding: 126 126 311
Width: 831
VWidth: 0
Flags: W
HStem: 399 158<432 648> 465 158<183 400>
VStem: 82 84<399 448> 666 84<574 623>
LayerCount: 2
Fore
SplineSet
666 623 m 1,0,-1
 750 623 l 1,1,2
 740 540 740 540 676 469.5 c 128,-1,3
 612 399 612 399 528 399 c 0,4,5
 472 399 472 399 432.5 409.5 c 128,-1,6
 393 420 393 420 376.5 432 c 128,-1,7
 360 444 360 444 338.5 454.5 c 128,-1,8
 317 465 317 465 293 465 c 0,9,10
 244 465 244 465 207 448 c 128,-1,11
 170 431 170 431 166 399 c 1,12,-1
 82 399 l 1,13,14
 92 482 92 482 155.5 552.5 c 128,-1,15
 219 623 219 623 303 623 c 0,16,17
 359 623 359 623 398.5 612.5 c 128,-1,18
 438 602 438 602 455 590 c 128,-1,19
 472 578 472 578 493.5 567.5 c 128,-1,20
 515 557 515 557 539 557 c 0,21,22
 588 557 588 557 625 574 c 128,-1,23
 662 591 662 591 666 623 c 1,0,-1
EndSplineSet
Validated: 1
EndChar

StartChar: exclamdown
Encoding: 161 161 312
Width: 448
VWidth: 0
Flags: W
HStem: 1032 164<113 328>
VStem: 92 256<-238 259> 113 215<614 827 1032 1196>
LayerCount: 2
Fore
SplineSet
328 1032 m 1,0,-1
 113 1032 l 1,1,-1
 113 1196 l 1,2,-1
 328 1196 l 1,3,-1
 328 1032 l 1,0,-1
92 -238 m 17,4,-1
 123 827 l 1,5,-1
 317 827 l 1,6,-1
 348 -238 l 1,7,-1
 92 -238 l 17,4,-1
EndSplineSet
Validated: 1
EndChar

StartChar: questiondown
Encoding: 191 191 313
Width: 944
VWidth: 0
Flags: W
HStem: -176 102<401 645> 612 215<438 612> 1032 164<418 633>
VStem: 41 256<88 480> 418 215<1032 1196> 438 174<727 827>
LayerCount: 2
Fore
SplineSet
633 1032 m 1,0,-1
 418 1032 l 1,1,-1
 418 1196 l 1,2,-1
 633 1196 l 1,3,-1
 633 1032 l 1,0,-1
422 709 m 1,4,-1
 438 827 l 1,5,-1
 612 827 l 1,6,-1
 643 612 l 1,7,-1
 535 612 l 2,8,9
 417 612 417 612 357 536 c 128,-1,10
 297 460 297 460 297 295 c 0,11,12
 297 113 297 113 352 19.5 c 128,-1,13
 407 -74 407 -74 545 -74 c 0,14,15
 575 -74 575 -74 594.5 -69 c 128,-1,16
 614 -64 614 -64 627 -51.5 c 128,-1,17
 640 -39 640 -39 647 -27.5 c 128,-1,18
 654 -16 654 -16 665.5 8 c 128,-1,19
 677 32 677 32 688 49 c 1,20,-1
 883 2 l 1,21,22
 743 -176 743 -176 514 -176 c 0,23,24
 311 -176 311 -176 176 -46 c 128,-1,25
 41 84 41 84 41 295 c 0,26,27
 41 385 41 385 74 460 c 128,-1,28
 107 535 107 535 162.5 584.5 c 128,-1,29
 218 634 218 634 283.5 665.5 c 128,-1,30
 349 697 349 697 422 709 c 1,4,-1
EndSplineSet
Validated: 1
EndChar

StartChar: cent
Encoding: 162 162 314
Width: 944
VWidth: 0
Flags: W
HStem: 20 102<446 526 606 653> 778 102<444 526>
VStem: 51 256<248 650> 365 80<-102 25 195 715 879 1004> 526 80<-102 20 129 739 879 1004>
LayerCount: 2
Fore
SplineSet
365 864 m 1,0,-1
 365 1004 l 1,1,-1
 444 1004 l 1,2,-1
 444 879 l 1,3,4
 456 881 456 881 483 881 c 0,5,6
 512 881 512 881 526 879 c 1,7,-1
 526 1004 l 1,8,-1
 606 1004 l 1,9,-1
 606 864 l 1,10,11
 779 811 779 811 860 635 c 1,12,-1
 666 567 l 1,13,14
 662 581 662 581 655 608.5 c 128,-1,15
 648 636 648 636 644 650 c 128,-1,16
 640 664 640 664 634 683 c 128,-1,17
 628 702 628 702 621 715 c 128,-1,18
 614 728 614 728 606 739 c 1,19,-1
 606 129 l 1,20,21
 629 135 629 135 642 148.5 c 128,-1,22
 655 162 655 162 671.5 196 c 128,-1,23
 688 230 688 230 698 246 c 1,24,-1
 862 199 l 1,25,26
 804 126 804 126 745.5 83.5 c 128,-1,27
 687 41 687 41 606 27 c 1,28,-1
 606 -102 l 1,29,-1
 526 -102 l 1,30,-1
 526 20 l 1,31,-1
 524 20 l 2,32,33
 512 20 512 20 444 25 c 1,34,-1
 444 -102 l 1,35,-1
 365 -102 l 1,36,-1
 365 39 l 1,37,38
 221 77 221 77 136 182.5 c 128,-1,39
 51 288 51 288 51 451 c 0,40,41
 51 615 51 615 140.5 722 c 128,-1,42
 230 829 230 829 365 864 c 1,0,-1
365 195 m 1,43,-1
 365 715 l 1,44,45
 307 643 307 643 307 451 c 0,46,47
 307 266 307 266 365 195 c 1,43,-1
444 139 m 1,48,49
 482 126 482 126 526 123 c 1,50,-1
 526 778 l 1,51,-1
 514 778 l 2,52,53
 471 778 471 778 444 770 c 1,54,-1
 444 139 l 1,48,49
EndSplineSet
Validated: 1
EndChar

StartChar: brokenbar
Encoding: 166 166 315
Width: 376
VWidth: 0
Flags: W
HStem: 0 43G<92 276> 1393 41G<92 276>
VStem: 92 184<0 655 778 1434>
LayerCount: 2
Fore
SplineSet
276 1434 m 25,0,-1
 276 778 l 1,1,-1
 92 778 l 1,2,-1
 92 1434 l 1,3,-1
 276 1434 l 25,0,-1
276 655 m 25,4,-1
 276 0 l 1,5,-1
 92 0 l 1,6,-1
 92 655 l 1,7,-1
 276 655 l 25,4,-1
EndSplineSet
Validated: 1
EndChar

StartChar: OE
Encoding: 338 338 316
Width: 1955
VWidth: 0
Flags: W
HStem: -20 102<587 864> 0 102<1278 1872> 799 102<1278 1655> 1331 102<1278 1839> 1352 102<565 860>
VStem: 102 266<424 1012> 1012 266<236 799 901 1195>
AnchorPoint: "top" 969 1442 basechar 0
AnchorPoint: "ogonek" 1749 2 basechar 0
AnchorPoint: "bottom" 958 0 basechar 0
AnchorPoint: "horn" 1794 1380 basechar 0
AnchorPoint: "cedilla" 1491 2 basechar 0
LayerCount: 2
Fore
SplineSet
1872 0 m 1,0,-1
 1012 0 l 1,1,-1
 1012 53 l 1,2,3
 875 -20 875 -20 705 -20 c 0,4,5
 621 -20 621 -20 537.5 7 c 128,-1,6
 454 34 454 34 375 93 c 128,-1,7
 296 152 296 152 235.5 236 c 128,-1,8
 175 320 175 320 138.5 444.5 c 128,-1,9
 102 569 102 569 102 717 c 128,-1,10
 102 865 102 865 136.5 989.5 c 128,-1,11
 171 1114 171 1114 228.5 1198.5 c 128,-1,12
 286 1283 286 1283 362 1341.5 c 128,-1,13
 438 1400 438 1400 520 1427 c 128,-1,14
 602 1454 602 1454 686 1454 c 0,15,16
 866 1454 866 1454 1012 1372 c 1,17,-1
 1012 1434 l 1,18,-1
 1839 1434 l 1,19,-1
 1839 1331 l 1,20,-1
 1278 1331 l 1,21,-1
 1278 901 l 1,22,-1
 1655 901 l 1,23,-1
 1655 799 l 1,24,-1
 1278 799 l 1,25,-1
 1278 102 l 1,26,-1
 1872 102 l 1,27,-1
 1872 0 l 1,0,-1
698 1352 m 0,28,29
 553 1352 553 1352 461 1189.5 c 128,-1,30
 369 1027 369 1027 369 717 c 0,31,32
 369 586 369 586 389.5 478 c 128,-1,33
 410 370 410 370 444 298 c 128,-1,34
 478 226 478 226 523.5 176 c 128,-1,35
 569 126 569 126 617.5 104 c 128,-1,36
 666 82 666 82 717 82 c 0,37,38
 813 82 813 82 889.5 143.5 c 128,-1,39
 966 205 966 205 1012 326 c 1,40,-1
 1012 1110 l 1,41,42
 917 1352 917 1352 698 1352 c 0,28,29
EndSplineSet
Validated: 1
EndChar

StartChar: oe
Encoding: 339 339 317
Width: 1652
VWidth: 0
Flags: W
HStem: -20 102<425 646 1064 1330> 451 102<975 1309> 819 102<426 645 1050 1254>
VStem: 90 256<214 657> 715 256<188 451 553 725>
AnchorPoint: "top" 854 1004 basechar 0
AnchorPoint: "ogonek" 1182 2 basechar 0
AnchorPoint: "bottom" 862 0 basechar 0
AnchorPoint: "cedilla" 1163 2 basechar 0
AnchorPoint: "horn" 1413 717 basechar 0
LayerCount: 2
Fore
SplineSet
975 553 m 1,0,-1
 1309 553 l 1,1,2
 1307 615 1307 615 1300 659.5 c 128,-1,3
 1293 704 1293 704 1278 742 c 128,-1,4
 1263 780 1263 780 1235 799.5 c 128,-1,5
 1207 819 1207 819 1167 819 c 0,6,7
 1074 819 1074 819 1029 751.5 c 128,-1,8
 984 684 984 684 975 553 c 1,0,-1
850 795 m 1,9,10
 910 856 910 856 985 889 c 128,-1,11
 1060 922 1060 922 1137 922 c 0,12,13
 1240 922 1240 922 1324 880.5 c 128,-1,14
 1408 839 1408 839 1459.5 770.5 c 128,-1,15
 1511 702 1511 702 1539 619.5 c 128,-1,16
 1567 537 1567 537 1567 451 c 1,17,-1
 971 451 l 1,18,19
 971 379 971 379 977 325.5 c 128,-1,20
 983 272 983 272 998.5 224.5 c 128,-1,21
 1014 177 1014 177 1040.5 147 c 128,-1,22
 1067 117 1067 117 1109 99.5 c 128,-1,23
 1151 82 1151 82 1208 82 c 0,24,25
 1282 82 1282 82 1316.5 113 c 128,-1,26
 1351 144 1351 144 1362 205 c 1,27,-1
 1556 158 l 1,28,29
 1491 76 1491 76 1395 28 c 128,-1,30
 1299 -20 1299 -20 1178 -20 c 0,31,32
 977 -20 977 -20 850 104 c 1,33,34
 729 -20 729 -20 512 -20 c 0,35,36
 314 -20 314 -20 202 107 c 128,-1,37
 90 234 90 234 90 451 c 0,38,39
 90 555 90 555 127 645 c 128,-1,40
 164 735 164 735 224 794.5 c 128,-1,41
 284 854 284 854 359.5 888 c 128,-1,42
 435 922 435 922 512 922 c 0,43,44
 729 922 729 922 850 795 c 1,9,10
715 451 m 0,45,46
 715 537 715 537 707 600.5 c 128,-1,47
 699 664 699 664 680.5 715.5 c 128,-1,48
 662 767 662 767 627.5 793 c 128,-1,49
 593 819 593 819 543 819 c 0,50,51
 435 819 435 819 390.5 725.5 c 128,-1,52
 346 632 346 632 346 451 c 0,53,54
 346 380 346 380 351 326 c 128,-1,55
 356 272 356 272 369.5 224.5 c 128,-1,56
 383 177 383 177 404.5 146.5 c 128,-1,57
 426 116 426 116 461 99 c 128,-1,58
 496 82 496 82 543 82 c 0,59,60
 595 82 595 82 630 108 c 128,-1,61
 665 134 665 134 683 186 c 128,-1,62
 701 238 701 238 708 300.5 c 128,-1,63
 715 363 715 363 715 451 c 0,45,46
EndSplineSet
Validated: 1
EndChar

StartChar: Euro
Encoding: 8364 8364 318
Width: 1204
VWidth: 0
Flags: W
HStem: -20 102<610 855> 512 102<102 176 440 729> 819 102<102 176 436 729> 1331 102<569 847>
VStem: 172 256<614 819>
LayerCount: 2
Fore
SplineSet
1122 209 m 1,0,1
 1058 107 1058 107 948 43.5 c 128,-1,2
 838 -20 838 -20 709 -20 c 0,3,4
 653 -20 653 -20 592.5 -0.5 c 128,-1,5
 532 19 532 19 469 61.5 c 128,-1,6
 406 104 406 104 352 165 c 128,-1,7
 298 226 298 226 254.5 315.5 c 128,-1,8
 211 405 211 405 190 512 c 1,9,-1
 72 512 l 1,10,-1
 102 614 l 1,11,-1
 176 614 l 1,12,13
 172 680 172 680 172 717 c 0,14,15
 172 753 172 753 176 819 c 1,16,-1
 72 819 l 1,17,-1
 102 922 l 1,18,-1
 190 922 l 1,19,20
 209 1027 209 1027 248.5 1114 c 128,-1,21
 288 1201 288 1201 337.5 1259 c 128,-1,22
 387 1317 387 1317 445.5 1357.5 c 128,-1,23
 504 1398 504 1398 562 1416 c 128,-1,24
 620 1434 620 1434 676 1434 c 0,25,26
 995 1434 995 1434 1118 1245 c 1,27,-1
 926 1178 l 1,28,29
 905 1215 905 1215 894.5 1231.5 c 128,-1,30
 884 1248 884 1248 863.5 1272 c 128,-1,31
 843 1296 843 1296 823 1306 c 128,-1,32
 803 1316 803 1316 772 1323.5 c 128,-1,33
 741 1331 741 1331 700 1331 c 0,34,35
 582 1331 582 1331 518.5 1233 c 128,-1,36
 455 1135 455 1135 436 922 c 1,37,-1
 729 922 l 1,38,-1
 729 819 l 1,39,-1
 430 819 l 1,40,41
 428 786 428 786 428 717 c 0,42,43
 428 647 428 647 430 614 c 1,44,-1
 729 614 l 1,45,-1
 729 512 l 1,46,-1
 440 512 l 1,47,48
 468 297 468 297 548.5 189.5 c 128,-1,49
 629 82 629 82 733 82 c 0,50,51
 752 82 752 82 768 84.5 c 128,-1,52
 784 87 784 87 796.5 89.5 c 128,-1,53
 809 92 809 92 821.5 99.5 c 128,-1,54
 834 107 834 107 842 112 c 128,-1,55
 850 117 850 117 860.5 130 c 128,-1,56
 871 143 871 143 876.5 149 c 128,-1,57
 882 155 882 155 892 173.5 c 128,-1,58
 902 192 902 192 906.5 200 c 128,-1,59
 911 208 911 208 923 231 c 128,-1,60
 935 254 935 254 940 264 c 1,61,-1
 1122 209 l 1,0,1
EndSplineSet
Validated: 1
EndChar

StartChar: yen
Encoding: 165 165 319
Width: 989
VWidth: 0
UnlinkRmOvrlpSave: 1
Flags: W
HStem: 0 43<383 649> 258 102<240 782> 479 102<240 782> 1393 41<23 301 768 973>
VStem: 383 266<0 727>
LayerCount: 2
Fore
SplineSet
240 360 m 1,0,-1
 782 360 l 1,1,-1
 782 258 l 1,2,-1
 240 258 l 1,3,-1
 240 360 l 1,0,-1
240 582 m 1,4,-1
 782 582 l 1,5,-1
 782 479 l 1,6,-1
 240 479 l 1,7,-1
 240 582 l 1,4,-1
EndSplineSet
Refer: 51 89 N 1 0 0 1 0 0 2
EndChar

StartChar: sterling
Encoding: 163 163 320
Width: 903
VWidth: 0
Flags: W
HStem: 0 102<51 100 250 821> 696 102<147 199 444 659> 1169 102<465 663>
VStem: 199 246<278 696 799 1140>
LayerCount: 2
Fore
SplineSet
199 991 m 2,0,1
 199 1064 199 1064 229 1120 c 128,-1,2
 259 1176 259 1176 309.5 1208 c 128,-1,3
 360 1240 360 1240 420 1256 c 128,-1,4
 480 1272 480 1272 547 1272 c 0,5,6
 619 1272 619 1272 667 1250 c 128,-1,7
 715 1228 715 1228 756 1180 c 1,8,-1
 625 1118 l 1,9,10
 589 1169 589 1169 518 1169 c 0,11,12
 500 1169 500 1169 489 1162.5 c 128,-1,13
 478 1156 478 1156 466.5 1133 c 128,-1,14
 455 1110 455 1110 449.5 1058.5 c 128,-1,15
 444 1007 444 1007 444 924 c 2,16,-1
 444 799 l 1,17,-1
 659 799 l 1,18,-1
 659 696 l 1,19,-1
 444 696 l 1,20,-1
 444 446 l 2,21,22
 444 388 444 388 425 332.5 c 128,-1,23
 406 277 406 277 381.5 240 c 128,-1,24
 357 203 357 203 325.5 169.5 c 128,-1,25
 294 136 294 136 277.5 122.5 c 128,-1,26
 261 109 261 109 250 102 c 1,27,-1
 821 102 l 1,28,-1
 821 0 l 1,29,-1
 51 0 l 1,30,-1
 51 102 l 1,31,32
 71 102 71 102 106 154 c 128,-1,33
 141 206 141 206 170 290 c 128,-1,34
 199 374 199 374 199 446 c 2,35,-1
 199 696 l 1,36,-1
 117 696 l 1,37,-1
 147 799 l 1,38,-1
 199 799 l 1,39,-1
 199 991 l 2,0,1
EndSplineSet
Validated: 1
EndChar

StartChar: section
Encoding: 167 167 321
Width: 808
VWidth: 0
Flags: W
HStem: -18 102<274 453> 1268 102<356 535>
VStem: 100 223<986 1226> 127 223<568 809> 459 223<542 784> 485 223<126 366>
LayerCount: 2
Fore
SplineSet
379 84 m 128,-1,1
 416 84 416 84 441.5 113.5 c 128,-1,2
 467 143 467 143 476 181 c 128,-1,3
 485 219 485 219 485 262 c 0,4,5
 485 307 485 307 465.5 337.5 c 128,-1,6
 446 368 446 368 414 385.5 c 128,-1,7
 382 403 382 403 344 417.5 c 128,-1,8
 306 432 306 432 268 450.5 c 128,-1,9
 230 469 230 469 198 495.5 c 128,-1,10
 166 522 166 522 146.5 570.5 c 128,-1,11
 127 619 127 619 127 686 c 0,12,13
 127 813 127 813 213 893 c 1,14,15
 159 925 159 925 129.5 971.5 c 128,-1,16
 100 1018 100 1018 100 1098 c 0,17,18
 100 1140 100 1140 122 1186.5 c 128,-1,19
 144 1233 144 1233 183.5 1274.5 c 128,-1,20
 223 1316 223 1316 289 1343 c 128,-1,21
 355 1370 355 1370 434 1370 c 0,22,23
 654 1370 654 1370 739 1135 c 1,24,-1
 596 1114 l 1,25,26
 584 1146 584 1146 573.5 1167.5 c 128,-1,27
 563 1189 563 1189 543.5 1215 c 128,-1,28
 524 1241 524 1241 495.5 1254.5 c 128,-1,29
 467 1268 467 1268 430 1268 c 128,-1,30
 393 1268 393 1268 367.5 1238.5 c 128,-1,31
 342 1209 342 1209 333 1171 c 128,-1,32
 324 1133 324 1133 324 1090 c 0,33,34
 324 1045 324 1045 343.5 1014.5 c 128,-1,35
 363 984 363 984 395 966.5 c 128,-1,36
 427 949 427 949 465 934.5 c 128,-1,37
 503 920 503 920 541 901.5 c 128,-1,38
 579 883 579 883 611 856.5 c 128,-1,39
 643 830 643 830 662.5 781.5 c 128,-1,40
 682 733 682 733 682 666 c 0,41,42
 682 539 682 539 596 459 c 1,43,44
 650 427 650 427 679.5 380.5 c 128,-1,45
 709 334 709 334 709 254 c 0,46,47
 709 212 709 212 687 165.5 c 128,-1,48
 665 119 665 119 625.5 77.5 c 128,-1,49
 586 36 586 36 520 9 c 128,-1,50
 454 -18 454 -18 375 -18 c 0,51,52
 155 -18 155 -18 70 217 c 1,53,-1
 213 238 l 1,54,55
 225 206 225 206 235.5 184.5 c 128,-1,56
 246 163 246 163 265.5 137 c 128,-1,57
 285 111 285 111 313.5 97.5 c 128,-1,0
 342 84 342 84 379 84 c 128,-1,1
385 811 m 1,58,59
 350 766 350 766 350 678 c 0,60,61
 350 587 350 587 424 541 c 1,62,63
 459 586 459 586 459 674 c 0,64,65
 459 765 459 765 385 811 c 1,58,59
EndSplineSet
Validated: 1
EndChar

StartChar: copyright
Encoding: 169 169 322
Width: 1101
VWidth: 0
Flags: W
HStem: -20 82<425 665> 193 61<501 628> 733 61<492 615> 946 82<425 665>
VStem: 27 207<283 725> 285 182<326 673> 856 207<283 725>
LayerCount: 2
Fore
SplineSet
233 504 m 128,-1,1
 233 318 233 318 328.5 189.5 c 128,-1,2
 424 61 424 61 545 61 c 128,-1,3
 666 61 666 61 761 189.5 c 128,-1,4
 856 318 856 318 856 504 c 128,-1,5
 856 690 856 690 761 818 c 128,-1,6
 666 946 666 946 545 946 c 128,-1,7
 424 946 424 946 328.5 818 c 128,-1,0
 233 690 233 690 233 504 c 128,-1,1
27 504 m 128,-1,9
 27 623 27 623 63 717 c 128,-1,10
 99 811 99 811 153.5 868 c 128,-1,11
 208 925 208 925 279.5 962.5 c 128,-1,12
 351 1000 351 1000 416.5 1014 c 128,-1,13
 482 1028 482 1028 545 1028 c 128,-1,14
 608 1028 608 1028 673.5 1014 c 128,-1,15
 739 1000 739 1000 810.5 962.5 c 128,-1,16
 882 925 882 925 936.5 868 c 128,-1,17
 991 811 991 811 1027 717 c 128,-1,18
 1063 623 1063 623 1063 504 c 128,-1,19
 1063 385 1063 385 1027 291 c 128,-1,20
 991 197 991 197 936.5 140 c 128,-1,21
 882 83 882 83 810.5 45.5 c 128,-1,22
 739 8 739 8 673.5 -6 c 128,-1,23
 608 -20 608 -20 545 -20 c 128,-1,24
 482 -20 482 -20 416.5 -6 c 128,-1,25
 351 8 351 8 279.5 45.5 c 128,-1,26
 208 83 208 83 153.5 140 c 128,-1,27
 99 197 99 197 63 291 c 128,-1,8
 27 385 27 385 27 504 c 128,-1,9
770 299 m 1,28,29
 690 193 690 193 551 193 c 0,30,31
 507 193 507 193 461.5 211.5 c 128,-1,32
 416 230 416 230 376 265.5 c 128,-1,33
 336 301 336 301 310.5 362 c 128,-1,34
 285 423 285 423 285 498 c 0,35,36
 285 574 285 574 308 633 c 128,-1,37
 331 692 331 692 368 726 c 128,-1,38
 405 760 405 760 448 777.5 c 128,-1,39
 491 795 491 795 535 795 c 0,40,41
 627 795 627 795 679.5 773 c 128,-1,42
 732 751 732 751 768 705 c 1,43,-1
 635 670 l 1,44,45
 631 676 631 676 621.5 692.5 c 128,-1,46
 612 709 612 709 606.5 715 c 128,-1,47
 601 721 601 721 585.5 727 c 128,-1,48
 570 733 570 733 547 733 c 0,49,50
 497 733 497 733 482 682 c 128,-1,51
 467 631 467 631 467 498 c 128,-1,52
 467 365 467 365 488.5 309.5 c 128,-1,53
 510 254 510 254 563 254 c 0,54,55
 588 254 588 254 604.5 262.5 c 128,-1,56
 621 271 621 271 627 281 c 128,-1,57
 633 291 633 291 640 307.5 c 128,-1,58
 647 324 647 324 651 330 c 1,59,-1
 770 299 l 1,28,29
EndSplineSet
Validated: 1
EndChar

StartChar: registered
Encoding: 174 174 323
Width: 1101
VWidth: 0
Flags: W
HStem: -20 82<425 665> 739 61<506 568> 946 82<425 665>
VStem: 27 207<283 725> 365 141<207 446 530 739> 592 139<542 727> 610 133<207 365> 856 207<283 725>
LayerCount: 2
Fore
SplineSet
233 504 m 128,-1,1
 233 318 233 318 328.5 189.5 c 128,-1,2
 424 61 424 61 545 61 c 128,-1,3
 666 61 666 61 761 189.5 c 128,-1,4
 856 318 856 318 856 504 c 128,-1,5
 856 690 856 690 761 818 c 128,-1,6
 666 946 666 946 545 946 c 128,-1,7
 424 946 424 946 328.5 818 c 128,-1,0
 233 690 233 690 233 504 c 128,-1,1
27 504 m 128,-1,9
 27 623 27 623 63 717 c 128,-1,10
 99 811 99 811 153.5 868 c 128,-1,11
 208 925 208 925 279.5 962.5 c 128,-1,12
 351 1000 351 1000 416.5 1014 c 128,-1,13
 482 1028 482 1028 545 1028 c 128,-1,14
 608 1028 608 1028 673.5 1014 c 128,-1,15
 739 1000 739 1000 810.5 962.5 c 128,-1,16
 882 925 882 925 936.5 868 c 128,-1,17
 991 811 991 811 1027 717 c 128,-1,18
 1063 623 1063 623 1063 504 c 128,-1,19
 1063 385 1063 385 1027 291 c 128,-1,20
 991 197 991 197 936.5 140 c 128,-1,21
 882 83 882 83 810.5 45.5 c 128,-1,22
 739 8 739 8 673.5 -6 c 128,-1,23
 608 -20 608 -20 545 -20 c 128,-1,24
 482 -20 482 -20 416.5 -6 c 128,-1,25
 351 8 351 8 279.5 45.5 c 128,-1,26
 208 83 208 83 153.5 140 c 128,-1,27
 99 197 99 197 63 291 c 128,-1,8
 27 385 27 385 27 504 c 128,-1,9
506 207 m 1,28,-1
 365 207 l 1,29,-1
 365 801 l 1,30,-1
 543 801 l 2,31,32
 638 801 638 801 684.5 748.5 c 128,-1,33
 731 696 731 696 731 635 c 0,34,35
 731 591 731 591 705 548 c 128,-1,36
 679 505 679 505 629 485 c 1,37,38
 662 447 662 447 702.5 363.5 c 128,-1,39
 743 280 743 280 743 207 c 1,40,-1
 610 207 l 1,41,42
 610 278 610 278 576 347.5 c 128,-1,43
 542 417 542 417 506 446 c 1,44,-1
 506 207 l 1,28,-1
506 739 m 1,45,-1
 506 530 l 1,46,47
 548 530 548 530 570 562 c 128,-1,48
 592 594 592 594 592 635 c 0,49,50
 592 675 592 675 570 707 c 128,-1,51
 548 739 548 739 506 739 c 1,45,-1
EndSplineSet
Validated: 1
EndChar

StartChar: ordfeminine
Encoding: 170 170 324
Width: 620
VWidth: 0
Flags: W
HStem: 348 61<72 549> 516 61<272 354> 786 61<266 352> 938 61<215 340>
VStem: 106 143<584 782> 354 143<578 786>
LayerCount: 2
Fore
SplineSet
72 410 m 1,0,-1
 549 410 l 1,1,-1
 549 348 l 1,2,-1
 72 348 l 1,3,-1
 72 410 l 1,0,-1
354 582 m 1,4,-1
 354 766 l 1,5,6
 354 784 l 1,7,8
 340 786 340 786 315 786 c 0,9,10
 288 786 288 786 269 761 c 128,-1,11
 250 736 250 736 250 688 c 0,12,13
 250 638 250 638 269 608 c 128,-1,14
 288 578 288 578 315 578 c 0,15,16
 330 578 330 578 354 582 c 1,4,-1
387 528 m 1,17,18
 343 516 343 516 299 516 c 0,19,20
 210 516 210 516 158 557.5 c 128,-1,21
 106 599 106 599 106 688 c 0,22,23
 106 733 106 733 124 766 c 128,-1,24
 142 799 142 799 171.5 816 c 128,-1,25
 201 833 201 833 232.5 840.5 c 128,-1,26
 264 848 264 848 299 848 c 0,27,28
 336 848 336 848 352 846 c 1,29,30
 349 894 349 894 337 916 c 128,-1,31
 325 938 325 938 299 938 c 128,-1,32
 273 938 273 938 241 923 c 128,-1,33
 209 908 209 908 184 883 c 1,34,-1
 113 948 l 1,35,36
 206 999 206 999 283 999 c 0,37,38
 355 999 355 999 395.5 988.5 c 128,-1,39
 436 978 436 978 460 946 c 128,-1,40
 484 914 484 914 491 868 c 128,-1,41
 498 822 498 822 498 739 c 2,42,-1
 498 528 l 1,43,-1
 387 528 l 1,17,18
EndSplineSet
Validated: 1
EndChar

StartChar: ordmasculine
Encoding: 186 186 325
Width: 620
VWidth: 0
Flags: W
HStem: 348 61<72 549> 516 61<263 363> 938 61<261 362>
VStem: 84 145<599 903> 393 141<602 914>
LayerCount: 2
Fore
SplineSet
72 410 m 1,0,-1
 549 410 l 1,1,-1
 549 348 l 1,2,-1
 72 348 l 1,3,-1
 72 410 l 1,0,-1
393 758 m 0,4,5
 393 838 393 838 372 888 c 128,-1,6
 351 938 351 938 317 938 c 0,7,8
 229 938 229 938 229 758 c 0,9,10
 229 673 229 673 251.5 625.5 c 128,-1,11
 274 578 274 578 317 578 c 0,12,13
 354 578 354 578 373.5 627 c 128,-1,14
 393 676 393 676 393 758 c 0,4,5
301 516 m 0,15,16
 200 516 200 516 142 581.5 c 128,-1,17
 84 647 84 647 84 758 c 0,18,19
 84 862 84 862 151 930.5 c 128,-1,20
 218 999 218 999 301 999 c 0,21,22
 407 999 407 999 471 937 c 128,-1,23
 535 875 535 875 535 758 c 128,-1,24
 535 641 535 641 471 578.5 c 128,-1,25
 407 516 407 516 301 516 c 0,15,16
EndSplineSet
Validated: 1
EndChar

StartChar: guilsinglright
Encoding: 8250 8250 326
Width: 630
VWidth: 0
Flags: W
VStem: 102 426
LayerCount: 2
Fore
SplineSet
377 451 m 1,0,-1
 102 778 l 1,1,-1
 180 864 l 1,2,-1
 528 451 l 1,3,-1
 180 39 l 1,4,-1
 102 125 l 1,5,-1
 377 451 l 1,0,-1
EndSplineSet
Validated: 1
EndChar

StartChar: guilsinglleft
Encoding: 8249 8249 327
Width: 630
VWidth: 0
Flags: W
VStem: 102 426
LayerCount: 2
Fore
SplineSet
254 453 m 1,0,-1
 528 125 l 1,1,-1
 451 39 l 1,2,-1
 102 453 l 1,3,-1
 451 864 l 1,4,-1
 528 778 l 1,5,-1
 254 453 l 1,0,-1
EndSplineSet
Validated: 1
EndChar

StartChar: quoteleft
Encoding: 8216 8216 330
Width: 397
VWidth: 0
Flags: W
HStem: 985 367<163 238>
VStem: 92 188<985 1197>
LayerCount: 2
Fore
SplineSet
281 985 m 1,0,-1
 92 985 l 1,1,2
 92 1040 92 1040 94.5 1085.5 c 128,-1,3
 97 1131 97 1131 102.5 1165.5 c 128,-1,4
 108 1200 108 1200 112.5 1223 c 128,-1,5
 117 1246 117 1246 126.5 1269 c 128,-1,6
 136 1292 136 1292 140.5 1301 c 128,-1,7
 145 1310 145 1310 156.5 1329 c 128,-1,8
 168 1348 168 1348 170 1352 c 1,9,-1
 287 1352 l 1,10,11
 238 1283 238 1283 238 1200 c 0,12,13
 238 1175 238 1175 259.5 1105 c 128,-1,14
 281 1035 281 1035 281 985 c 1,0,-1
EndSplineSet
Validated: 1
EndChar

StartChar: quoteright
Encoding: 8217 8217 331
Width: 397
VWidth: 0
Flags: W
HStem: 985 367<-47 28>
VStem: 98 188<1139 1352>
LayerCount: 2
Fore
SplineSet
98 1352 m 1,0,-1
 287 1352 l 1,1,2
 287 1297 287 1297 284.5 1251.5 c 128,-1,3
 282 1206 282 1206 276.5 1171.5 c 128,-1,4
 271 1137 271 1137 266.5 1114 c 128,-1,5
 262 1091 262 1091 252.5 1068 c 128,-1,6
 243 1045 243 1045 238.5 1036 c 128,-1,7
 234 1027 234 1027 222.5 1008 c 128,-1,8
 211 989 211 989 209 985 c 1,9,-1
 92 985 l 1,10,11
 141 1054 141 1054 141 1137 c 0,12,13
 141 1162 141 1162 119.5 1232 c 128,-1,14
 98 1302 98 1302 98 1352 c 1,0,-1
EndSplineSet
Validated: 1
EndChar

StartChar: bullet
Encoding: 8226 8226 337
Width: 718
VWidth: 0
Flags: W
HStem: 287 483<209 511>
VStem: 84 541<392 654>
LayerCount: 2
Fore
SplineSet
346 287 m 0,0,1
 240 287 240 287 162 354.5 c 128,-1,2
 84 422 84 422 84 528 c 0,3,4
 84 596 84 596 128.5 654 c 128,-1,5
 173 712 173 712 232.5 741 c 128,-1,6
 292 770 292 770 346 770 c 0,7,8
 458 770 458 770 541.5 705.5 c 128,-1,9
 625 641 625 641 625 528 c 128,-1,10
 625 415 625 415 541.5 351 c 128,-1,11
 458 287 458 287 346 287 c 0,0,1
EndSplineSet
Validated: 1
EndChar

StartChar: endash
Encoding: 8211 8211 338
Width: 802
VWidth: 0
Flags: W
HStem: 348 102<82 721>
VStem: 82 639<348 451>
LayerCount: 2
Fore
SplineSet
82 451 m 1,0,-1
 721 451 l 1,1,-1
 721 348 l 1,2,-1
 82 348 l 1,3,-1
 82 451 l 1,0,-1
EndSplineSet
Validated: 1
EndChar

StartChar: emdash
Encoding: 8212 8212 339
Width: 1110
VWidth: 0
Flags: W
HStem: 348 102<82 1028>
LayerCount: 2
Fore
SplineSet
82 451 m 1,0,-1
 1028 451 l 1,1,-1
 1028 348 l 1,2,-1
 82 348 l 1,3,-1
 82 451 l 1,0,-1
EndSplineSet
Validated: 1
EndChar

StartChar: currency
Encoding: 164 164 341
Width: 724
VWidth: 0
Flags: W
HStem: 248 96<302 423> 561 96<302 423>
VStem: 117 178<348 558> 430 178<348 558>
LayerCount: 2
Fore
SplineSet
295 453 m 0,0,1
 295 400 295 400 308.5 372 c 128,-1,2
 322 344 322 344 362 344 c 128,-1,3
 402 344 402 344 416 372.5 c 128,-1,4
 430 401 430 401 430 453 c 128,-1,5
 430 505 430 505 416 533 c 128,-1,6
 402 561 402 561 362 561 c 128,-1,7
 322 561 322 561 308.5 533 c 128,-1,8
 295 505 295 505 295 453 c 0,0,1
164 326 m 1,9,10
 117 376 117 376 117 453 c 128,-1,11
 117 530 117 530 164 580 c 1,12,-1
 82 662 l 1,13,-1
 154 733 l 1,14,-1
 250 637 l 1,15,16
 300 657 300 657 362 657 c 0,17,18
 425 657 425 657 475 637 c 1,19,-1
 571 733 l 1,20,-1
 643 662 l 1,21,-1
 561 580 l 1,22,23
 608 530 608 530 608 453 c 128,-1,24
 608 376 608 376 561 326 c 1,25,-1
 643 244 l 1,26,-1
 571 172 l 1,27,-1
 475 268 l 1,28,29
 425 248 425 248 362 248 c 0,30,31
 300 248 300 248 250 268 c 1,32,-1
 154 172 l 1,33,-1
 82 244 l 1,34,-1
 164 326 l 1,9,10
EndSplineSet
Validated: 1
EndChar

StartChar: logicalnot
Encoding: 172 172 344
Width: 696
VWidth: 0
Flags: W
HStem: 195 256<440 614> 348 102<82 440>
VStem: 440 174<195 348>
LayerCount: 2
Fore
SplineSet
82 451 m 1,0,-1
 614 451 l 1,1,-1
 614 195 l 1,2,-1
 440 195 l 1,3,-1
 440 348 l 1,4,-1
 82 348 l 1,5,-1
 82 451 l 1,0,-1
EndSplineSet
Validated: 1
EndChar

StartChar: plusminus
Encoding: 177 177 345
Width: 856
VWidth: 0
Flags: W
HStem: 53 102<82 774> 453 102<82 332 524 774>
VStem: 332 193<260 453 555 748>
LayerCount: 2
Fore
SplineSet
82 156 m 1,0,-1
 774 156 l 1,1,-1
 774 53 l 1,2,-1
 82 53 l 1,3,-1
 82 156 l 1,0,-1
524 453 m 1,4,-1
 524 260 l 1,5,-1
 332 260 l 1,6,-1
 332 453 l 1,7,-1
 82 453 l 1,8,-1
 82 555 l 1,9,-1
 332 555 l 1,10,-1
 332 748 l 1,11,-1
 524 748 l 1,12,-1
 524 555 l 1,13,-1
 774 555 l 1,14,-1
 774 453 l 1,15,-1
 524 453 l 1,4,-1
EndSplineSet
Validated: 1
EndChar

StartChar: uni00B5
Encoding: 181 181 346
Width: 972
VWidth: 0
Flags: W
HStem: -20 102<396 625> 0 43G<627 883> 860 41G<82 338 627 883>
VStem: 82 256<-293 -4 146 901> 627 256<0 14 94 901>
LayerCount: 2
Fore
SplineSet
627 119 m 1,0,-1
 627 901 l 1,1,-1
 883 901 l 1,2,-1
 883 0 l 1,3,-1
 627 0 l 1,4,-1
 627 14 l 1,5,6
 560 -20 560 -20 479 -20 c 0,7,8
 404 -20 404 -20 338 -4 c 1,9,-1
 338 -293 l 1,10,-1
 82 -293 l 1,11,-1
 82 901 l 1,12,-1
 338 901 l 1,13,-1
 338 467 l 2,14,15
 338 245 338 245 372 163.5 c 128,-1,16
 406 82 406 82 510 82 c 0,17,18
 577 82 577 82 627 119 c 1,0,-1
EndSplineSet
Validated: 1
EndChar

StartChar: divide
Encoding: 247 247 347
Width: 710
VWidth: 0
Flags: W
HStem: 96 170<254 444> 348 102<82 629> 532 170<254 444>
VStem: 254 190<96 266 532 702>
CounterMasks: 1 e0
LayerCount: 2
Fore
SplineSet
254 266 m 1,0,-1
 444 266 l 1,1,-1
 444 96 l 1,2,-1
 254 96 l 1,3,-1
 254 266 l 1,0,-1
254 702 m 1,4,-1
 444 702 l 1,5,-1
 444 532 l 1,6,-1
 254 532 l 1,7,-1
 254 702 l 1,4,-1
82 451 m 1,8,-1
 629 451 l 1,9,-1
 629 348 l 1,10,-1
 82 348 l 1,11,-1
 82 451 l 1,8,-1
EndSplineSet
Validated: 1
EndChar

StartChar: paragraph
Encoding: 182 182 348
Width: 995
VWidth: 0
Flags: W
HStem: 0 43G<457 641 711 895> 1331 102<641 711>
VStem: 82 266<871 1217> 457 184<0 665 799 1290> 711 184<0 1331>
LayerCount: 2
Fore
SplineSet
711 1331 m 1,0,-1
 641 1331 l 1,1,-1
 641 0 l 1,2,-1
 457 0 l 1,3,-1
 457 659 l 1,4,5
 379 667 379 667 314 695.5 c 128,-1,6
 249 724 249 724 207 763 c 128,-1,7
 165 802 165 802 136 851 c 128,-1,8
 107 900 107 900 94.5 948.5 c 128,-1,9
 82 997 82 997 82 1044 c 0,10,11
 82 1096 82 1096 96 1148 c 128,-1,12
 110 1200 110 1200 144 1252 c 128,-1,13
 178 1304 178 1304 227.5 1344 c 128,-1,14
 277 1384 277 1384 354.5 1409 c 128,-1,15
 432 1434 432 1434 526 1434 c 2,16,-1
 895 1434 l 1,17,-1
 895 0 l 1,18,-1
 711 0 l 1,19,-1
 711 1331 l 1,0,-1
457 799 m 1,20,-1
 457 1290 l 1,21,22
 402 1251 402 1251 375 1183 c 128,-1,23
 348 1115 348 1115 348 1044 c 128,-1,24
 348 973 348 973 375 905.5 c 128,-1,25
 402 838 402 838 457 799 c 1,20,-1
EndSplineSet
Validated: 1
EndChar

StartChar: uni00B9
Encoding: 185 185 349
Width: 366
VWidth: 0
Flags: W
HStem: 1282 66<82 139>
VStem: 139 145<754 1288>
LayerCount: 2
Fore
SplineSet
285 1366 m 1,0,-1
 285 754 l 1,1,-1
 139 754 l 1,2,-1
 139 1288 l 1,3,-1
 82 1282 l 1,4,-1
 82 1348 l 1,5,-1
 285 1366 l 1,0,-1
EndSplineSet
Validated: 1
EndChar

StartChar: uni00B2
Encoding: 178 178 350
Width: 559
VWidth: 0
Flags: W
HStem: 752 66<229 477> 1292 66<207 313>
VStem: 84 145<817 912> 328 145<1073 1291>
LayerCount: 2
Fore
SplineSet
82 1235 m 1,0,1
 142 1358 142 1358 297 1358 c 0,2,3
 371 1358 371 1358 422 1305.5 c 128,-1,4
 473 1253 473 1253 473 1174 c 0,5,6
 473 1131 473 1131 455.5 1095 c 128,-1,7
 438 1059 438 1059 411.5 1035 c 128,-1,8
 385 1011 385 1011 353.5 985 c 128,-1,9
 322 959 322 959 295 937.5 c 128,-1,10
 268 916 268 916 249 884.5 c 128,-1,11
 230 853 230 853 229 817 c 1,12,-1
 477 817 l 1,13,-1
 477 752 l 1,14,-1
 84 752 l 1,15,16
 84 814 84 814 102 864 c 128,-1,17
 120 914 120 914 147 943.5 c 128,-1,18
 174 973 174 973 206 1001.5 c 128,-1,19
 238 1030 238 1030 265 1051.5 c 128,-1,20
 292 1073 292 1073 310 1104.5 c 128,-1,21
 328 1136 328 1136 328 1174 c 0,22,23
 328 1234 328 1234 314 1263 c 128,-1,24
 300 1292 300 1292 279 1292 c 0,25,26
 254 1292 254 1292 237 1286 c 128,-1,27
 220 1280 220 1280 209 1264.5 c 128,-1,28
 198 1249 198 1249 193 1238.5 c 128,-1,29
 188 1228 188 1228 180 1204 c 1,30,-1
 82 1235 l 1,0,1
EndSplineSet
Validated: 1
EndChar

StartChar: uni00B3
Encoding: 179 179 351
Width: 583
VWidth: 0
Flags: W
HStem: 741 68<208 342> 1034 66<238 326> 1290 68<221 328>
VStem: 340 141<1108 1288> 360 141<816 1018>
LayerCount: 2
Fore
SplineSet
100 1235 m 1,0,1
 128 1293 128 1293 174.5 1325.5 c 128,-1,2
 221 1358 221 1358 303 1358 c 0,3,4
 376 1358 376 1358 428.5 1307 c 128,-1,5
 481 1256 481 1256 481 1194 c 0,6,7
 481 1148 481 1148 464 1120 c 128,-1,8
 447 1092 447 1092 406 1067 c 1,9,10
 502 1016 502 1016 502 918 c 0,11,12
 502 838 502 838 442.5 789.5 c 128,-1,13
 383 741 383 741 303 741 c 0,14,15
 143 741 143 741 82 866 c 1,16,-1
 180 897 l 1,17,18
 187 877 187 877 193 865 c 128,-1,19
 199 853 199 853 210.5 838.5 c 128,-1,20
 222 824 222 824 241.5 816.5 c 128,-1,21
 261 809 261 809 287 809 c 0,22,23
 320 809 320 809 340 836.5 c 128,-1,24
 360 864 360 864 360 918 c 0,25,26
 360 936 360 936 358.5 950 c 128,-1,27
 357 964 357 964 349.5 980.5 c 128,-1,28
 342 997 342 997 329.5 1008 c 128,-1,29
 317 1019 317 1019 293.5 1026.5 c 128,-1,30
 270 1034 270 1034 238 1034 c 1,31,-1
 238 1100 l 1,32,33
 290 1100 290 1100 315 1119 c 128,-1,34
 340 1138 340 1138 340 1194 c 0,35,36
 340 1290 340 1290 287 1290 c 0,37,38
 271 1290 271 1290 258.5 1286.5 c 128,-1,39
 246 1283 246 1283 239 1279.5 c 128,-1,40
 232 1276 232 1276 224.5 1264.5 c 128,-1,41
 217 1253 217 1253 214.5 1248.5 c 128,-1,42
 212 1244 212 1244 205.5 1226.5 c 128,-1,43
 199 1209 199 1209 197 1204 c 1,44,-1
 100 1235 l 1,0,1
EndSplineSet
Validated: 1
EndChar

StartChar: threequarters
Encoding: 190 190 352
Width: 1081
VWidth: 0
Flags: W
HStem: 0 43G<731 877> 131 66<565 731 877 938> 741 68<208 342> 1034 66<238 325> 1290 68<221 328>
VStem: 340 141<1108 1288> 360 141<816 1018> 731 145<0 131 197 473>
LayerCount: 2
Fore
SplineSet
100 1235 m 1,0,1
 128 1293 128 1293 174.5 1325.5 c 128,-1,2
 221 1358 221 1358 303 1358 c 0,3,4
 376 1358 376 1358 428.5 1307 c 128,-1,5
 481 1256 481 1256 481 1194 c 0,6,7
 481 1148 481 1148 464 1120 c 128,-1,8
 447 1092 447 1092 406 1067 c 1,9,10
 502 1016 502 1016 502 918 c 0,11,12
 502 838 502 838 442.5 789.5 c 128,-1,13
 383 741 383 741 303 741 c 0,14,15
 143 741 143 741 82 866 c 1,16,-1
 180 897 l 1,17,18
 187 877 187 877 193 865 c 128,-1,19
 199 853 199 853 210.5 838.5 c 128,-1,20
 222 824 222 824 241.5 816.5 c 128,-1,21
 261 809 261 809 287 809 c 0,22,23
 320 809 320 809 340 836.5 c 128,-1,24
 360 864 360 864 360 918 c 0,25,26
 360 937 360 937 358.5 950 c 128,-1,27
 357 963 357 963 350.5 980.5 c 128,-1,28
 344 998 344 998 331.5 1008.5 c 128,-1,29
 319 1019 319 1019 295.5 1026.5 c 128,-1,30
 272 1034 272 1034 238 1034 c 1,31,-1
 238 1100 l 1,32,33
 290 1100 290 1100 315 1119 c 128,-1,34
 340 1138 340 1138 340 1194 c 0,35,36
 340 1290 340 1290 287 1290 c 0,37,38
 271 1290 271 1290 258.5 1286.5 c 128,-1,39
 246 1283 246 1283 239 1279.5 c 128,-1,40
 232 1276 232 1276 224.5 1264.5 c 128,-1,41
 217 1253 217 1253 214.5 1248.5 c 128,-1,42
 212 1244 212 1244 205.5 1226.5 c 128,-1,43
 199 1209 199 1209 197 1204 c 1,44,-1
 100 1235 l 1,0,1
82 264 m 1,45,-1
 842 1047 l 1,46,-1
 999 1047 l 1,47,-1
 240 264 l 1,48,-1
 82 264 l 1,45,-1
471 174 m 1,49,-1
 733 606 l 1,50,-1
 877 606 l 1,51,-1
 877 197 l 1,52,-1
 938 197 l 1,53,-1
 938 131 l 1,54,-1
 877 131 l 1,55,-1
 877 0 l 1,56,-1
 731 0 l 1,57,-1
 731 131 l 1,58,-1
 471 131 l 1,59,-1
 471 174 l 1,49,-1
731 473 m 1,60,-1
 565 197 l 1,61,-1
 731 197 l 1,62,-1
 731 473 l 1,60,-1
EndSplineSet
Validated: 1
EndChar

StartChar: onequarter
Encoding: 188 188 353
Width: 1081
VWidth: 0
Flags: W
HStem: 0 43G<731 877> 131 66<565 731 877 938> 1282 66<215 272>
VStem: 272 145<754 1288> 731 145<0 131 197 473>
LayerCount: 2
Fore
SplineSet
418 1366 m 1,0,-1
 418 754 l 1,1,-1
 272 754 l 1,2,-1
 272 1288 l 1,3,-1
 215 1282 l 1,4,-1
 215 1348 l 1,5,-1
 418 1366 l 1,0,-1
82 264 m 1,6,-1
 842 1047 l 1,7,-1
 999 1047 l 1,8,-1
 240 264 l 1,9,-1
 82 264 l 1,6,-1
471 174 m 1,10,-1
 733 606 l 1,11,-1
 877 606 l 1,12,-1
 877 197 l 1,13,-1
 938 197 l 1,14,-1
 938 131 l 1,15,-1
 877 131 l 1,16,-1
 877 0 l 1,17,-1
 731 0 l 1,18,-1
 731 131 l 1,19,-1
 471 131 l 1,20,-1
 471 174 l 1,10,-1
731 473 m 1,21,-1
 565 197 l 1,22,-1
 731 197 l 1,23,-1
 731 473 l 1,21,-1
EndSplineSet
Validated: 1
EndChar

StartChar: onehalf
Encoding: 189 189 354
Width: 1085
VWidth: 0
Flags: W
HStem: 0 66<756 1004> 541 66<733 839> 1282 66<215 272>
VStem: 272 145<754 1288> 610 145<66 160> 854 145<321 539>
LayerCount: 2
Fore
SplineSet
608 483 m 1,0,1
 668 606 668 606 823 606 c 0,2,3
 897 606 897 606 948 553.5 c 128,-1,4
 999 501 999 501 999 422 c 0,5,6
 999 372 999 372 974.5 331 c 128,-1,7
 950 290 950 290 915 261.5 c 128,-1,8
 880 233 880 233 844.5 206 c 128,-1,9
 809 179 809 179 783.5 143.5 c 128,-1,10
 758 108 758 108 756 66 c 1,11,-1
 1004 66 l 1,12,-1
 1004 0 l 1,13,-1
 610 0 l 1,14,15
 610 62 610 62 628 112 c 128,-1,16
 646 162 646 162 673 191.5 c 128,-1,17
 700 221 700 221 732 249.5 c 128,-1,18
 764 278 764 278 791 299.5 c 128,-1,19
 818 321 818 321 836 352.5 c 128,-1,20
 854 384 854 384 854 422 c 0,21,22
 854 482 854 482 840 511.5 c 128,-1,23
 826 541 826 541 805 541 c 0,24,25
 780 541 780 541 763 535 c 128,-1,26
 746 529 746 529 735 513.5 c 128,-1,27
 724 498 724 498 719.5 488 c 128,-1,28
 715 478 715 478 707 453 c 1,29,-1
 608 483 l 1,0,1
418 1366 m 1,30,-1
 418 754 l 1,31,-1
 272 754 l 1,32,-1
 272 1288 l 1,33,-1
 215 1282 l 1,34,-1
 215 1348 l 1,35,-1
 418 1366 l 1,30,-1
82 264 m 1,36,-1
 842 1047 l 1,37,-1
 999 1047 l 1,38,-1
 240 264 l 1,39,-1
 82 264 l 1,36,-1
EndSplineSet
Validated: 1
EndChar

StartChar: afii00208
Encoding: 8213 8213 355
Width: 1384
VWidth: 0
Flags: W
HStem: 348 102<82 1303>
LayerCount: 2
Fore
SplineSet
82 451 m 1,0,-1
 1303 451 l 1,1,-1
 1303 348 l 1,2,-1
 82 348 l 1,3,-1
 82 451 l 1,0,-1
EndSplineSet
Validated: 1
EndChar

StartChar: longs
Encoding: 383 383 360
Width: 731
VWidth: 0
Flags: W
HStem: 0 43G<139 395> 1270 102<452 644>
VStem: 139 256<0 1205>
LayerCount: 2
Fore
SplineSet
139 0 m 1,0,-1
 139 864 l 2,1,2
 139 946 139 946 141.5 1004 c 128,-1,3
 144 1062 144 1062 152 1116 c 128,-1,4
 160 1170 160 1170 173 1205 c 128,-1,5
 186 1240 186 1240 208.5 1271 c 128,-1,6
 231 1302 231 1302 260 1319.5 c 128,-1,7
 289 1337 289 1337 332 1350 c 128,-1,8
 375 1363 375 1363 427 1367.5 c 128,-1,9
 479 1372 479 1372 549 1372 c 0,10,11
 576 1372 576 1372 603.5 1367.5 c 128,-1,12
 631 1363 631 1363 647.5 1360 c 128,-1,13
 664 1357 664 1357 694 1343.5 c 128,-1,14
 724 1330 724 1330 732.5 1326.5 c 128,-1,15
 741 1323 741 1323 778 1303 c 128,-1,16
 815 1283 815 1283 821 1280 c 1,17,-1
 719 1174 l 1,18,19
 711 1180 711 1180 690 1194.5 c 128,-1,20
 669 1209 669 1209 663.5 1213 c 128,-1,21
 658 1217 658 1217 641.5 1228 c 128,-1,22
 625 1239 625 1239 619.5 1241.5 c 128,-1,23
 614 1244 614 1244 601 1251 c 128,-1,24
 588 1258 588 1258 581 1260 c 128,-1,25
 574 1262 574 1262 562.5 1265 c 128,-1,26
 551 1268 551 1268 540.5 1269 c 128,-1,27
 530 1270 530 1270 518 1270 c 0,28,29
 395 1270 395 1270 395 909 c 2,30,-1
 395 0 l 1,31,-1
 139 0 l 1,0,-1
EndSplineSet
Validated: 1
EndChar

StartChar: uniFB00
Encoding: 64256 64256 362
Width: 1255
VWidth: 0
Flags: W
HStem: 0 43G<152 408 817 1073> 799 102<61 152 408 817 1073 1225> 1270 102<427 569 1093 1234>
VStem: 152 256<0 799 901 1243> 817 256<0 799 901 1243>
LayerCount: 2
Fore
SplineSet
555 1239 m 1,0,1
 530 1270 530 1270 483 1270 c 0,2,3
 440 1270 440 1270 424 1223 c 128,-1,4
 408 1176 408 1176 408 1042 c 2,5,-1
 408 901 l 1,6,-1
 817 901 l 1,7,-1
 817 1096 l 2,8,9
 817 1217 817 1217 904.5 1294.5 c 128,-1,10
 992 1372 992 1372 1118 1372 c 0,11,12
 1203 1372 1203 1372 1264 1350 c 1,13,-1
 1221 1239 l 1,14,15
 1196 1270 1196 1270 1149 1270 c 0,16,17
 1106 1270 1106 1270 1089.5 1222.5 c 128,-1,18
 1073 1175 1073 1175 1073 1042 c 2,19,-1
 1073 901 l 1,20,-1
 1225 901 l 1,21,-1
 1225 799 l 1,22,-1
 1073 799 l 1,23,-1
 1073 0 l 1,24,-1
 817 0 l 1,25,-1
 817 799 l 1,26,-1
 408 799 l 1,27,-1
 408 0 l 1,28,-1
 152 0 l 1,29,-1
 152 799 l 1,30,-1
 31 799 l 1,31,-1
 61 901 l 1,32,-1
 152 901 l 1,33,-1
 152 1096 l 2,34,35
 152 1217 152 1217 239.5 1294.5 c 128,-1,36
 327 1372 327 1372 453 1372 c 0,37,38
 537 1372 537 1372 598 1350 c 1,39,-1
 555 1239 l 1,0,1
EndSplineSet
Validated: 1
LCarets2: 1 561 
Ligature2: "'liga' Standard Ligatures in Latin lookup 0-1" f f
EndChar

StartChar: fi
Encoding: 64257 64257 363
Width: 1153
VWidth: 0
Flags: W
HStem: 0 43G<152 408 776 1032> 799 102<61 152 408 776> 1065 164<797 1012> 1270 102<427 569>
VStem: 152 256<0 799 901 1243> 776 256<0 799> 797 215<1065 1229>
LayerCount: 2
Fore
SplineSet
555 1239 m 1,0,1
 530 1270 530 1270 483 1270 c 0,2,3
 440 1270 440 1270 424 1223 c 128,-1,4
 408 1176 408 1176 408 1042 c 2,5,-1
 408 901 l 1,6,-1
 1032 901 l 1,7,-1
 1032 0 l 1,8,-1
 776 0 l 1,9,-1
 776 799 l 1,10,-1
 408 799 l 1,11,-1
 408 0 l 1,12,-1
 152 0 l 1,13,-1
 152 799 l 1,14,-1
 31 799 l 1,15,-1
 61 901 l 1,16,-1
 152 901 l 1,17,-1
 152 1096 l 2,18,19
 152 1217 152 1217 239.5 1294.5 c 128,-1,20
 327 1372 327 1372 453 1372 c 0,21,22
 537 1372 537 1372 598 1350 c 1,23,-1
 555 1239 l 1,0,1
797 1229 m 1,24,-1
 1012 1229 l 1,25,-1
 1012 1065 l 1,26,-1
 797 1065 l 1,27,-1
 797 1229 l 1,24,-1
EndSplineSet
Validated: 1
LCarets2: 1 0 
Ligature2: "'liga' Standard Ligatures in Latin lookup 0-1" f i
EndChar

StartChar: fl
Encoding: 64258 64258 364
Width: 1204
VWidth: 0
Flags: W
HStem: 0 43G<152 408 778 1034> 799 102<61 152 408 504> 1270 102<466 725> 1311 41G<778 1034>
VStem: 152 256<0 799 901 1206> 778 256<0 1218 1311 1352>
LayerCount: 2
Fore
SplineSet
778 1188 m 1,0,1
 771 1192 771 1192 749 1208 c 128,-1,2
 727 1224 727 1224 707 1236 c 128,-1,3
 687 1248 687 1248 646 1259 c 128,-1,4
 605 1270 605 1270 555 1270 c 0,5,6
 535 1270 535 1270 517.5 1264.5 c 128,-1,7
 500 1259 500 1259 479 1241.5 c 128,-1,8
 458 1224 458 1224 443 1195.5 c 128,-1,9
 428 1167 428 1167 418 1116.5 c 128,-1,10
 408 1066 408 1066 408 999 c 2,11,-1
 408 901 l 1,12,-1
 504 901 l 1,13,-1
 504 799 l 1,14,-1
 408 799 l 1,15,-1
 408 0 l 1,16,-1
 152 0 l 1,17,-1
 152 799 l 1,18,-1
 31 799 l 1,19,-1
 61 901 l 1,20,-1
 152 901 l 1,21,-1
 152 1053 l 2,22,23
 152 1124 152 1124 175 1180.5 c 128,-1,24
 198 1237 198 1237 235.5 1272 c 128,-1,25
 273 1307 273 1307 322.5 1330.5 c 128,-1,26
 372 1354 372 1354 422 1363 c 128,-1,27
 472 1372 472 1372 524 1372 c 0,28,29
 569 1372 569 1372 607 1367.5 c 128,-1,30
 645 1363 645 1363 673 1354.5 c 128,-1,31
 701 1346 701 1346 718.5 1339 c 128,-1,32
 736 1332 736 1332 755 1322.5 c 128,-1,33
 774 1313 774 1313 778 1311 c 1,34,-1
 778 1352 l 1,35,-1
 1034 1352 l 1,36,-1
 1034 0 l 1,37,-1
 778 0 l 1,38,-1
 778 1188 l 1,0,1
EndSplineSet
Validated: 1
LCarets2: 1 664 
Ligature2: "'liga' Standard Ligatures in Latin lookup 0-1" f l
EndChar

StartChar: uniFB03
Encoding: 64259 64259 365
Width: 1818
VWidth: 0
Flags: W
HStem: 0 43G<152 408 817 1073 1442 1698> 799 102<61 152 408 817 1073 1442> 1065 164<1462 1677> 1270 102<427 569 1093 1234>
VStem: 152 256<0 799 901 1243> 817 256<0 799 901 1243> 1442 256<0 799> 1462 215<1065 1229>
LayerCount: 2
Fore
SplineSet
555 1239 m 1,0,1
 530 1270 530 1270 483 1270 c 0,2,3
 440 1270 440 1270 424 1223 c 128,-1,4
 408 1176 408 1176 408 1042 c 2,5,-1
 408 901 l 1,6,-1
 817 901 l 1,7,-1
 817 1096 l 2,8,9
 817 1217 817 1217 904.5 1294.5 c 128,-1,10
 992 1372 992 1372 1118 1372 c 0,11,12
 1203 1372 1203 1372 1264 1350 c 1,13,-1
 1221 1239 l 1,14,15
 1196 1270 1196 1270 1149 1270 c 0,16,17
 1106 1270 1106 1270 1089.5 1222.5 c 128,-1,18
 1073 1175 1073 1175 1073 1042 c 2,19,-1
 1073 901 l 1,20,-1
 1698 901 l 1,21,-1
 1698 0 l 1,22,-1
 1442 0 l 1,23,-1
 1442 799 l 1,24,-1
 1073 799 l 1,25,-1
 1073 0 l 1,26,-1
 817 0 l 1,27,-1
 817 799 l 1,28,-1
 408 799 l 1,29,-1
 408 0 l 1,30,-1
 152 0 l 1,31,-1
 152 799 l 1,32,-1
 31 799 l 1,33,-1
 61 901 l 1,34,-1
 152 901 l 1,35,-1
 152 1096 l 2,36,37
 152 1217 152 1217 239.5 1294.5 c 128,-1,38
 327 1372 327 1372 453 1372 c 0,39,40
 537 1372 537 1372 598 1350 c 1,41,-1
 555 1239 l 1,0,1
1462 1229 m 1,42,-1
 1677 1229 l 1,43,-1
 1677 1065 l 1,44,-1
 1462 1065 l 1,45,-1
 1462 1229 l 1,42,-1
EndSplineSet
Validated: 1
LCarets2: 2 0 0 
Ligature2: "'liga' Standard Ligatures in Latin lookup 0-1" f f i
EndChar

StartChar: uniFB04
Encoding: 64260 64260 366
Width: 1869
VWidth: 0
Flags: W
HStem: 0 43G<152 408 817 1073 1444 1700> 799 102<61 152 408 817 1073 1225> 1270 102<427 569 1233 1389> 1311 41G<1444 1700>
VStem: 152 256<0 799 901 1243> 817 256<0 799 901 1208> 1444 256<0 1219 1311 1352>
LayerCount: 2
Fore
SplineSet
555 1239 m 1,0,1
 530 1270 530 1270 483 1270 c 0,2,3
 440 1270 440 1270 424 1223 c 128,-1,4
 408 1176 408 1176 408 1042 c 2,5,-1
 408 901 l 1,6,-1
 817 901 l 1,7,-1
 817 1096 l 2,8,9
 817 1217 817 1217 904.5 1294.5 c 128,-1,10
 992 1372 992 1372 1118 1372 c 0,11,12
 1124 1372 1124 1372 1136.5 1371 c 128,-1,13
 1149 1370 1149 1370 1155 1370 c 128,-1,14
 1161 1370 1161 1370 1172.5 1371 c 128,-1,15
 1184 1372 1184 1372 1190 1372 c 0,16,17
 1235 1372 1235 1372 1273 1367.5 c 128,-1,18
 1311 1363 1311 1363 1339 1354.5 c 128,-1,19
 1367 1346 1367 1346 1384.5 1339 c 128,-1,20
 1402 1332 1402 1332 1421 1322.5 c 128,-1,21
 1440 1313 1440 1313 1444 1311 c 1,22,-1
 1444 1352 l 1,23,-1
 1700 1352 l 1,24,-1
 1700 0 l 1,25,-1
 1444 0 l 1,26,-1
 1444 1188 l 1,27,28
 1441 1189 1441 1189 1408 1214 c 128,-1,29
 1375 1239 1375 1239 1334 1253.5 c 128,-1,30
 1293 1268 1293 1268 1233 1270 c 1,31,-1
 1221 1239 l 1,32,33
 1205 1259 1205 1259 1186 1264 c 1,34,35
 1073 1230 1073 1230 1073 999 c 2,36,-1
 1073 901 l 1,37,-1
 1225 901 l 1,38,-1
 1225 799 l 1,39,-1
 1073 799 l 1,40,-1
 1073 0 l 1,41,-1
 817 0 l 1,42,-1
 817 799 l 1,43,-1
 408 799 l 1,44,-1
 408 0 l 1,45,-1
 152 0 l 1,46,-1
 152 799 l 1,47,-1
 31 799 l 1,48,-1
 61 901 l 1,49,-1
 152 901 l 1,50,-1
 152 1096 l 2,51,52
 152 1217 152 1217 239.5 1294.5 c 128,-1,53
 327 1372 327 1372 453 1372 c 0,54,55
 537 1372 537 1372 598 1350 c 1,56,-1
 555 1239 l 1,0,1
EndSplineSet
Validated: 1
LCarets2: 2 639 1116 
Ligature2: "'liga' Standard Ligatures in Latin lookup 0-1" f f l
EndChar

StartChar: degree
Encoding: 176 176 369
Width: 577
VWidth: 0
Flags: W
HStem: 1010 96<212 365> 1286 96<212 365>
VStem: 102 96<1119 1273> 379 96<1119 1273>
LayerCount: 2
Fore
SplineSet
199 1196 m 128,-1,1
 199 1159 199 1159 225.5 1132.5 c 128,-1,2
 252 1106 252 1106 289 1106 c 128,-1,3
 326 1106 326 1106 352.5 1132.5 c 128,-1,4
 379 1159 379 1159 379 1196 c 128,-1,5
 379 1233 379 1233 352.5 1259.5 c 128,-1,6
 326 1286 326 1286 289 1286 c 128,-1,7
 252 1286 252 1286 225.5 1259.5 c 128,-1,0
 199 1233 199 1233 199 1196 c 128,-1,1
102 1196 m 128,-1,9
 102 1272 102 1272 157 1327 c 128,-1,10
 212 1382 212 1382 289 1382 c 128,-1,11
 366 1382 366 1382 420.5 1327 c 128,-1,12
 475 1272 475 1272 475 1196 c 128,-1,13
 475 1120 475 1120 420.5 1065 c 128,-1,14
 366 1010 366 1010 289 1010 c 128,-1,15
 212 1010 212 1010 157 1065 c 128,-1,8
 102 1120 102 1120 102 1196 c 128,-1,9
EndSplineSet
Validated: 1
EndChar

StartChar: uni01EA
Encoding: 490 490 378
Width: 1435
VWidth: 0
Flags: W
HStem: -319 37<717 805> -20 102<587 861> 1352 102<565 855>
VStem: 102 266<424 1012> 506 147<-254 -77> 1071 266<414 1009>
AnchorPoint: "top" 707 1434 basechar 0
AnchorPoint: "horn" 1217 1085 basechar 0
LayerCount: 2
Fore
SplineSet
698 1352 m 0,0,1
 553 1352 553 1352 461 1189.5 c 128,-1,2
 369 1027 369 1027 369 717 c 0,3,4
 369 586 369 586 389.5 478 c 128,-1,5
 410 370 410 370 444 298 c 128,-1,6
 478 226 478 226 523.5 176 c 128,-1,7
 569 126 569 126 617.5 104 c 128,-1,8
 666 82 666 82 717 82 c 0,9,10
 875 82 875 82 973 244.5 c 128,-1,11
 1071 407 1071 407 1071 717 c 0,12,13
 1071 1040 1071 1040 970 1196 c 128,-1,14
 869 1352 869 1352 698 1352 c 0,0,1
722 -20 m 1,15,16
 693 -45 693 -45 673 -83 c 128,-1,17
 653 -121 653 -121 653 -150 c 0,18,19
 653 -283 653 -283 805 -283 c 1,20,-1
 805 -319 l 1,21,22
 649 -319 649 -319 577.5 -278.5 c 128,-1,23
 506 -238 506 -238 506 -186 c 0,24,25
 506 -77 506 -77 638 -16 c 1,26,27
 559 -5 559 -5 483.5 28 c 128,-1,28
 408 61 408 61 338.5 122 c 128,-1,29
 269 183 269 183 216.5 265 c 128,-1,30
 164 347 164 347 133 463.5 c 128,-1,31
 102 580 102 580 102 717 c 0,32,33
 102 865 102 865 136.5 989.5 c 128,-1,34
 171 1114 171 1114 228.5 1198.5 c 128,-1,35
 286 1283 286 1283 362 1341.5 c 128,-1,36
 438 1400 438 1400 520 1427 c 128,-1,37
 602 1454 602 1454 686 1454 c 0,38,39
 788 1454 788 1454 882 1427 c 128,-1,40
 976 1400 976 1400 1059.5 1341.5 c 128,-1,41
 1143 1283 1143 1283 1204.5 1198 c 128,-1,42
 1266 1113 1266 1113 1301.5 989.5 c 128,-1,43
 1337 866 1337 866 1337 717 c 0,44,45
 1337 570 1337 570 1304.5 448.5 c 128,-1,46
 1272 327 1272 327 1215.5 242 c 128,-1,47
 1159 157 1159 157 1080.5 98.5 c 128,-1,48
 1002 40 1002 40 912.5 11 c 128,-1,49
 823 -18 823 -18 722 -20 c 1,15,16
EndSplineSet
Validated: 1
EndChar

StartChar: uni01EB
Encoding: 491 491 379
Width: 1056
VWidth: 0
Flags: W
HStem: -319 37<539 627> -20 102<425 644> 819 102<426 643>
VStem: 90 256<214 657> 328 147<-254 -77> 715 256<223 678>
AnchorPoint: "top" 535 1004 basechar 0
AnchorPoint: "horn" 881 635 basechar 0
LayerCount: 2
Fore
SplineSet
715 451 m 0,0,1
 715 537 715 537 707 600.5 c 128,-1,2
 699 664 699 664 680.5 715.5 c 128,-1,3
 662 767 662 767 627.5 793 c 128,-1,4
 593 819 593 819 543 819 c 0,5,6
 435 819 435 819 390.5 725.5 c 128,-1,7
 346 632 346 632 346 451 c 0,8,9
 346 380 346 380 351 326 c 128,-1,10
 356 272 356 272 369.5 224.5 c 128,-1,11
 383 177 383 177 404.5 146.5 c 128,-1,12
 426 116 426 116 461 99 c 128,-1,13
 496 82 496 82 543 82 c 0,14,15
 595 82 595 82 630 108 c 128,-1,16
 665 134 665 134 683 186 c 128,-1,17
 701 238 701 238 708 300.5 c 128,-1,18
 715 363 715 363 715 451 c 0,0,1
457 -18 m 1,19,20
 284 0 284 0 187 125 c 128,-1,21
 90 250 90 250 90 451 c 0,22,23
 90 555 90 555 127 645 c 128,-1,24
 164 735 164 735 224 794.5 c 128,-1,25
 284 854 284 854 359.5 888 c 128,-1,26
 435 922 435 922 512 922 c 0,27,28
 719 922 719 922 845 801 c 128,-1,29
 971 680 971 680 971 451 c 0,30,31
 971 231 971 231 855 110 c 128,-1,32
 739 -11 739 -11 545 -20 c 1,33,34
 515 -45 515 -45 495 -83 c 128,-1,35
 475 -121 475 -121 475 -150 c 0,36,37
 475 -283 475 -283 627 -283 c 1,38,-1
 627 -319 l 1,39,40
 471 -319 471 -319 399.5 -278.5 c 128,-1,41
 328 -238 328 -238 328 -186 c 0,42,43
 328 -80 328 -80 457 -18 c 1,19,20
EndSplineSet
Validated: 1
EndChar

StartChar: afii10051
Encoding: 1026 1026 382
Width: 1503
VWidth: 0
Flags: W
HStem: -348 102<810 1049> 0 43G<508 772> 819 102<799 1051> 1331 102<41 508 772 1239>
VStem: 508 264<0 784 891 1331> 1108 256<-128 720>
AnchorPoint: "top" 643 1434 basechar 0
LayerCount: 2
Fore
SplineSet
772 0 m 1,0,-1
 508 0 l 1,1,-1
 508 1331 l 1,2,-1
 41 1331 l 1,3,-1
 41 1434 l 1,4,-1
 1243 1434 l 1,5,-1
 1239 1331 l 1,6,-1
 772 1331 l 1,7,-1
 772 891 l 1,8,9
 851 922 851 922 936 922 c 0,10,11
 1152 922 1152 922 1258 816 c 128,-1,12
 1364 710 1364 710 1364 492 c 2,13,-1
 1364 160 l 2,14,15
 1364 39 1364 39 1344.5 -50 c 128,-1,16
 1325 -139 1325 -139 1290.5 -196 c 128,-1,17
 1256 -253 1256 -253 1202 -287 c 128,-1,18
 1148 -321 1148 -321 1086.5 -334.5 c 128,-1,19
 1025 -348 1025 -348 944 -348 c 0,20,21
 797 -348 797 -348 621 -256 c 1,22,-1
 723 -150 l 1,23,24
 860 -246 860 -246 975 -246 c 0,25,26
 1108 -246 1108 -246 1108 115 c 2,27,-1
 1108 467 l 2,28,29
 1108 606 1108 606 1090 685.5 c 128,-1,30
 1072 765 1072 765 1042.5 792 c 128,-1,31
 1013 819 1013 819 967 819 c 0,32,33
 861 819 861 819 772 758 c 1,34,-1
 772 0 l 1,0,-1
EndSplineSet
Validated: 1
EndChar

StartChar: afii10053
Encoding: 1028 1028 384
Width: 1331
VWidth: 0
Flags: W
HStem: -20 102<627 929> 713 102<373 938> 1352 102<596 883>
VStem: 102 266<440 713 815 1012>
AnchorPoint: "top" 717 1434 basechar 0
LayerCount: 2
Fore
SplineSet
1249 209 m 1,0,1
 1169 106 1169 106 1035.5 43 c 128,-1,2
 902 -20 902 -20 741 -20 c 0,3,4
 659 -20 659 -20 572.5 7 c 128,-1,5
 486 34 486 34 401 93 c 128,-1,6
 316 152 316 152 250 235.5 c 128,-1,7
 184 319 184 319 143 444.5 c 128,-1,8
 102 570 102 570 102 717 c 0,9,10
 102 865 102 865 139 989.5 c 128,-1,11
 176 1114 176 1114 236 1198 c 128,-1,12
 296 1282 296 1282 375 1341 c 128,-1,13
 454 1400 454 1400 536.5 1427 c 128,-1,14
 619 1454 619 1454 702 1454 c 0,15,16
 1075 1454 1075 1454 1243 1245 c 1,17,-1
 1044 1157 l 1,18,19
 986 1238 986 1238 903.5 1295 c 128,-1,20
 821 1352 821 1352 733 1352 c 0,21,22
 594 1352 594 1352 492.5 1213 c 128,-1,23
 391 1074 391 1074 373 815 c 1,24,-1
 938 815 l 1,25,-1
 938 713 l 1,26,-1
 369 713 l 1,27,28
 370 584 370 584 396 475.5 c 128,-1,29
 422 367 422 367 464 296 c 128,-1,30
 506 225 506 225 559.5 175.5 c 128,-1,31
 613 126 613 126 666.5 104 c 128,-1,32
 720 82 720 82 772 82 c 0,33,34
 951 82 951 82 1083 285 c 1,35,-1
 1249 209 l 1,0,1
EndSplineSet
Validated: 1
EndChar

StartChar: afii10058
Encoding: 1033 1033 389
Width: 1792
VWidth: 0
Flags: W
HStem: -20 102<131 362> 0 102<1163 1345> 799 102<1163 1346> 1331 102<649 897>
VStem: 383 266<108 1331> 897 266<102 799 901 1331> 1475 266<260 638>
AnchorPoint: "top" 768 1434 basechar 0
LayerCount: 2
Fore
SplineSet
1741 457 m 0,0,1
 1741 393 1741 393 1725 330.5 c 128,-1,2
 1709 268 1709 268 1673.5 207.5 c 128,-1,3
 1638 147 1638 147 1586.5 101.5 c 128,-1,4
 1535 56 1535 56 1457.5 28 c 128,-1,5
 1380 0 1380 0 1286 0 c 2,6,-1
 897 0 l 1,7,-1
 897 1331 l 1,8,-1
 649 1331 l 1,9,-1
 649 260 l 2,10,11
 649 -20 649 -20 262 -20 c 0,12,13
 199 -20 199 -20 136 3.5 c 128,-1,14
 73 27 73 27 35 72 c 1,15,-1
 164 133 l 1,16,17
 200 82 200 82 293 82 c 0,18,19
 317 82 317 82 333 92 c 128,-1,20
 349 102 349 102 359 119.5 c 128,-1,21
 369 137 369 137 374.5 169.5 c 128,-1,22
 380 202 380 202 381.5 237.5 c 128,-1,23
 383 273 383 273 383 328 c 2,24,-1
 383 1434 l 1,25,-1
 1163 1434 l 1,26,-1
 1163 901 l 1,27,-1
 1282 901 l 2,28,29
 1383 901 1383 901 1471.5 861 c 128,-1,30
 1560 821 1560 821 1617.5 757 c 128,-1,31
 1675 693 1675 693 1708 614.5 c 128,-1,32
 1741 536 1741 536 1741 457 c 0,0,1
1163 799 m 1,33,-1
 1163 102 l 1,34,-1
 1225 102 l 2,35,36
 1287 102 1287 102 1337 137 c 128,-1,37
 1387 172 1387 172 1416 226.5 c 128,-1,38
 1445 281 1445 281 1460 340.5 c 128,-1,39
 1475 400 1475 400 1475 457 c 0,40,41
 1475 534 1475 534 1450 609.5 c 128,-1,42
 1425 685 1425 685 1366 742 c 128,-1,43
 1307 799 1307 799 1225 799 c 2,44,-1
 1163 799 l 1,33,-1
EndSplineSet
Validated: 1
EndChar

